<?xml version="1.0" encoding="utf-8"?>
<!-- Generator: Adobe Illustrator 23.0.1, SVG Export Plug-In . SVG Version: 6.00 Build 0)  -->
<svg version="1.1" id="Layer_1" xmlns="http://www.w3.org/2000/svg" xmlns:xlink="http://www.w3.org/1999/xlink" x="0px" y="0px"
	 viewBox="0 0 909.32 909.33" style="enable-background:new 0 0 909.32 909.33;" xml:space="preserve">
<style type="text/css">
	.st0{fill:#0094D9;}
	.st1{fill:#224099;}
	.st2{fill:#FFFFFF;}
	.st3{fill:none;stroke:#224099;stroke-width:2;stroke-linecap:round;stroke-linejoin:round;stroke-miterlimit:10;}
	.st4{fill:none;stroke:#FFFFFF;stroke-width:2;stroke-linecap:round;stroke-linejoin:round;stroke-miterlimit:10;}
	.st5{fill:#1E4497;}
</style>
<g>
	<path class="st0" d="M103.92,727.08c-7.71,0-15.31-3.62-20.1-10.39C-44.43,535.56-23.62,290.21,133.29,133.3
		C290.21-23.62,535.57-44.43,716.69,83.82c11.09,7.85,13.72,23.21,5.86,34.3c-7.85,11.09-23.21,13.73-34.3,5.86
		C526.75,9.64,307.99,28.19,168.09,168.1C28.19,308,9.64,526.76,123.98,688.25c7.85,11.09,5.23,26.45-5.86,34.3
		C113.8,725.61,108.84,727.08,103.92,727.08z"/>
	<path class="st1" d="M455.12,909.33c-91.27,0-183.04-27.57-262.48-83.82c-11.09-7.85-13.72-23.21-5.86-34.3
		c7.85-11.1,23.22-13.72,34.3-5.86c161.49,114.34,380.25,95.79,520.16-44.11c139.9-139.9,158.45-358.66,44.11-520.16
		c-7.85-11.09-5.23-26.45,5.86-34.3c11.08-7.87,26.45-5.23,34.3,5.86c128.25,181.13,107.43,426.48-49.48,583.39
		C687.94,864.12,571.94,909.33,455.12,909.33z"/>
</g>
<g>
	<path class="st1" d="M518.52,664.92H373.37c-9.06,0-16.41-7.35-16.41-16.41c0-9.06,7.35-16.41,16.41-16.41h145.16
		c9.06,0,16.41,7.35,16.41,16.41C534.93,657.58,527.58,664.92,518.52,664.92z"/>
	<path class="st1" d="M621.24,664.92h-11.6c-9.06,0-16.41-7.35-16.41-16.41c0-9.06,7.35-16.41,16.41-16.41h11.6
		c29.69,0,53.85-24.15,53.85-53.84V457.01c0-29.69-24.16-53.84-53.85-53.84H288.05c-29.69,0-53.85,24.15-53.85,53.84v121.26
		c0,29.69,24.16,53.84,53.85,53.84c9.06,0,16.41,7.35,16.41,16.41c0,9.06-7.35,16.41-16.41,16.41c-47.78,0-86.66-38.87-86.66-86.65
		V457.01c0-47.78,38.88-86.65,86.66-86.65h333.18c47.78,0,86.66,38.87,86.66,86.65v121.26
		C707.89,626.05,669.02,664.92,621.24,664.92z"/>
	<path class="st1" d="M330.45,716.4c-32.71,0-59.33-26.62-59.33-59.33c0-32.71,26.62-59.32,59.33-59.32s59.32,26.61,59.32,59.32
		C389.77,689.78,363.16,716.4,330.45,716.4z M330.45,630.56c-14.62,0-26.52,11.89-26.52,26.51c0,14.62,11.9,26.52,26.52,26.52
		s26.51-11.9,26.51-26.52C356.96,642.45,345.07,630.56,330.45,630.56z"/>
	<path class="st1" d="M561.45,716.4c-32.71,0-59.33-26.62-59.33-59.33c0-32.71,26.62-59.32,59.33-59.32
		c32.71,0,59.33,26.61,59.33,59.32C620.77,689.78,594.16,716.4,561.45,716.4z M561.45,630.56c-14.62,0-26.52,11.89-26.52,26.51
		c0,14.62,11.9,26.52,26.52,26.52s26.52-11.9,26.52-26.52C587.96,642.45,576.06,630.56,561.45,630.56z"/>
	<path class="st1" d="M684.68,510.66H217.8c-9.06,0-16.41-7.35-16.41-16.41s7.35-16.41,16.41-16.41h466.88
		c9.06,0,16.41,7.35,16.41,16.41S693.74,510.66,684.68,510.66z"/>
	<path class="st1" d="M373.37,510.66c-9.06,0-16.41-7.35-16.41-16.41V386.76c0-9.06,7.35-16.41,16.41-16.41
		c9.06,0,16.41,7.35,16.41,16.41v107.49C389.77,503.31,382.43,510.66,373.37,510.66z"/>
	<path class="st1" d="M527.48,500.81c-9.06,0-16.41-7.35-16.41-16.41v-97.65c0-9.06,7.35-16.41,16.41-16.41
		c9.06,0,16.41,7.35,16.41,16.41v97.65C543.88,493.46,536.54,500.81,527.48,500.81z"/>
	<g>
		<path class="st0" d="M440.29,293.79h-97.98c-9.06,0-16.41-7.35-16.41-16.41s7.35-16.41,16.41-16.41h97.98
			c9.06,0,16.41,7.35,16.41,16.41S449.35,293.79,440.29,293.79z"/>
		<path class="st0" d="M364.5,342.35c-3.48,0-6.99-1.1-9.96-3.38l-59.49-45.56c-3.92-3-6.28-7.6-6.42-12.53s1.93-9.66,5.66-12.89
			l59.49-51.56c6.84-5.94,17.21-5.19,23.14,1.65c5.94,6.85,5.19,17.21-1.65,23.14l-44.28,38.37l43.51,33.32
			c7.19,5.51,8.56,15.81,3.05,23C374.31,340.13,369.43,342.35,364.5,342.35z"/>
	</g>
	<g>
		<path class="st0" d="M565.25,222.18h-97.97c-9.06,0-16.41-7.35-16.41-16.41s7.35-16.41,16.41-16.41h97.97
			c9.06,0,16.41,7.35,16.41,16.41S574.31,222.18,565.25,222.18z"/>
		<path class="st0" d="M543.06,270.75c-4.59,0-9.16-1.92-12.4-5.66c-5.94-6.85-5.19-17.21,1.65-23.14l44.28-38.38l-43.51-33.32
			c-7.19-5.51-8.56-15.8-3.05-23c5.51-7.19,15.81-8.56,23-3.05l59.49,45.56c3.92,3,6.28,7.6,6.42,12.53s-1.93,9.66-5.65,12.89
			l-59.49,51.56C550.7,269.43,546.87,270.75,543.06,270.75z"/>
	</g>
</g>
</svg>
