<?xml version="1.0" encoding="utf-8"?>
<!-- Generator: Adobe Illustrator 23.0.1, SVG Export Plug-In . SVG Version: 6.00 Build 0)  -->
<svg version="1.1" id="Layer_1" xmlns="http://www.w3.org/2000/svg" xmlns:xlink="http://www.w3.org/1999/xlink" x="0px" y="0px"
	 viewBox="0 0 867.13 867.13" style="enable-background:new 0 0 867.13 867.13;" xml:space="preserve">
<style type="text/css">
	.st0{fill:#21409A;}
	.st1{fill:#0095DA;}
	.st2{fill:#FFFFFF;}
	.st3{fill:none;stroke:#FFFFFF;stroke-width:2;stroke-linecap:round;stroke-linejoin:round;stroke-miterlimit:10;}
	.st4{fill:#1F4396;}
	.st5{fill:#1F4497;}
	.st6{fill:#214099;}
</style>
<g>
	<g>
		<path class="st1" d="M99.1,693.34c-7.36,0-14.6-3.45-19.17-9.91c-122.3-172.72-102.45-406.68,47.18-556.32
			C276.72-22.52,510.72-42.37,683.43,79.93c10.58,7.49,13.09,22.13,5.59,32.71c-7.47,10.58-22.12,13.09-32.71,5.59
			C502.31,9.21,293.7,26.91,160.29,160.3C26.89,293.72,9.19,502.32,118.23,656.31c7.49,10.57,4.99,25.22-5.59,32.71
			C108.52,691.94,103.79,693.34,99.1,693.34z"/>
		<path class="st0" d="M434,867.13c-87.04,0-174.55-26.29-250.3-79.93c-10.58-7.49-13.09-22.13-5.59-32.71
			c7.48-10.58,22.12-13.09,32.71-5.59c154.02,109.04,362.62,91.34,496.02-42.07c133.41-133.41,151.1-342.02,42.06-496.02
			c-7.49-10.57-4.99-25.22,5.59-32.71c10.59-7.49,25.22-4.98,32.71,5.59c122.29,172.72,102.45,406.69-47.18,556.32
			C656.02,824.02,545.41,867.13,434,867.13z"/>
	</g>
</g>
<path class="st1" d="M354.63,358.61c-6.48,0-11.73-5.26-11.73-11.73V197.26c0-6.48,5.26-11.73,11.73-11.73
	c6.48,0,11.73,5.26,11.73,11.73v149.62C366.37,353.36,361.11,358.61,354.63,358.61z"/>
<path class="st1" d="M354.63,279.58c-1.27,0-2.54-0.21-3.77-0.63l-103.84-35.29c-4.76-1.61-7.96-6.08-7.96-11.11s3.2-9.5,7.96-11.11
	l103.84-35.3c3.57-1.24,7.53-0.63,10.6,1.57c3.08,2.21,4.9,5.76,4.9,9.54v70.59c0,3.78-1.83,7.33-4.9,9.54
	C359.44,278.83,357.05,279.58,354.63,279.58z M287.25,232.55l55.65,18.91v-37.84L287.25,232.55z"/>
<g>
	<path class="st0" d="M682.91,545.73c-0.06,0-0.12,0-0.18,0l-43.53-0.69c-6.35-0.1-11.47-5.23-11.55-11.58l-1.62-123.47
		c-0.08-6.48,5.1-11.8,11.58-11.89c0.05,0,0.11,0,0.15,0c6.41,0,11.65,5.15,11.73,11.58l1.47,112.08l32.14,0.5
		c6.48,0.11,11.65,5.44,11.55,11.92C694.54,540.59,689.3,545.73,682.91,545.73z"/>
	<g>
		<path class="st0" d="M682.93,601.31H627.2c-6.48,0-11.73-5.26-11.73-11.73s5.26-11.73,11.73-11.73h43.99v-87.75l-24.88-128.96
			H287.02c-5.57,0-10.37-3.91-11.49-9.36L271,329.84h-28.32v248h42.84c6.48,0,11.73,5.26,11.73,11.73s-5.26,11.73-11.73,11.73
			h-54.57c-6.48,0-11.73-5.26-11.73-11.73V318.11c0-6.48,5.26-11.73,11.73-11.73h49.61c5.57,0,10.37,3.91,11.49,9.36l4.53,21.93H656
			c5.62,0,10.46,3.99,11.52,9.51l26.93,139.57c0.15,0.73,0.21,1.47,0.21,2.22v100.6C694.66,596.05,689.41,601.31,682.93,601.31z"/>
		<path class="st0" d="M544.44,601.31H356.57c-6.48,0-11.73-5.26-11.73-11.73s5.26-11.73,11.73-11.73h187.86
			c6.48,0,11.73,5.26,11.73,11.73S550.91,601.31,544.44,601.31z"/>
		<path class="st0" d="M321.19,653.61c-25.98,0-47.12-21.14-47.12-47.12c0-25.99,21.14-47.12,47.12-47.12s47.12,21.14,47.12,47.12
			C368.31,632.47,347.17,653.61,321.19,653.61z M321.19,582.84c-13.04,0-23.65,10.61-23.65,23.66c0,13.04,10.61,23.65,23.65,23.65
			s23.65-10.61,23.65-23.65C344.84,593.45,334.23,582.84,321.19,582.84z"/>
		<path class="st0" d="M591.16,653.61c-25.98,0-47.12-21.14-47.12-47.12c0-25.99,21.14-47.12,47.12-47.12
			c25.99,0,47.12,21.14,47.12,47.12C638.29,632.47,617.15,653.61,591.16,653.61z M591.16,582.84c-13.04,0-23.65,10.61-23.65,23.66
			c0,13.04,10.61,23.65,23.65,23.65c13.05,0,23.66-10.61,23.66-23.65C614.82,593.45,604.21,582.84,591.16,582.84z"/>
		<path class="st0" d="M658.33,406.48H230.95c-6.48,0-11.73-5.26-11.73-11.73c0-6.48,5.26-11.73,11.73-11.73h427.38
			c6.48,0,11.73,5.26,11.73,11.73C670.06,401.22,664.81,406.48,658.33,406.48z"/>
		<path class="st0" d="M594.41,518.84H276.93c-6.48,0-11.73-5.26-11.73-11.73v-72.68c0-6.48,5.26-11.73,11.73-11.73h317.48
			c6.48,0,11.73,5.26,11.73,11.73v72.68C606.14,513.58,600.89,518.84,594.41,518.84z M288.66,495.37h294.01v-49.22H288.66V495.37z"
			/>
		<path class="st0" d="M344.61,518.84c-6.48,0-11.73-5.26-11.73-11.73v-72.68c0-6.48,5.26-11.73,11.73-11.73
			c6.48,0,11.73,5.26,11.73,11.73v72.68C356.34,513.58,351.09,518.84,344.61,518.84z"/>
		<path class="st0" d="M405.59,518.84c-6.48,0-11.73-5.26-11.73-11.73v-72.68c0-6.48,5.26-11.73,11.73-11.73
			c6.48,0,11.73,5.26,11.73,11.73v72.68C417.32,513.58,412.07,518.84,405.59,518.84z"/>
		<path class="st0" d="M466.58,518.84c-6.48,0-11.73-5.26-11.73-11.73v-72.68c0-6.48,5.26-11.73,11.73-11.73
			c6.48,0,11.73,5.26,11.73,11.73v72.68C478.31,513.58,473.06,518.84,466.58,518.84z"/>
		<path class="st0" d="M527.56,518.84c-6.48,0-11.73-5.26-11.73-11.73v-72.68c0-6.48,5.26-11.73,11.73-11.73s11.73,5.26,11.73,11.73
			v72.68C539.29,513.58,534.04,518.84,527.56,518.84z"/>
	</g>
</g>
</svg>
