<?xml version="1.0" encoding="utf-8"?>
<!-- Generator: Adobe Illustrator 23.0.1, SVG Export Plug-In . SVG Version: 6.00 Build 0)  -->
<svg version="1.1" id="Layer_1" xmlns="http://www.w3.org/2000/svg" xmlns:xlink="http://www.w3.org/1999/xlink" x="0px" y="0px"
	 viewBox="0 0 909.32 909.33" style="enable-background:new 0 0 909.32 909.33;" xml:space="preserve">
<style type="text/css">
	.st0{fill:#0094D9;}
	.st1{fill:#224099;}
	.st2{fill:#FFFFFF;}
	.st3{fill:none;stroke:#224099;stroke-width:2;stroke-linecap:round;stroke-linejoin:round;stroke-miterlimit:10;}
	.st4{fill:none;stroke:#FFFFFF;stroke-width:2;stroke-linecap:round;stroke-linejoin:round;stroke-miterlimit:10;}
	.st5{fill:#1E4497;}
</style>
<g>
	<g>
		<path class="st0" d="M103.92,727.08c-7.71,0-15.31-3.62-20.1-10.39C-44.43,535.57-23.62,290.21,133.29,133.3
			C290.21-23.62,535.56-44.43,716.69,83.82c11.09,7.85,13.72,23.21,5.86,34.3c-7.85,11.09-23.21,13.73-34.3,5.86
			C526.75,9.64,308,28.2,168.09,168.1C28.19,308,9.64,526.76,123.98,688.25c7.85,11.09,5.23,26.45-5.86,34.3
			C113.8,725.61,108.84,727.08,103.92,727.08z"/>
		<path class="st1" d="M455.12,909.33c-91.27,0-183.04-27.57-262.48-83.82c-11.09-7.85-13.72-23.21-5.86-34.3
			c7.85-11.1,23.21-13.72,34.3-5.86c161.49,114.34,380.25,95.79,520.16-44.11c139.9-139.9,158.45-358.66,44.11-520.16
			c-7.85-11.09-5.23-26.45,5.86-34.3c11.09-7.87,26.45-5.23,34.3,5.86c128.25,181.13,107.43,426.48-49.48,583.39
			C687.94,864.12,571.94,909.33,455.12,909.33z"/>
	</g>
</g>
<g>
	<path class="st1" d="M699.34,373.82c-2.8,0-5.65-0.58-8.37-1.79L461.3,269.14L231.64,372.02c-10.34,4.62-22.47,0-27.1-10.33
		c-4.63-10.33,0-22.47,10.33-27.1l238.05-106.64c5.34-2.39,11.43-2.39,16.77,0l238.05,106.64c10.34,4.63,14.96,16.77,10.33,27.1
		C714.66,369.3,707.17,373.82,699.34,373.82z"/>
	<path class="st1" d="M674.91,594.79H256.07c-9.06,0-16.41-7.35-16.41-16.41c0-9.06,7.35-16.41,16.41-16.41h418.84
		c9.06,0,16.41,7.35,16.41,16.41C691.31,587.44,683.97,594.79,674.91,594.79z"/>
	<path class="st1" d="M332.73,514.13c-30.68,0-55.63-24.96-55.63-55.64c0-30.68,24.96-55.63,55.63-55.63
		c30.68,0,55.64,24.96,55.64,55.63C388.36,489.18,363.41,514.13,332.73,514.13z M332.73,435.67c-12.58,0-22.82,10.24-22.82,22.82
		s10.24,22.83,22.82,22.83s22.83-10.24,22.83-22.83S345.31,435.67,332.73,435.67z"/>
	<path class="st1" d="M245.91,647.02c-9.06,0-16.41-7.35-16.41-16.41V466.53c0-9.06,7.35-16.41,16.41-16.41s16.41,7.35,16.41,16.41
		v164.08C262.31,639.67,254.97,647.02,245.91,647.02z"/>
	<path class="st1" d="M685.24,647.02c-9.06,0-16.41-7.35-16.41-16.41V523.95c0-9.06,7.35-16.41,16.41-16.41
		c9.06,0,16.41,7.35,16.41,16.41v106.66C701.65,639.67,694.3,647.02,685.24,647.02z"/>
	<path class="st1" d="M630.2,528.92H291.3c-9.06,0-16.41-7.35-16.41-16.41c0-9.06,7.35-16.41,16.41-16.41h106.12v-62.39
		c0-9.06,7.35-16.41,16.41-16.41h167.62c35.93,0,65.16,29.23,65.16,65.16v30.04C646.61,521.57,639.26,528.92,630.2,528.92z
		 M430.23,496.11h183.56v-13.63c0-17.84-14.51-32.35-32.35-32.35H430.23V496.11z"/>
</g>
</svg>
