<?xml version="1.0" encoding="utf-8"?>
<!-- Generator: Adobe Illustrator 23.0.1, SVG Export Plug-In . SVG Version: 6.00 Build 0)  -->
<svg version="1.1" id="Layer_1" xmlns="http://www.w3.org/2000/svg" xmlns:xlink="http://www.w3.org/1999/xlink" x="0px" y="0px"
	 viewBox="0 0 909.32 909.33" style="enable-background:new 0 0 909.32 909.33;" xml:space="preserve">
<style type="text/css">
	.st0{fill:#0094D9;}
	.st1{fill:#224099;}
	.st2{fill:#FFFFFF;}
	.st3{fill:none;stroke:#224099;stroke-width:2;stroke-linecap:round;stroke-linejoin:round;stroke-miterlimit:10;}
	.st4{fill:none;stroke:#FFFFFF;stroke-width:2;stroke-linecap:round;stroke-linejoin:round;stroke-miterlimit:10;}
	.st5{fill:#1E4497;}
</style>
<g>
	<g>
		<path class="st0" d="M103.92,727.08c-7.71,0-15.31-3.62-20.1-10.39C-44.43,535.56-23.62,290.21,133.3,133.3
			C290.2-23.62,535.56-44.43,716.69,83.82c11.09,7.85,13.72,23.21,5.86,34.3c-7.85,11.1-23.21,13.72-34.3,5.86
			C526.76,9.65,308,28.19,168.1,168.09C28.19,308,9.64,526.76,123.98,688.25c7.85,11.09,5.23,26.45-5.86,34.3
			C113.8,725.61,108.84,727.08,103.92,727.08z"/>
		<path class="st1" d="M455.11,909.33c-91.27,0-183.04-27.57-262.48-83.82c-11.09-7.85-13.72-23.21-5.86-34.3
			c7.85-11.1,23.21-13.72,34.3-5.86c161.49,114.34,380.25,95.79,520.16-44.11c139.9-139.9,158.45-358.66,44.11-520.16
			c-7.85-11.09-5.23-26.45,5.86-34.3c11.09-7.86,26.45-5.23,34.3,5.86c128.24,181.13,107.43,426.48-49.48,583.39
			C687.94,864.12,571.94,909.33,455.11,909.33z"/>
	</g>
	<g>
		<g>
			<path class="st1" d="M731.08,554.27c-5.7,0-11.28,0-15.88-0.89c-1.47-0.02-4.49-0.08-8.83-0.18c-3.96-0.1-7.63-2.09-9.86-5.36
				c-2.23-3.27-2.76-7.42-1.4-11.14c0.5-1.37,0.96-2.79,1.37-4.21c0.29-1.13,0.63-2.54,0.94-4.03c0.59-3.27,0.91-6.56,0.91-9.78
				c0-29.2-23.76-52.95-52.95-52.95c-29.2,0-52.95,23.76-52.95,52.95c0,2.44,0.2,4.95,0.63,7.67c0.2,1.35,0.42,2.68,0.73,3.93
				c0.36,1.77,0.67,2.98,1.05,4.1c1.27,3.8,0.61,7.97-1.76,11.19c-2.37,3.22-6.13,5.17-10.17,5.01
				c-97.27-2.03-196.56-4.31-265.61-6.08c-3.65-0.09-7.07-1.81-9.34-4.67s-3.14-6.59-2.39-10.16c0.26-1.24,0.44-2.51,0.59-3.81
				c0.26-1.78,0.32-3.06,0.4-4.37l0.1-1.51c0.03-0.43,0.07-0.85,0.07-1.31c0-29.2-23.76-52.95-52.95-52.95
				c-28.51,0-52.24,23.23-52.91,51.78c-0.01,0.32-0.08,1.38-0.11,1.7c0.01-0.05,0.05,0.28,0.08,0.77c0.05,0.71,0.1,1.42,0.12,2.14
				c0.07,1.1,0.24,2.56,0.44,4.02c0.52,3.86-0.83,7.74-3.62,10.45c-2.8,2.71-6.72,3.94-10.56,3.32
				c-19.35-3.17-34.04-13.63-42.51-30.25c-13.03-25.47-7.84-59.25-1.37-70.52c1.2-3.77,2.32-17.5,2.86-24.18c0-0.01,0-0.02,0-0.03
				l0.09-1.05c0.89-10.59,1.89-22.59,3.85-33.23c4.07-21.54,16.16-26.28,24.27-26.92c5.93-9.15,17.09-18.56,31.4-30.11
				c1.47-1.19,3.63-2.94,5.56-4.54c0.1-7.11,2.14-13.24,6-17.98c4.61-5.72,11.55-8.9,19.49-8.9c0.92,0,1.89,0.04,3.81,0.19
				c2.96-0.14,11.2-1.83,19.18-3.47c27.78-5.7,79.17-16.25,156.11-17.9c117.19-2.33,209.05,83.55,209.97,84.42l0.94,0.87
				c4.79,1.95,19.15,6.72,58.33,14.43c57.59,11.33,77.91,29.7,84.3,44.44c7.09,6.28,14.66,16.69,16.14,28.85
				c0.44,3.57,1.16,5.63,1.49,6.44l0.37,0.47c1.71,2.17,2.65,4.86,2.65,7.63v58.59c0,0.4-0.02,0.8-0.06,1.19l-0.1,1.03
				c-0.05,0.48-0.12,0.95-0.22,1.41C787.03,533.3,775.81,554.27,731.08,554.27z M722.19,529.34c2.34,0.17,5.45,0.33,8.89,0.33
				c11.55,0,31.16-1.76,34.43-13.36v-53.96c-1.34-2.56-3.35-7.48-4.33-15.3c-0.7-5.8-5.92-12-9.39-14.56
				c-2.19-1.61-3.79-3.91-4.53-6.52c-0.22-0.78-6.14-19.13-66.84-31.08c-33.58-6.61-56.33-12.51-65.78-17.07
				c-1.1-0.53-2.11-1.23-3.01-2.05l-2.55-2.36c-0.95-0.89-85.64-79.89-192.63-77.78c-74.68,1.59-124.64,11.86-151.49,17.37
				c-13.83,2.84-20.48,4.42-25.68,3.97c-1.29-0.1-1.87-0.16-2.44-0.16c-0.61,0.1-1.23,1.91-0.67,5.74
				c0.56,3.84-0.72,7.72-3.47,10.47c-2.28,2.29-6.36,5.62-11.46,9.74c-8.78,7.09-25.11,20.25-27.1,26.03
				c-1.08,3.02-2.5,5.21-4.4,6.84c-2.23,1.91-5.07,2.96-8.01,2.96c-1.2,0-2.09-0.07-2.89-0.14c-1.19-0.12-1.76-0.19-2.35-0.19
				c-0.08,0.11-1.19,1.6-2.19,6.9c-1.73,9.4-2.68,20.76-3.52,30.78l-0.08,1.02c-1.62,19.87-2.69,29.15-6.19,34.67
				c-2.19,4.17-7.02,29.04,2.09,46.85c2.48,4.87,5.85,8.76,10.09,11.64c4.26-38.51,37.53-68.99,77.06-68.99
				c42.77,0,77.56,34.79,77.56,77.56c0,0.54-0.02,1.06-0.04,1.57c64.32,1.62,150.74,3.59,236.88,5.42
				c-0.23-2.36-0.35-4.68-0.35-6.99c0-42.77,34.79-77.56,77.56-77.56c42.77,0,77.56,34.79,77.56,77.56
				C722.94,522.19,722.69,525.7,722.19,529.34z M143.22,439.41C143.22,439.41,143.22,439.41,143.22,439.41
				C143.22,439.41,143.22,439.41,143.22,439.41z M143.72,438.46c-0.01,0.01-0.01,0.02-0.02,0.03
				C143.71,438.48,143.72,438.47,143.72,438.46z"/>
		</g>
		<path class="st1" d="M645.38,586.19c-28.11,0-52.83-16.97-62.96-43.22c-0.78-2.03-1.43-4.04-2.02-6.09
			c-0.57-1.95-1.01-3.98-1.42-6.06c-0.77-4.54-1.11-8.4-1.11-12.14c0-37.23,30.28-67.51,67.51-67.51
			c37.23,0,67.52,30.28,67.52,67.51c0,4.81-0.54,9.74-1.61,14.67c-0.52,2.23-1.07,4.28-1.73,6.26c-0.61,1.95-1.37,4.05-2.29,6.1
			C696.54,570.31,672.26,586.19,645.38,586.19z M645.38,475.78c-23.66,0-42.9,19.25-42.9,42.9c0,2.36,0.23,4.89,0.7,7.71
			c0.21,1.01,0.47,2.33,0.86,3.64c0.41,1.43,0.84,2.76,1.35,4.1c6.43,16.67,22.13,27.45,39.99,27.45
			c17.11,0,32.56-10.12,39.36-25.78c0.03-0.08,0.06-0.15,0.1-0.22c0.53-1.15,0.93-2.35,1.32-3.58c0.49-1.47,0.82-2.75,1.12-4.04
			c0.66-3.04,1.01-6.22,1.01-9.28C688.29,495.03,669.04,475.78,645.38,475.78z"/>
		<path class="st1" d="M253.76,586.19c-32.6,0-60.51-23.25-66.38-55.29c-0.37-2.07-0.66-4.17-0.85-6.25
			c-0.18-1.91-0.34-3.91-0.34-5.97c0-0.41,0.02-0.81,0.06-1.22c0.64-36.66,30.68-66.29,67.5-66.29c37.23,0,67.51,30.28,67.51,67.51
			c0,1.05-0.05,2.07-0.11,3.08c0,0.04-0.05,0.89-0.05,0.93c-0.12,2.07-0.36,4.09-0.64,6.05c-0.31,2.1-0.72,4.13-1.19,6.1
			c0,0.02-0.01,0.05-0.02,0.07C311.81,565.11,284.88,586.19,253.76,586.19z M210.82,519.52c0.04,0.99,0.13,1.95,0.22,2.92
			c0.12,1.43,0.32,2.77,0.55,4.07c3.72,20.31,21.46,35.07,42.17,35.07c19.76,0,36.85-13.37,41.59-32.51
			c0.3-1.26,0.57-2.55,0.76-3.89c0.19-1.27,0.35-2.59,0.43-3.93l0.05-0.91c0.03-0.54,0.07-1.09,0.07-1.66
			c0-23.66-19.25-42.9-42.9-42.9c-23.63,0-42.87,19.21-42.9,42.82C210.86,518.91,210.85,519.21,210.82,519.52z M307.31,531.98h0.08
			H307.31z"/>
		<path class="st0" d="M554.58,399.88H255.81c-6.8,0-12.3-5.51-12.3-12.3s5.51-12.3,12.3-12.3h298.77c6.8,0,12.3,5.51,12.3,12.3
			S561.37,399.88,554.58,399.88z"/>
	</g>
</g>
</svg>
