<?xml version="1.0" encoding="utf-8"?>
<!-- Generator: Adobe Illustrator 23.0.1, SVG Export Plug-In . SVG Version: 6.00 Build 0)  -->
<svg version="1.1" id="Layer_1" xmlns="http://www.w3.org/2000/svg" xmlns:xlink="http://www.w3.org/1999/xlink" x="0px" y="0px"
	 viewBox="0 0 909.9 909.9" style="enable-background:new 0 0 909.9 909.9;" xml:space="preserve">
<style type="text/css">
	.st0{fill:#0095DA;}
	.st1{fill:#21409A;}
	.st2{fill:#FFFFFF;}
</style>
<g>
	<g>
		<path class="st0" d="M104.34,727.27c-7.71,0-15.3-3.62-20.1-10.39C-43.95,535.82-23.15,290.55,133.7,133.7
			C290.56-23.15,535.82-43.95,716.88,84.24c11.09,7.85,13.72,23.2,5.86,34.29c-7.85,11.08-23.19,13.72-34.29,5.86
			C527.02,10.1,308.34,28.63,168.49,168.49C28.64,308.34,10.1,527.01,124.39,688.45c7.86,11.09,5.23,26.44-5.86,34.29
			C114.21,725.8,109.25,727.27,104.34,727.27z"/>
		<path class="st1" d="M455.4,909.44c-91.24,0-182.97-27.56-262.39-83.78c-11.09-7.85-13.72-23.2-5.86-34.29
			c7.86-11.08,23.2-13.72,34.29-5.86c161.43,114.29,380.1,95.76,519.97-44.09c139.85-139.85,158.39-358.53,44.1-519.96
			c-7.86-11.09-5.23-26.44,5.86-34.29c11.1-7.85,26.44-5.22,34.29,5.86C953.85,374.08,933.05,619.35,776.2,776.2
			C688.14,864.26,572.19,909.44,455.4,909.44z"/>
	</g>
</g>
<g>
	<path class="st0" d="M675.08,349.05H234.82c-6.79,0-12.3-5.51-12.3-12.3V294.6c0-22.05,17.94-39.98,39.98-39.98h384.89
		c22.04,0,39.98,17.94,39.98,39.98v42.16C687.38,343.54,681.87,349.05,675.08,349.05z M247.12,324.45h415.65V294.6
		c0-8.48-6.9-15.38-15.38-15.38H262.51c-8.48,0-15.38,6.9-15.38,15.38V324.45z"/>
	<path class="st0" d="M329.27,309.7c-12.95,0-23.49-10.53-23.49-23.48v-49.47c0-12.95,10.54-23.48,23.49-23.48
		s23.49,10.54,23.49,23.48v49.47C352.75,299.17,342.21,309.7,329.27,309.7z"/>
	<path class="st0" d="M584.39,313.4c-12.95,0-23.49-10.53-23.49-23.48v-56.86c0-12.95,10.54-23.48,23.49-23.48
		s23.49,10.54,23.49,23.48v56.86C607.88,302.86,597.34,313.4,584.39,313.4z"/>
	<rect x="268.62" y="368.79" class="st0" width="114.28" height="70.49"/>
	<rect x="397.91" y="368.79" class="st0" width="114.28" height="70.49"/>
	<rect x="527.25" y="455.11" class="st0" width="114.28" height="70.49"/>
	<rect x="397.91" y="455.11" class="st0" width="114.28" height="70.49"/>
	<rect x="268.62" y="541.44" class="st0" width="114.28" height="70.49"/>
	<rect x="527.25" y="541.44" class="st0" width="114.28" height="70.49"/>
	<g>
		<path class="st1" d="M518.45,403.13c-0.26-0.47-0.5-1.1-0.7-1.87c-0.2-0.77-0.31-1.57-0.31-2.4c0-1.66,0.31-2.82,0.93-3.51
			c0.62-0.68,1.42-1.02,2.39-1.02h2.63c0.82-2.72,1.98-5.18,3.48-7.37c1.5-2.19,3.21-4.03,5.13-5.51c1.94-1.48,4.06-2.62,6.37-3.42
			c2.32-0.8,4.76-1.2,7.34-1.2c2.11,0,4.2,0.24,6.26,0.71c2.06,0.47,3.84,1.3,5.33,2.49c0.86,0.65,1.57,1.45,2.08,2.4
			s0.77,2.1,0.77,3.46c0,1.42-0.32,2.68-0.96,3.77c-0.64,1.1-1.41,1.97-2.28,2.62c-1.34-0.94-2.76-1.74-4.28-2.4
			c-1.52-0.65-3.28-0.98-5.29-0.98c-2.31,0-4.28,0.47-5.9,1.42c-1.63,0.95-2.95,2.28-3.99,3.99h16.61c0.26,0.53,0.5,1.17,0.7,1.91
			c0.21,0.74,0.31,1.55,0.31,2.44c0,1.6-0.31,2.74-0.93,3.42c-0.62,0.68-1.44,1.02-2.47,1.02H518.45z M518.45,416.09
			c-0.26-0.47-0.5-1.09-0.7-1.86c-0.2-0.77-0.31-1.57-0.31-2.4c0-1.66,0.31-2.83,0.93-3.51c0.62-0.68,1.42-1.02,2.39-1.02h33.29
			c0.26,0.53,0.5,1.17,0.7,1.91c0.21,0.74,0.31,1.55,0.31,2.44c0,1.6-0.31,2.74-0.93,3.42c-0.62,0.68-1.44,1.02-2.47,1.02h-14.14
			c1.03,1.72,2.39,3.05,4.05,4c1.68,0.95,3.68,1.42,5.99,1.42c2.11,0,3.94-0.28,5.49-0.84s2.95-1.26,4.25-2.09
			c2,1.6,3.01,3.85,3.01,6.75c0,2.43-1.12,4.41-3.36,5.95c-2.24,1.54-5.65,2.31-10.23,2.31c-5.77,0-10.67-1.52-14.72-4.57
			c-4.04-3.05-6.89-7.35-8.53-12.92H518.45z"/>
		<path class="st1" d="M580.94,374.7c6.15,0,10.83,1.46,14.04,4.38c3.21,2.92,4.81,6.84,4.81,11.76c0,2.95-0.68,5.46-2.04,7.52
			c-1.37,2.06-2.99,3.61-4.86,4.66c1.13,0.49,2.17,1.11,3.14,1.84c0.96,0.74,1.81,1.66,2.56,2.77c0.75,1.11,1.34,2.4,1.76,3.87
			c0.43,1.48,0.64,3.2,0.64,5.17c0,2.64-0.49,5.01-1.47,7.1c-0.99,2.09-2.37,3.87-4.14,5.35c-1.76,1.48-3.87,2.6-6.3,3.37
			c-2.43,0.77-5.09,1.15-7.98,1.15c-5.57,0-9.77-0.89-12.6-2.67c-2.83-1.78-4.25-4.06-4.25-6.82c0-1.66,0.34-3.09,1.05-4.29
			c0.69-1.2,1.55-2.14,2.56-2.81c1.07,0.86,2.5,1.77,4.29,2.72c1.79,0.95,4.13,1.43,7.02,1.43c2.73,0,4.75-0.55,6.06-1.66
			c1.31-1.11,1.96-2.55,1.96-4.34c0-1.78-0.52-3.13-1.56-4.06c-1.04-0.92-2.85-1.38-5.42-1.38h-7.54c-0.38-0.68-0.7-1.51-0.97-2.49
			c-0.26-0.98-0.4-2.15-0.4-3.51c0-1.41,0.12-2.63,0.36-3.64s0.58-1.86,1.01-2.54h7.54c3.85,0,5.78-1.69,5.78-5.07
			c0-1.6-0.62-2.89-1.85-3.87c-1.23-0.98-3.07-1.48-5.53-1.48c-2.19,0-4.12,0.29-5.77,0.87c-1.67,0.59-3.03,1.31-4.1,2.17
			c-0.91-0.74-1.66-1.64-2.24-2.72c-0.59-1.08-0.88-2.35-0.88-3.83c0-3.07,1.39-5.33,4.16-6.78
			C572.56,375.42,576.28,374.7,580.94,374.7z"/>
	</g>
	<g>
		<path class="st1" d="M279.23,491.19c-0.19-0.34-0.36-0.81-0.51-1.38c-0.15-0.57-0.23-1.15-0.23-1.77c0-1.23,0.23-2.09,0.69-2.59
			c0.46-0.5,1.04-0.75,1.77-0.75h1.94c0.61-2.01,1.47-3.83,2.57-5.45c1.11-1.62,2.37-2.97,3.8-4.07c1.43-1.09,2.99-1.93,4.71-2.52
			s3.52-0.89,5.42-0.89c1.56,0,3.1,0.18,4.62,0.53c1.52,0.35,2.83,0.96,3.94,1.83c0.65,0.48,1.16,1.07,1.54,1.77
			c0.38,0.7,0.58,1.55,0.58,2.56c0,1.05-0.24,1.98-0.72,2.79c-0.47,0.81-1.03,1.46-1.68,1.94c-0.98-0.7-2.04-1.29-3.16-1.77
			c-1.13-0.48-2.43-0.73-3.92-0.73c-1.71,0-3.16,0.35-4.36,1.06c-1.19,0.7-2.18,1.68-2.94,2.95h12.27c0.19,0.39,0.37,0.86,0.52,1.41
			c0.15,0.55,0.22,1.15,0.22,1.81c0,1.18-0.22,2.02-0.68,2.52c-0.46,0.5-1.07,0.75-1.83,0.75H279.23z M279.23,500.77
			c-0.19-0.34-0.36-0.81-0.51-1.38c-0.15-0.57-0.23-1.15-0.23-1.77c0-1.23,0.23-2.09,0.69-2.59c0.46-0.5,1.04-0.75,1.77-0.75h24.59
			c0.19,0.39,0.37,0.86,0.52,1.41c0.15,0.55,0.22,1.15,0.22,1.81c0,1.18-0.22,2.02-0.68,2.52c-0.46,0.5-1.07,0.75-1.83,0.75h-10.45
			c0.76,1.27,1.76,2.26,2.99,2.95c1.24,0.7,2.71,1.05,4.43,1.05c1.56,0,2.91-0.21,4.05-0.62c1.14-0.42,2.19-0.93,3.14-1.54
			c1.48,1.18,2.23,2.84,2.23,4.98c0,1.79-0.83,3.26-2.48,4.4c-1.66,1.14-4.18,1.71-7.57,1.71c-4.26,0-7.88-1.12-10.87-3.38
			c-2.99-2.25-5.09-5.43-6.31-9.55H279.23z"/>
		<path class="st1" d="M325.86,513.69c-1.75,0-3.34-0.15-4.76-0.46c-1.43-0.31-2.66-0.77-3.68-1.38c-1.02-0.62-1.83-1.37-2.39-2.27
			c-0.58-0.9-0.86-1.94-0.86-3.11c0-1.23,0.3-2.25,0.91-3.08s1.29-1.49,2.05-1.97c1.07,0.92,2.21,1.72,3.43,2.39
			c1.22,0.68,2.75,1.02,4.62,1.02c1.79,0,3.07-0.46,3.83-1.38c0.76-0.92,1.14-2.03,1.14-3.35c0-1.27-0.33-2.31-0.99-3.15
			c-0.67-0.83-1.82-1.25-3.46-1.25c-1.02,0-1.88,0.14-2.56,0.4c-0.69,0.26-1.47,0.63-2.35,1.11c-1.86-0.09-3.33-0.66-4.42-1.74
			c-1.08-1.07-1.63-2.72-1.63-4.96c0-0.13,0-0.3,0-0.49c0-0.2,0.02-0.6,0.06-1.22l0.69-9.97c0.11-1.88,0.62-3.36,1.54-4.46
			c0.91-1.09,2.19-1.64,3.83-1.64h16.43c0.23,0.48,0.46,1.12,0.69,1.91c0.22,0.78,0.34,1.62,0.34,2.49c0,1.67-0.32,2.84-0.97,3.54
			c-0.65,0.7-1.47,1.06-2.45,1.06h-10.96l-0.39,6.17c0.72-0.22,1.45-0.42,2.19-0.59c0.74-0.18,1.68-0.26,2.83-0.26
			c1.98,0,3.69,0.34,5.13,1.02c1.45,0.68,2.63,1.61,3.57,2.79c0.93,1.19,1.62,2.56,2.05,4.13c0.44,1.58,0.66,3.26,0.66,5.05
			s-0.26,3.52-0.8,5.18c-0.53,1.67-1.37,3.11-2.51,4.36c-1.15,1.25-2.6,2.24-4.36,2.99C330.52,513.33,328.37,513.69,325.86,513.69z"
			/>
		<path class="st1" d="M374.09,492.71c0,3.36-0.38,6.36-1.15,8.98c-0.76,2.63-1.82,4.82-3.17,6.59c-1.35,1.77-2.96,3.11-4.84,4.04
			c-1.89,0.92-3.93,1.38-6.14,1.38c-2.24,0-4.31-0.46-6.19-1.38c-1.88-0.92-3.5-2.27-4.85-4.04c-1.35-1.77-2.39-3.96-3.14-6.59
			c-0.74-2.63-1.11-5.62-1.11-8.98c0-3.37,0.38-6.36,1.11-8.96c0.74-2.59,1.79-4.79,3.14-6.56c1.35-1.77,2.97-3.11,4.85-4.04
			c1.88-0.91,3.95-1.38,6.19-1.38c2.21,0,4.25,0.46,6.14,1.38c1.88,0.92,3.5,2.27,4.84,4.04c1.35,1.77,2.41,3.96,3.17,6.56
			C373.7,486.35,374.09,489.33,374.09,492.71z M364.32,492.71c0-3.85-0.49-6.82-1.46-8.92c-0.97-2.11-2.35-3.15-4.14-3.15
			c-1.79,0-3.15,1.05-4.08,3.15c-0.94,2.1-1.4,5.07-1.4,8.92c0,3.84,0.46,6.83,1.4,8.95c0.93,2.12,2.29,3.18,4.08,3.18
			c1.79,0,3.17-1.06,4.14-3.18S364.32,496.55,364.32,492.71z"/>
	</g>
	<g>
		<path class="st1" d="M409.68,575.92c-0.19-0.34-0.36-0.81-0.51-1.38c-0.15-0.57-0.23-1.15-0.23-1.77c0-1.23,0.23-2.09,0.69-2.59
			c0.46-0.5,1.04-0.75,1.77-0.75h1.94c0.61-2.01,1.47-3.83,2.57-5.45c1.11-1.62,2.37-2.97,3.8-4.07c1.43-1.09,2.99-1.93,4.71-2.52
			c1.71-0.59,3.52-0.89,5.42-0.89c1.56,0,3.1,0.18,4.62,0.53c1.52,0.35,2.83,0.96,3.94,1.83c0.65,0.48,1.16,1.07,1.54,1.77
			c0.38,0.7,0.58,1.55,0.58,2.56c0,1.05-0.24,1.98-0.72,2.79c-0.47,0.81-1.03,1.46-1.68,1.94c-0.98-0.7-2.04-1.29-3.16-1.77
			c-1.13-0.48-2.43-0.73-3.92-0.73c-1.71,0-3.16,0.35-4.36,1.06c-1.19,0.7-2.18,1.68-2.94,2.95h12.27c0.19,0.39,0.37,0.86,0.52,1.41
			c0.15,0.55,0.22,1.15,0.22,1.81c0,1.18-0.22,2.02-0.68,2.52c-0.46,0.5-1.07,0.75-1.83,0.75H409.68z M409.68,585.49
			c-0.19-0.34-0.36-0.81-0.51-1.38c-0.15-0.57-0.23-1.15-0.23-1.77c0-1.23,0.23-2.09,0.69-2.59c0.46-0.5,1.04-0.75,1.77-0.75h24.59
			c0.19,0.39,0.37,0.86,0.52,1.41c0.15,0.55,0.22,1.15,0.22,1.81c0,1.18-0.22,2.02-0.68,2.52c-0.46,0.5-1.07,0.75-1.83,0.75h-10.45
			c0.76,1.27,1.76,2.26,2.99,2.95c1.24,0.7,2.71,1.05,4.43,1.05c1.56,0,2.91-0.21,4.05-0.62c1.14-0.42,2.19-0.93,3.14-1.54
			c1.48,1.18,2.23,2.84,2.23,4.98c0,1.79-0.83,3.26-2.48,4.4c-1.66,1.14-4.18,1.71-7.57,1.71c-4.26,0-7.88-1.12-10.87-3.38
			c-2.99-2.25-5.09-5.43-6.31-9.55H409.68z"/>
		<path class="st1" d="M458.36,557.95c0.73-0.26,1.55-0.48,2.48-0.66c0.94-0.18,1.78-0.26,2.55-0.26c0.87,0,1.71,0.1,2.54,0.3
			c0.82,0.19,1.55,0.52,2.19,0.98c0.65,0.46,1.16,1.08,1.54,1.87c0.38,0.78,0.58,1.77,0.58,2.95v17.45h5.08
			c0.23,0.48,0.46,1.11,0.69,1.9c0.22,0.79,0.34,1.63,0.34,2.5c0,1.66-0.32,2.84-0.97,3.54c-0.65,0.7-1.47,1.05-2.45,1.05h-2.68
			v7.74c-0.42,0.09-1.05,0.21-1.88,0.36c-0.84,0.15-1.64,0.23-2.4,0.23c-0.83,0-1.58-0.05-2.23-0.14s-1.19-0.3-1.63-0.62
			c-0.44-0.33-0.77-0.79-1-1.41c-0.22-0.61-0.34-1.44-0.34-2.49v-3.68h-14.33c-0.88-0.52-1.63-1.3-2.26-2.33
			c-0.62-1.02-0.94-2.28-0.94-3.77c0-0.82,0.09-1.75,0.28-2.75c0.19-1,0.51-1.88,0.97-2.62L458.36,557.95z M461.27,568.25h-0.18
			l-7.58,12.33h7.76V568.25z"/>
		<path class="st1" d="M487.69,589.63c2.43,0,4.38-0.72,5.85-2.16s2.2-3.44,2.2-5.97c-0.42,0.39-1.19,0.85-2.31,1.38
			c-1.12,0.52-2.55,0.78-4.31,0.78c-1.75,0-3.34-0.29-4.76-0.86s-2.65-1.41-3.68-2.52c-1.02-1.11-1.83-2.48-2.39-4.1
			c-0.57-1.62-0.86-3.5-0.86-5.65c0-1.87,0.29-3.66,0.86-5.34c0.57-1.68,1.43-3.17,2.57-4.46c1.14-1.29,2.55-2.32,4.25-3.08
			c1.69-0.77,3.66-1.15,5.9-1.15c4.49,0,8.02,1.73,10.59,5.19c2.57,3.45,3.85,8.37,3.85,14.76c0,3.63-0.39,6.82-1.19,9.58
			c-0.8,2.75-1.91,5.05-3.34,6.89c-1.43,1.83-3.13,3.21-5.11,4.13c-1.98,0.92-4.16,1.38-6.57,1.38c-3.04,0-5.42-0.48-7.13-1.44
			c-1.71-0.96-2.56-2.43-2.56-4.4c0-0.92,0.18-1.8,0.54-2.66c0.37-0.85,0.79-1.5,1.29-1.93c1.02,0.52,2.1,0.93,3.23,1.21
			C485.7,589.49,486.74,589.63,487.69,589.63z M491.34,575.26c0.72,0,1.46-0.17,2.19-0.52c0.74-0.35,1.36-0.83,1.86-1.44v-0.79
			c-0.04-2.49-0.42-4.31-1.14-5.45c-0.73-1.14-1.79-1.71-3.2-1.71c-1.25,0-2.23,0.45-2.94,1.35c-0.7,0.9-1.05,2.11-1.05,3.64
			c0,1.49,0.39,2.67,1.19,3.57C489.06,574.81,490.08,575.26,491.34,575.26z"/>
	</g>
</g>
<g>
	<g>
		<path class="st2" d="M720.42,465.86l39.51,37.61l-21.06,22.15l-39.71-37.4l-16.42,18.84c-1.79,2.06-5.15,1.37-5.99-1.23
			l-26.93-83.33c-0.5-1.55,0.92-3.04,2.49-2.62l83.87,22.53c2.95,0.79,3.9,4.49,1.7,6.61L720.42,465.86z"/>
		<path class="st1" d="M634.23,427.54c-2.08-6.41-0.49-13.47,4.18-18.38c2.1-2.21,4.66-3.81,7.43-4.75c0.01-0.55,0.02-1.1,0.02-1.66
			c0-8.98-1.81-15.9-5.42-20.75c-3.61-4.86-8.58-7.29-14.89-7.29c-3.16,0-5.93,0.54-8.3,1.61c-2.38,1.08-4.37,2.52-5.98,4.33
			c-1.6,1.82-2.8,3.91-3.6,6.27c-0.8,2.37-1.21,4.87-1.21,7.52c0,3.01,0.41,5.66,1.21,7.93c0.8,2.28,1.92,4.2,3.36,5.77
			c1.45,1.57,3.17,2.75,5.17,3.55c2.02,0.8,4.24,1.2,6.71,1.2c2.45,0,4.48-0.37,6.05-1.11c1.58-0.74,2.66-1.39,3.25-1.94
			c0,3.57-1.02,6.36-3.09,8.39c-2.06,2.03-4.8,3.04-8.22,3.04c-1.34,0-2.79-0.2-4.37-0.6s-3.09-0.97-4.54-1.71
			c-0.69,0.62-1.3,1.52-1.8,2.72c-0.5,1.2-0.76,2.44-0.76,3.74c0,2.77,1.2,4.83,3.61,6.18c2.41,1.35,5.75,2.03,10.03,2.03
			c3.36,0,6.44-0.64,9.22-1.94c0.97-0.45,1.89-0.98,2.76-1.59L634.23,427.54z M631.74,398.31c-0.7,0.86-1.57,1.54-2.61,2.03
			c-1.04,0.49-2.07,0.74-3.09,0.74c-1.76,0-3.2-0.63-4.33-1.89c-1.12-1.26-1.68-2.93-1.68-5.03c0-2.15,0.49-3.86,1.48-5.12
			c0.99-1.26,2.37-1.89,4.13-1.89c1.99,0,3.48,0.8,4.5,2.4c1.01,1.6,1.55,4.15,1.6,7.66V398.31z"/>
		<g>
			<polygon class="st0" points="685.36,479.09 687.38,476.77 687.38,446.27 673.55,442.56 			"/>
			<path class="st0" d="M676.11,524.25c-5.69-1.16-10.53-4.75-13.33-9.69v120.07H247.12V349.05h415.65v56.65l24.6,6.61v-75.56
				c0-6.79-5.51-12.3-12.3-12.3H234.82c-6.79,0-12.3,5.51-12.3,12.3v310.18c0,6.79,5.51,12.3,12.3,12.3h440.25
				c6.79,0,12.3-5.51,12.3-12.3V523.26C683.84,524.65,679.92,525.03,676.11,524.25z"/>
		</g>
	</g>
	<path class="st1" d="M738.87,532.99c-1.82,0-3.64-0.66-5.06-2.01l-34.12-32.14l-11.37,13.06c-2.57,2.95-6.57,4.3-10.39,3.52
		c-3.84-0.78-6.97-3.59-8.18-7.32l-26.93-83.33c-1.07-3.28-0.25-6.89,2.13-9.4c2.38-2.51,5.95-3.51,9.29-2.62l83.88,22.53
		c3.93,1.06,7,4.16,8.01,8.1c1.01,3.94-0.18,8.13-3.11,10.95l-11.92,11.48l33.93,32.29c2.95,2.81,3.07,7.48,0.26,10.43l-21.06,22.15
		C742.77,532.22,740.82,532.99,738.87,532.99z M699.16,480.83c1.88,0,3.69,0.71,5.06,2.01l34.36,32.37l10.92-11.48l-34.17-32.52
		c-1.46-1.39-2.29-3.31-2.29-5.32c-0.01-2.01,0.81-3.94,2.26-5.34l13.07-12.59l-68.51-18.4l21.81,67.5l11.92-13.68
		c1.32-1.51,3.2-2.42,5.2-2.52C698.92,480.83,699.04,480.83,699.16,480.83z M656.85,420.21l0,0.02
		C656.86,420.22,656.85,420.22,656.85,420.21z"/>
</g>
</svg>
