<?xml version="1.0" encoding="utf-8"?>
<!-- Generator: Adobe Illustrator 23.1.0, SVG Export Plug-In . SVG Version: 6.00 Build 0)  -->
<svg version="1.1" id="Layer_1" xmlns="http://www.w3.org/2000/svg" xmlns:xlink="http://www.w3.org/1999/xlink" x="0px" y="0px"
	 viewBox="0 0 911 911" style="enable-background:new 0 0 911 911;" xml:space="preserve">
<style type="text/css">
	.st0{fill:#0094D9;}
	.st1{fill:#224099;}
	.st2{fill:#21409A;}
</style>
<g>
	<g>
		<path class="st0" d="M111,726.5c-7.7,0-15.2-3.6-20-10.3C-36.3,536.3-15.7,292.6,140.2,136.7C296.1-19.2,539.7-39.8,719.7,87.6
			c11,7.8,13.6,23.1,5.8,34.1s-23,13.6-34.1,5.8C531,13.9,313.7,32.3,174.8,171.3c-139,139-157.4,356.2-43.8,516.7
			c7.8,11,5.2,26.3-5.8,34.1C120.8,725.1,115.9,726.5,111,726.5z"/>
		<path class="st1" d="M459.8,907.5c-90.7,0-181.8-27.4-260.7-83.3c-11-7.8-13.6-23.1-5.8-34.1c7.8-11,23-13.6,34.1-5.8
			C387.8,898,605.1,879.5,744,740.6s157.4-356.2,43.8-516.7c-7.8-11-5.2-26.3,5.8-34.1c11-7.8,26.3-5.2,34.1,5.8
			c127.4,179.9,106.7,423.6-49.1,579.5C691.1,862.6,575.9,907.5,459.8,907.5z"/>
	</g>
</g>
<g>
	<path class="st0" d="M276.5,667.3c-4.6-2.3-8.3-5.6-10.9-9.7c-2.6-4.1-3.9-8.8-3.9-14c0-5.2,1.3-9.9,3.9-14
		c2.6-4.1,6.2-7.3,10.9-9.6c4.6-2.3,9.9-3.5,15.7-3.5c5.9,0,11.1,1.2,15.8,3.5c4.6,2.3,8.2,5.5,10.8,9.6c2.6,4.1,3.9,8.8,3.9,14
		c0,5.2-1.3,9.9-3.9,14s-6.2,7.3-10.8,9.7c-4.6,2.3-9.9,3.5-15.8,3.5C286.3,670.8,281.1,669.6,276.5,667.3z M298.3,651.2
		c1.6-1.8,2.4-4.4,2.4-7.6c0-3.3-0.8-5.8-2.4-7.6c-1.6-1.8-3.6-2.7-6.1-2.7c-2.5,0-4.5,0.9-6.1,2.7c-1.6,1.8-2.4,4.3-2.4,7.6
		c0,3.3,0.8,5.8,2.4,7.6c1.6,1.8,3.6,2.7,6.1,2.7C294.6,653.9,296.7,653,298.3,651.2z"/>
	<path class="st0" d="M381.4,622.3c3.9,3.9,5.9,9.8,5.9,17.6v28.4c0,0.9-0.7,1.5-1.5,1.5h-18.6c-0.9,0-1.5-0.7-1.5-1.5v-24.6
		c0-6-2.1-9-6.4-9c-2.4,0-4.4,0.8-5.9,2.5c-1.5,1.7-2.3,4.4-2.3,8v23.1c0,0.9-0.7,1.5-1.5,1.5h-18.6c-0.9,0-1.5-0.7-1.5-1.5V619
		c0-0.9,0.7-1.5,1.5-1.5h17.5c0.9,0,1.5,0.7,1.5,1.5v0.3c0,1.3,1.4,2,2.5,1.2c1.4-1,3-1.9,4.6-2.5c2.7-1,5.6-1.5,8.7-1.5
		C372.3,616.4,377.5,618.4,381.4,622.3z"/>
	<path class="st0" d="M463.6,666.7c0.3,0.8-0.1,1.6-0.8,1.9c-3.1,1.4-7.1,2.1-12.1,2.1c-7.3,0-13-1.8-17-5.3c-4-3.5-5.9-8.9-5.9-16
		v-11.9c0-0.9-0.7-1.5-1.5-1.5h-4.1c-0.9,0-1.5-0.7-1.5-1.5v-12.7c0-0.9,0.7-1.5,1.5-1.5h4.1c0.9,0,1.5-0.7,1.5-1.5v-11.6
		c0-0.9,0.7-1.5,1.5-1.5h18.6c0.9,0,1.5,0.7,1.5,1.5v11.6c0,0.9,0.7,1.5,1.5,1.5h7.6c0.9,0,1.5,0.7,1.5,1.5v12.7
		c0,0.9-0.7,1.5-1.5,1.5H451c-0.9,0-1.5,0.7-1.5,1.5v11.7c0,1.6,0.4,2.8,1.2,3.7c0.8,0.9,1.9,1.3,3.3,1.3c1.3,0,2.4-0.2,3.5-0.7
		c0.8-0.3,1.7,0.1,2,0.9L463.6,666.7z"/>
	<path class="st0" d="M470.9,610.1c-2.4-2.1-3.6-4.7-3.6-7.9c0-3.2,1.2-5.8,3.6-7.9s5.5-3.1,9.4-3.1c4,0,7.1,1,9.5,3
		c2.4,2,3.5,4.5,3.5,7.7c0,3.3-1.2,6.1-3.5,8.2c-2.4,2.1-5.5,3.2-9.5,3.2C476.4,613.2,473.3,612.2,470.9,610.1z M471.1,617.4h18.6
		c0.9,0,1.5,0.7,1.5,1.5v49.3c0,0.9-0.7,1.5-1.5,1.5h-18.6c-0.9,0-1.5-0.7-1.5-1.5V619C469.5,618.1,470.2,617.4,471.1,617.4z"/>
	<path class="st0" d="M585.3,622.3c3.8,3.9,5.7,9.8,5.7,17.6v28.4c0,0.9-0.7,1.5-1.5,1.5h-18.6c-0.9,0-1.5-0.7-1.5-1.5v-24.6
		c0-6-2-9-5.8-9c-2,0-3.7,0.8-4.9,2.3c-1.2,1.5-1.9,4-1.9,7.3v24c0,0.9-0.7,1.5-1.5,1.5h-18.6c-0.9,0-1.5-0.7-1.5-1.5v-24.6
		c0-6-1.9-9-5.8-9c-2,0-3.7,0.8-4.9,2.3s-1.9,4-1.9,7.3v24c0,0.9-0.7,1.5-1.5,1.5h-18.6c-0.9,0-1.5-0.7-1.5-1.5V619
		c0-0.9,0.7-1.5,1.5-1.5h17.5c0.9,0,1.5,0.7,1.5,1.5l0,0c0,1.3,1.4,2,2.5,1.2c3.5-2.5,7.6-3.7,12.4-3.7c3.5,0,6.7,0.7,9.5,2
		c2.3,1.1,4.2,2.6,5.8,4.5c0.6,0.7,1.7,0.8,2.3,0.1c1.9-1.9,4-3.4,6.4-4.5c3-1.4,6.3-2.1,9.9-2.1
		C576.5,616.4,581.5,618.4,585.3,622.3z"/>
	<path class="st0" d="M655.4,648.6h-32.3c-1.3,0-2,1.5-1.2,2.5c0.7,0.8,1.5,1.5,2.4,2.1c1.8,1.1,4,1.6,6.7,1.6
		c2.3,0,4.2-0.3,5.8-0.9c1.3-0.5,2.6-1.2,4.1-2.2c0.6-0.4,1.4-0.3,2,0.2l9.3,9.4c0.6,0.6,0.6,1.6,0,2.2c-5.1,4.9-12.3,7.3-21.8,7.3
		c-6.3,0-11.9-1.2-16.7-3.5c-4.8-2.3-8.5-5.6-11.1-9.7c-2.6-4.2-3.9-8.8-3.9-14c0-5.2,1.3-9.9,3.9-14c2.6-4.1,6.1-7.3,10.6-9.6
		s9.6-3.5,15.2-3.5c5.3,0,10.1,1.1,14.5,3.2c4.4,2.1,7.9,5.2,10.4,9.3c2.6,4.1,3.9,9,3.9,14.7c0,0.3-0.1,1.5-0.2,3.6
		C656.9,648,656.2,648.6,655.4,648.6z M622.9,633c-1,0.8-1.7,1.8-2.2,3.1c-0.4,1,0.3,2.1,1.4,2.1h12.7c1.1,0,1.9-1.1,1.4-2.1
		c-0.5-1.2-1.3-2.2-2.2-3c-1.5-1.2-3.3-1.9-5.6-1.9C626.3,631.2,624.4,631.8,622.9,633z"/>
</g>
<g>
	<g>
		<path class="st0" d="M508.9,241.5c37.5,0,72.8,14.6,99.4,41.2s41.2,61.8,41.2,99.4c0,21.9-4.9,42.8-14.5,62.3
			c-13,26.2-34.1,48-59.9,61.8c-27.8-0.6-55.1-1.9-79.5-3.1c-24-1.1-45.1-2.1-61.9-2.3c-22.6-14.4-41-35.3-52.3-59.6
			c-8.4-18-12.7-37.3-13-57.4l0-0.5l0-0.4c0-0.3,0-0.5,0-0.8c0-14.3,2.1-28.4,6.3-41.8c8.7-28,26.5-53.1,50.2-70.8
			C449.3,251.2,478.3,241.5,508.9,241.5 M508.9,215.5c-74.7,0-138,49.2-159.1,117c-4.9,15.7-7.5,32.3-7.5,49.6c0,0.6,0,1.3,0,1.9
			c0.3,24.3,5.7,47.4,15.4,68.1c14.6,31.4,38.7,57.5,68.6,74.6h1.1c0.5,0,1,0,1.6,0c34.4,0,92.3,4.4,152,5.5
			c33.5-16.1,60.8-43.1,77.2-76.4c11-22.2,17.2-47.3,17.2-73.8C675.5,290.1,600.9,215.5,508.9,215.5L508.9,215.5z"/>
	</g>
	<g>
		<path class="st0" d="M508.9,374.7c-5.8,0-10.5,4.7-10.5,10.5c0,5.8,4.7,10.5,10.5,10.5s10.5-4.7,10.5-10.5
			C519.4,379.4,514.7,374.7,508.9,374.7L508.9,374.7z"/>
	</g>
	<g>
		<g>
			<path class="st2" d="M729.3,504.8c0.1,9.6-4.4,15.3-16.6,18.9c-23.7,7.1-34.1,8.5-99.3,8.8c-10.8,0.1-21.6,0-32.4-0.2
				c-60.6-1.1-119.4-5.7-153.6-5.5h-1.1l-45.9,0.2c-38.6,0.2-75.1-8.5-113.2-21.2c-29.2-9.8-71.4-31.3-71.4-31.3
				c-3.2-1.4-5.5-4.4-6.2-8c-0.2-0.8-0.2-1.6-0.2-2.3c0-5.9,4.5-11,10.4-11.1l29.4-0.1l-31.8-56.5c-1.9-3.3,0.4-7.5,3.9-7.5
				l21.1,4.5c1.1,0,2,0.3,2.9,1l76.5,58.1l55.9-0.3l59-0.3l111.8-0.6l97.2-0.5c11.6-0.1,22.2,1.8,32.5,5.2
				c12.8,4.2,24.9,10.7,37.4,18.4c6.8,4.2,18.1,9.2,26.1,16.1C726.2,494.1,729.3,498,729.3,504.8z"/>
		</g>
		<g>
			<path class="st2" d="M542.2,472.7l-98.8-9.8c-10.4-1-20.1-5.1-27.1-11.4l-159-144.8c-3.1-4,0.9-8.8,6.8-8.2l53,13.7
				c1.9,0.2,3.6,1,4.9,2.1l225,149.4C552.2,467.1,548.9,473.3,542.2,472.7z"/>
		</g>
	</g>
	<path class="st0" d="M519.4,395.8h-21.3V280.9c0-5.9,4.8-10.6,10.6-10.6h0c5.9,0,10.6,4.8,10.6,10.6V395.8z"/>
	<path class="st0" d="M498.1,395.8v-21.3h99.5c5.9,0,10.6,4.8,10.6,10.6l0,0c0,5.9-4.8,10.6-10.6,10.6H498.1z"/>
</g>
</svg>
