<?xml version="1.0" encoding="utf-8"?>
<!-- Generator: Adobe Illustrator 23.0.1, SVG Export Plug-In . SVG Version: 6.00 Build 0)  -->
<svg version="1.1" id="Layer_1" xmlns="http://www.w3.org/2000/svg" xmlns:xlink="http://www.w3.org/1999/xlink" x="0px" y="0px"
	 viewBox="0 0 898.3 898.3" style="enable-background:new 0 0 898.3 898.3;" xml:space="preserve">
<style type="text/css">
	.st0{fill:#0095DA;}
	.st1{fill:#21409A;}
	.st2{fill:#FFFFFF;}
</style>
<g>
	<g>
		<path class="st0" d="M656.3,581H242c-9,0-16.2-7.3-16.2-16.2V272.7c0-9,7.3-16.2,16.2-16.2h414.3c9,0,16.2,7.3,16.2,16.2v292.1
			C672.5,573.8,665.3,581,656.3,581z M258.2,548.6h381.9V288.9H258.2V548.6z"/>
	</g>
	<g>
		<path class="st0" d="M694,641.8H204.3c-9,0-16.2-7.3-16.2-16.2v-60.8c0-9,7.3-16.2,16.2-16.2H694c9,0,16.2,7.3,16.2,16.2v60.8
			C710.2,634.6,702.9,641.8,694,641.8z M220.6,609.4h457.2V581H220.6V609.4z"/>
	</g>
	<g>
		<g>
			<circle class="st2" cx="443.9" cy="418.8" r="92.2"/>
			<path class="st1" d="M443.9,527.2c-59.8,0-108.4-48.7-108.4-108.4s48.6-108.4,108.4-108.4S552.4,359,552.4,418.8
				S503.7,527.2,443.9,527.2z M443.9,342.7c-41.9,0-76,34.1-76,76s34.1,76,76,76c41.9,0,76-34.1,76-76S485.9,342.7,443.9,342.7z"/>
		</g>
		<g>
			<path class="st1" d="M426,463.4c-4.6,0-9.1-1.9-12.3-5.7l-28-32.7c-5.8-6.8-5-17,1.8-22.8c6.8-5.8,17-5,22.8,1.8l17.9,20.9
				l47.4-37.3c7-5.5,17.2-4.3,22.8,2.7c5.5,7,4.3,17.2-2.7,22.8L436,459.9C433,462.2,429.5,463.4,426,463.4z"/>
		</g>
	</g>
</g>
<g>
	<g>
		<g>
			<path class="st0" d="M102.7,718.3c-7.6,0-15.1-3.6-19.9-10.3C-43.9,529.1-23.3,286.7,131.7,131.7S529.1-43.9,708,82.8
				c11,7.8,13.6,22.9,5.8,33.9s-22.9,13.6-33.9,5.8C520.4,9.5,304.3,27.9,166.1,166.1C27.8,304.3,9.5,520.4,122.5,679.9
				c7.8,11,5.2,26.1-5.8,33.9C112.4,716.8,107.5,718.3,102.7,718.3z"/>
		</g>
		<g>
			<path class="st1" d="M449.6,898.3c-90.2,0-180.8-27.2-259.3-82.8c-11-7.8-13.6-22.9-5.8-33.9c7.8-11,22.9-13.6,33.9-5.8
				c159.5,112.9,375.6,94.6,513.9-43.6c138.2-138.2,156.5-354.3,43.6-513.9c-7.8-11-5.2-26.1,5.8-33.9c11-7.8,26.1-5.2,33.9,5.8
				c126.7,178.9,106.1,421.3-48.9,576.3C679.6,853.7,565,898.3,449.6,898.3z"/>
		</g>
	</g>
</g>
</svg>
