<?xml version="1.0" encoding="utf-8"?>
<!-- Generator: Adobe Illustrator 23.1.0, SVG Export Plug-In . SVG Version: 6.00 Build 0)  -->
<svg version="1.1" id="Layer_1" xmlns="http://www.w3.org/2000/svg" xmlns:xlink="http://www.w3.org/1999/xlink" x="0px" y="0px"
	 viewBox="0 0 908.9 908.9" style="enable-background:new 0 0 908.9 908.9;" xml:space="preserve">
<style type="text/css">
	.st0{fill:#0094D9;}
	.st1{fill:#224099;}
	.st2{font-family:'FuturaPT-Bold';}
	.st3{font-size:163.9731px;}
</style>
<g>
	<g>
		<path class="st0" d="M103.9,726.7c-7.7,0-15.3-3.6-20.1-10.4c-128.2-181-107.4-426.3,49.5-583.1S535.3-44.4,716.3,83.8
			c11.1,7.8,13.7,23.2,5.9,34.3c-7.8,11.1-23.2,13.7-34.3,5.9C526.5,9.6,307.8,28.2,168,168C28.2,307.8,9.6,526.5,123.9,687.9
			c7.9,11.1,5.2,26.4-5.9,34.3C113.8,725.2,108.8,726.7,103.9,726.7z"/>
		<path class="st1" d="M454.9,908.9c-91.2,0-183-27.6-262.4-83.8c-11.1-7.8-13.7-23.2-5.9-34.3c7.9-11.1,23.2-13.7,34.3-5.9
			c161.4,114.3,380,95.7,519.9-44.1C880.7,601,899.2,382.4,784.9,221c-7.8-11.1-5.2-26.4,5.9-34.3c11.1-7.9,26.5-5.2,34.3,5.9
			c128.2,181,107.4,426.3-49.5,583.1C687.6,863.7,571.7,908.9,454.9,908.9z"/>
	</g>
</g>
<text transform="matrix(1 0 0 1 506.0888 522.6324)" class="st0 st2 st3">A</text>
<text transform="matrix(1 0 0 1 272.143 417.05)" class="st1 st2 st3">Q</text>
<path class="st1" d="M227.4,603.7c-1.8,0-3.8-0.4-5.9-1.3c-5.5-2.4-9.1-7.8-9.1-13.8c0-1.7,0-1.8,6.5-45.6c3.1-20.9,6.5-44.2,9-61.7
	c-31.1-30.6-48.8-72.5-48.8-116.3c0-89.9,73.1-163,163-163c39.2,0,77.1,14.1,106.7,39.8c29.3,25.4,48.6,60.3,54.4,98.4
	c1.3,8.2-4.4,15.8-12.6,17.1c-8.2,1.2-15.8-4.4-17.1-12.6c-9.8-64.3-66.3-112.7-131.5-112.7c-73.3,0-133,59.7-133,133
	c0,38,16.3,74.2,44.7,99.5c3.8,3.3,5.6,8.3,4.9,13.3c-2.6,18-6.6,45.4-10.2,69.6c-0.1,0.6-0.2,1.2-0.3,1.8
	c12.8-12,30.1-28.5,52.9-50.2c3.6-3.4,8.6-4.8,13.4-3.8c9,1.9,18.3,2.9,27.5,2.9c24.9,0,49.3-6.9,70.3-20.1c7-4.4,16.3-2.2,20.7,4.8
	c4.4,7,2.2,16.3-4.8,20.7c-25.8,16.1-55.6,24.6-86.2,24.6c-8.6,0-17.3-0.7-25.8-2c-13.7,13-31.4,29.8-46.6,44.2
	c-9.6,9-17.2,16.1-22.5,21c-3.1,2.9-5.5,5-7.2,6.5C237.7,599.8,233.3,603.7,227.4,603.7z M242.4,590.1L242.4,590.1L242.4,590.1z"/>
<path class="st0" d="M681.4,706.8c-5.9,0-10.3-3.9-12.7-6c-1.7-1.5-4-3.6-7.2-6.5c-5.3-4.9-12.9-12-22.5-21
	c-15.2-14.3-32.9-31.1-46.6-44.2c-8.5,1.4-17.2,2-25.8,2c-89.9,0-163-73.1-163-163c0-89.9,73.1-163,163-163s163,73.1,163,163
	c0,43.8-17.7,85.7-48.8,116.3c2.6,17.8,6.1,42,9.1,62c6.4,43.5,6.4,43.6,6.4,45.3c0,6-3.6,11.4-9.1,13.8
	C685.2,706.4,683.2,706.8,681.4,706.8z M666.5,693.2L666.5,693.2L666.5,693.2z M597.3,598c3.8,0,7.5,1.5,10.4,4.1
	c22.7,21.7,40.1,38.1,52.9,50.2c-0.1-0.5-0.1-1-0.2-1.5c-3.6-24.3-7.6-51.8-10.2-69.9c-0.7-5,1.1-10,4.9-13.3
	c28.4-25.2,44.7-61.5,44.7-99.5c0-73.3-59.7-133-133-133c-73.3,0-133,59.7-133,133c0,73.3,59.7,133,133,133c9.2,0,18.5-1,27.5-2.9
	C595.2,598.1,596.3,598,597.3,598z"/>
</svg>
