<?xml version="1.0" encoding="utf-8"?>
<!-- Generator: Adobe Illustrator 23.1.0, SVG Export Plug-In . SVG Version: 6.00 Build 0)  -->
<svg version="1.1" id="Layer_1" xmlns="http://www.w3.org/2000/svg" xmlns:xlink="http://www.w3.org/1999/xlink" x="0px" y="0px"
	 viewBox="0 0 909.9 909.9" style="enable-background:new 0 0 909.9 909.9;" xml:space="preserve">
<style type="text/css">
	.st0{fill:#0094D9;}
	.st1{fill:#224099;}
	.st2{fill:#FFFFFF;}
</style>
<g>
	<g id="XMLID_308_">
		<g id="XMLID_309_">
			<path id="XMLID_300_" class="st0" d="M106.2,726.5c-7.7,0-15.2-3.6-20-10.3C-41.4,535.8-20.7,291.6,135.5,135.5
				S535.9-41.4,716.1,86.2c11,7.8,13.7,23.1,5.8,34.1c-7.8,11-23.1,13.7-34.1,5.8C527.1,12.4,309.3,30.9,170.1,170.1
				c-139.2,139.2-157.7,357-43.9,517.7c7.8,11,5.2,26.3-5.8,34.1C116.1,725,111.1,726.5,106.2,726.5z"/>
			<path id="XMLID_299_" class="st1" d="M455.8,907.8c-90.8,0-182.2-27.4-261.3-83.4c-11-7.8-13.7-23.1-5.8-34.1s23.1-13.7,34.1-5.8
				c160.7,113.8,378.5,95.3,517.7-43.9c139.2-139.2,157.7-357,43.9-517.7c-7.8-11-5.2-26.3,5.8-34.1c11.1-7.8,26.3-5.2,34.1,5.8
				C952.1,374.8,931.4,619,775.2,775.2C687.5,862.9,572.1,907.8,455.8,907.8z"/>
		</g>
	</g>
	<path id="XMLID_307_" class="st1" d="M674.5,734.4H236.1c-9,0-16.3-9.6-16.3-21.4V308.8c0-11.8,7.3-21.4,16.3-21.4h438.3
		c9,0,16.3,9.6,16.3,21.4V713C690.8,724.8,683.5,734.4,674.5,734.4z M252.5,691.7h405.7V330.2H252.5V691.7z"/>
	<path id="XMLID_306_" class="st1" d="M674.5,320.1H236.1c-9,0-16.3-7.3-16.3-16.3v-42c0-24.2,19.7-43.9,43.9-43.9h383.2
		c24.2,0,43.9,19.7,43.9,43.9v42C690.8,312.8,683.5,320.1,674.5,320.1z M252.5,287.4h405.7v-25.6c0-6.2-5-11.2-11.2-11.2H263.7
		c-6.2,0-11.2,5-11.2,11.2V287.4z"/>
	<path id="XMLID_294_" class="st1" d="M330.2,276.8c-12.9,0-23.4-10.5-23.4-23.4v-49.3c0-12.9,10.5-23.4,23.4-23.4
		s23.4,10.5,23.4,23.4v49.3C353.6,266.3,343.1,276.8,330.2,276.8z"/>
	<path id="XMLID_293_" class="st1" d="M584.2,280.5c-12.9,0-23.4-10.5-23.4-23.4v-56.6c0-12.9,10.5-23.4,23.4-23.4
		c12.9,0,23.4,10.5,23.4,23.4v56.6C607.6,270,597.1,280.5,584.2,280.5z"/>
	<g id="XMLID_305_">
		<rect id="XMLID_292_" x="301" y="371.6" class="st1" width="105.4" height="65.6"/>
		<path id="XMLID_291_" class="st2" d="M344.2,429.7c-2,0-4.1-0.7-5.7-2.2l-23.1-21.3c-3.3-3.1-3.5-8.2-0.5-11.5
			c3.1-3.3,8.2-3.5,11.5-0.5l18,16.6l38.5-30.2c3.5-2.8,8.7-2.2,11.5,1.4c2.8,3.5,2.2,8.7-1.4,11.5L349.1,428
			C347.6,429.1,345.9,429.7,344.2,429.7z"/>
	</g>
	<g id="XMLID_304_">
		<rect id="XMLID_290_" x="301" y="371.6" class="st1" width="105.4" height="65.6"/>
		<path id="XMLID_289_" class="st2" d="M344.2,429.7c-2,0-4.1-0.7-5.7-2.2l-23.1-21.3c-3.3-3.1-3.5-8.2-0.5-11.5
			c3.1-3.3,8.2-3.5,11.5-0.5l18,16.6l38.5-30.2c3.5-2.8,8.7-2.2,11.5,1.4c2.8,3.5,2.2,8.7-1.4,11.5L349.1,428
			C347.6,429.1,345.9,429.7,344.2,429.7z"/>
	</g>
	<g id="XMLID_303_">
		<rect id="XMLID_288_" x="301" y="371.6" class="st1" width="105.4" height="65.6"/>
		<path id="XMLID_287_" class="st2" d="M344.2,429.7c-2,0-4.1-0.7-5.7-2.2l-23.1-21.3c-3.3-3.1-3.5-8.2-0.5-11.5
			c3.1-3.3,8.2-3.5,11.5-0.5l18,16.6l38.5-30.2c3.5-2.8,8.7-2.2,11.5,1.4c2.8,3.5,2.2,8.7-1.4,11.5L349.1,428
			C347.6,429.1,345.9,429.7,344.2,429.7z"/>
	</g>
	<g id="XMLID_302_">
		<rect id="XMLID_286_" x="301" y="459.2" class="st1" width="105.4" height="65.6"/>
		<path id="XMLID_285_" class="st2" d="M344.2,517.3c-2,0-4.1-0.7-5.7-2.2l-23.1-21.3c-3.3-3.1-3.5-8.2-0.5-11.5
			c3.1-3.3,8.2-3.5,11.5-0.5l18,16.6l38.5-30.2c3.5-2.8,8.7-2.2,11.5,1.4c2.8,3.5,2.2,8.7-1.4,11.5l-43.9,34.5
			C347.6,516.7,345.9,517.2,344.2,517.3z"/>
	</g>
	<rect id="XMLID_284_" x="432.9" y="378.5" class="st0" width="175.1" height="50.8"/>
	<rect id="XMLID_283_" x="432.9" y="466.1" class="st0" width="175.1" height="50.8"/>
	<g id="XMLID_301_">
		<rect id="XMLID_282_" x="301" y="546.8" class="st1" width="105.4" height="65.6"/>
		<path id="XMLID_65_" class="st2" d="M344.2,604.8c-2,0-4.1-0.7-5.7-2.2l-23.1-21.3c-3.3-3.1-3.5-8.2-0.5-11.5
			c3.1-3.3,8.2-3.5,11.5-0.5l18,16.6l38.5-30.2c3.5-2.8,8.7-2.2,11.5,1.4c2.8,3.5,2.2,8.7-1.4,11.5l-43.9,34.5
			C347.6,604.2,345.9,604.8,344.2,604.8z"/>
	</g>
	<rect id="XMLID_5_" x="432.9" y="553.6" class="st0" width="175.1" height="50.8"/>
</g>
</svg>
