<?xml version="1.0" encoding="utf-8"?>
<!-- Generator: Adobe Illustrator 23.1.0, SVG Export Plug-In . SVG Version: 6.00 Build 0)  -->
<svg version="1.1" id="Layer_1" xmlns="http://www.w3.org/2000/svg" xmlns:xlink="http://www.w3.org/1999/xlink" x="0px" y="0px"
	 viewBox="0 0 909.9 909.9" style="enable-background:new 0 0 909.9 909.9;" xml:space="preserve">
<style type="text/css">
	.st0{fill:#0095DA;}
	.st1{fill:#21409A;}
	.st2{fill:#224099;}
	.st3{fill:#FFFFFF;}
</style>
<g>
	<g>
		<g>
			<g>
				<path id="XMLID_140_" class="st0" d="M105.8,725.8c-7.7,0-15.2-3.6-20-10.4C-41.9,535.1-21.1,290.9,135,134.8
					S535.4-42.2,715.6,85.5c11.1,7.9,13.7,23.1,5.8,34.2s-23.1,13.7-34.2,5.8C526.6,11.6,308.9,30.2,169.7,169.4
					c-139.3,139.2-157.8,357-43.9,517.7c7.9,11.1,5.2,26.3-5.8,34.2C115.6,724.3,110.6,725.8,105.8,725.8z"/>
			</g>
			<g>
				<path id="XMLID_139_" class="st1" d="M455.3,907.1c-90.9,0-182.1-27.4-261.2-83.4c-11.1-7.9-13.7-23.1-5.8-34.2
					c7.9-11.1,23.1-13.7,34.2-5.8C383,897.4,600.7,879,740.1,739.8C879.3,600.5,897.7,382.8,784,222c-7.9-11.1-5.2-26.3,5.8-34.2
					c11.1-7.9,26.3-5.2,34.2,5.8c127.6,180.2,106.9,424.5-49.3,580.6C687,862.2,571.5,907.1,455.3,907.1z"/>
			</g>
		</g>
	</g>
	<g>
		<path class="st2" d="M590,242.5c-20.1,0-36.4-16.3-36.4-36.4c0-20.1,16.3-36.4,36.4-36.4c20.1,0,36.4,16.3,36.4,36.4
			C626.4,226.2,610.1,242.5,590,242.5z M590,183.7c-12.4,0-22.4,10.1-22.4,22.4s10.1,22.4,22.4,22.4s22.4-10.1,22.4-22.4
			C612.5,193.7,602.4,183.7,590,183.7z"/>
		<path class="st2" d="M609.5,475.2h-0.3c-7.3,0-13.7-3.6-17.6-9.1c-3.9,5.5-10.3,9.1-17.6,9.1c-5.7,0-11.1-2.2-15.2-6.3
			c-4.1-4.1-6.3-9.4-6.3-15.2l0.1-80.4c-1.6,0.3-3.2,0.5-5,0.5c-10.2,0-19.4-8.1-19.4-17v-83.5c0-14.6,11.9-26.6,26.6-26.6h73.5
			c14.6,0,26.6,11.9,26.6,26.6v83.9c0,8.7-8.7,16.7-18.2,16.7c-2.1,0-4.1-0.3-5.9-0.7l0.1,80.7c0,5.7-2.2,11.1-6.3,15.2
			C620.6,473,615.2,475.2,609.5,475.2z M590.8,364.2h1.9c3.8,0,6.9,3,7,6.8l2,82.9c0.1,4.1,3.4,7.3,7.5,7.3h0.3c2,0,3.9-0.8,5.3-2.2
			c1.4-1.4,2.2-3.3,2.2-5.3l-0.2-97.5c0-0.1,0-0.3,0-0.4l-0.1-64.4c0-3.9,3.1-7,7-7c0,0,0,0,0,0c3.8,0,7,3.1,7,7l0.1,64.6
			c0.2,3.2,4.3,3.9,5.9,3.9c2.2,0,4.1-2,4.2-2.9l0-83.7c0-7-5.7-12.6-12.6-12.6h-73.5c-7,0-12.6,5.7-12.6,12.6v83.5
			c0.2,0.6,2.4,3.1,5.5,3.1c4.5,0,4.9-2.4,5-3.7l0.1-63.2c0-3.8,3.1-7,7-7c0,0,0,0,0,0c3.9,0,7,3.1,7,7l-0.1,62.8c0,0.1,0,0.3,0,0.4
			l-0.1,97.5c0,2,0.8,3.9,2.2,5.3c1.4,1.4,3.3,2.2,5.3,2.2c4.1,0,7.4-3.2,7.5-7.3l2.3-83C583.9,367.2,587,364.2,590.8,364.2z"/>
	</g>
	<g>
		<path class="st2" d="M306.7,242.5c-20.1,0-36.4-16.3-36.4-36.4c0-20.1,16.3-36.4,36.4-36.4c20.1,0,36.4,16.3,36.4,36.4
			C343.1,226.2,326.8,242.5,306.7,242.5z M306.7,183.7c-12.4,0-22.4,10.1-22.4,22.4s10.1,22.4,22.4,22.4s22.4-10.1,22.4-22.4
			C329.2,193.7,319.1,183.7,306.7,183.7z"/>
		<path class="st2" d="M326.2,475.2h-0.3c-7.3,0-13.7-3.6-17.6-9.1c-3.9,5.5-10.3,9.1-17.6,9.1c-5.7,0-11.1-2.2-15.2-6.3
			c-4.1-4.1-6.3-9.4-6.3-15.2l0.1-80.4c-1.6,0.3-3.2,0.5-5,0.5c-10.2,0-19.4-8.1-19.4-17v-83.5c0-14.6,11.9-26.6,26.6-26.6H345
			c14.6,0,26.6,11.9,26.6,26.6v83.9c0,8.7-8.7,16.7-18.2,16.7c-2.1,0-4.1-0.3-5.9-0.7l0.1,80.7c0,5.7-2.2,11.1-6.3,15.2
			C337.3,473,331.9,475.2,326.2,475.2z M307.5,364.2h1.9c3.8,0,6.9,3,7,6.8l2,82.9c0.1,4.1,3.4,7.3,7.5,7.3h0.3c2,0,3.9-0.8,5.3-2.2
			c1.4-1.4,2.2-3.3,2.2-5.3l-0.2-97.5c0-0.1,0-0.3,0-0.4l-0.1-64.4c0-3.9,3.1-7,7-7c0,0,0,0,0,0c3.8,0,7,3.1,7,7l0.1,64.6
			c0.2,3.2,4.3,3.9,5.9,3.9c2.2,0,4.1-2,4.2-2.9l0-83.7c0-7-5.7-12.6-12.6-12.6h-73.5c-7,0-12.6,5.7-12.6,12.6v83.5
			c0.2,0.6,2.4,3.1,5.5,3.1c4.5,0,4.9-2.4,5-3.7l0.1-63.2c0-3.8,3.1-7,7-7c0,0,0,0,0,0c3.9,0,7,3.1,7,7l-0.1,62.8c0,0.1,0,0.3,0,0.4
			l-0.1,97.5c0,2,0.8,3.9,2.2,5.3c1.4,1.4,3.3,2.2,5.3,2.2c4.1,0,7.4-3.2,7.5-7.3l2.3-83C300.6,367.2,303.7,364.2,307.5,364.2z"/>
	</g>
	<g>
		<ellipse class="st3" cx="447.8" cy="349.5" rx="42.8" ry="42.8"/>
		<path class="st3" d="M368,481c-0.1,25.1-0.2,50.2-0.3,75.3c-0.1,13.3,2.1,30,14.7,34.2c4.4,1.5,9.4,1,13.6,3.2
			c6.6,3.4,8.3,11.9,9.1,19.3c2.3,23.1,1.7,46.6-1.9,69.5c-2.8,18.1-5.1,41.5,11.1,50.2c6.5,3.5,14.4,3.3,21.8,3
			c18-0.8,36.1-1.5,54.1-2.3c1.9-0.1,3.8-0.2,5.6-0.9c4.7-2.1,5.9-8.5,4.6-13.6c-1.3-5-4.4-9.5-5.7-14.5c-1.7-6.3-0.6-13,0.4-19.5
			c4.9-31.4,6.7-63.3,5.4-95.1c8.7,4.7,20.1-0.8,25.3-9.3c5.2-8.5,5.7-18.8,6.1-28.8c1.2-29.7,2.5-59.4,0.4-89.1
			c-1-13.9-3.8-29.7-15.5-37.3c-7.8-5.1-17.8-5.3-27.2-5.2c-27.2,0.1-54.4,0.2-81.6,0.3c-13.9,0.1-28-2.6-35.4,10.5
			C365.4,443.8,368,467,368,481z"/>
		<g>
			<path class="st2" d="M448.3,405.2c-29.8,0-54-24.2-54-54c0-29.8,24.2-54,54-54c29.8,0,54,24.2,54,54
				C502.4,381,478.1,405.2,448.3,405.2z M448.3,317.9c-18.4,0-33.3,14.9-33.3,33.3c0,18.4,14.9,33.3,33.3,33.3s33.3-14.9,33.3-33.3
				S466.7,317.9,448.3,317.9z"/>
			<path class="st2" d="M477.2,751.1h-0.4c-10.9,0-20.4-5.3-26.1-13.5c-5.7,8.2-15.3,13.5-26.1,13.5c-8.5,0-16.5-3.3-22.5-9.3
				c-6-6-9.3-14-9.3-22.6l0.2-119.5c-2.3,0.5-4.8,0.8-7.4,0.8c-15.1,0-28.9-12.1-28.9-25.3V451c0-21.8,17.7-39.5,39.5-39.5h109.2
				c21.8,0,39.5,17.7,39.5,39.5v124.7c0,12.9-12.9,24.7-27,24.7c-3.1,0-6-0.4-8.8-1.1l0.2,119.9c0,8.5-3.3,16.5-9.3,22.6
				S485.8,751.1,477.2,751.1z M449.4,586.1h2.9c5.6,0,10.2,4.5,10.4,10.1l3,123.2c0.2,6.1,5,10.9,11.1,10.9h0.4c3,0,5.8-1.2,7.9-3.3
				c2.1-2.1,3.3-4.9,3.3-7.9l-0.2-144.9c0-0.2,0-0.4,0-0.6l-0.1-95.7c0-5.7,4.6-10.4,10.3-10.4c0,0,0,0,0,0
				c5.7,0,10.4,4.6,10.4,10.3l0.1,95.9c0.2,4.7,6.4,5.7,8.8,5.7c3.2,0,6-3,6.3-4.3l0-124.4c0-10.3-8.4-18.7-18.7-18.7H396.1
				c-10.3,0-18.7,8.4-18.7,18.7v124.1c0.3,0.9,3.6,4.6,8.1,4.6c6.7,0,7.4-3.5,7.4-5.5l0.1-93.9c0-5.7,4.6-10.3,10.4-10.3
				c0,0,0,0,0,0c5.7,0,10.4,4.6,10.3,10.4l-0.1,93.3c0,0.2,0,0.4,0,0.6l-0.2,144.9c0,3,1.2,5.8,3.3,7.9c2.1,2.1,4.9,3.3,7.9,3.3
				c6.1,0,11-4.8,11.1-10.8l3.4-123.3C439.2,590.6,443.8,586.1,449.4,586.1z"/>
		</g>
	</g>
	<g id="XMLID_100_">
		<g id="XMLID_977_">
			<path id="XMLID_979_" class="st1" d="M274.3,753.4c-3.5,0-6.4-2.9-6.4-6.4v-3c0-3.5,2.9-6.4,6.4-6.4s6.4,2.9,6.4,6.4v3
				C280.7,750.5,277.8,753.4,274.3,753.4z"/>
			<path id="XMLID_978_" class="st1" d="M337.5,753.4c-3.5,0-6.4-2.9-6.4-6.4v-3c0-3.5,2.9-6.4,6.4-6.4c3.5,0,6.4,2.9,6.4,6.4v3
				C343.9,750.5,341,753.4,337.5,753.4z"/>
		</g>
		<g id="XMLID_973_">
			<path id="XMLID_974_" class="st1" d="M349.6,746.9h-87.4c-8.2,0-14.9-6.7-14.9-14.9V601.4c0-8.2,6.7-14.9,14.9-14.9h87.4
				c8.2,0,14.9,6.7,14.9,14.9v130.5C364.5,740.2,357.8,746.9,349.6,746.9z M262.2,596.1c-2.9,0-5.3,2.4-5.3,5.3v130.5
				c0,3,2.4,5.4,5.4,5.4h87.4c3,0,5.4-2.4,5.4-5.4V601.4c0-2.9-2.4-5.3-5.3-5.3H262.2L262.2,596.1z"/>
		</g>
		<path id="XMLID_972_" class="st1" d="M330.8,570.9H281c-2.6,0-4.8-2.1-4.8-4.8s2.1-4.8,4.8-4.8h49.7c2.6,0,4.8,2.1,4.8,4.8
			S333.4,570.9,330.8,570.9z"/>
		<g id="XMLID_560_">
			<path id="XMLID_971_" class="st1" d="M305.9,625.7c-11.7,0-21.2-8.9-21.2-19.9v-37.9c0-2.6,2.1-4.8,4.8-4.8
				c2.6,0,4.8,2.1,4.8,4.8v37.9c0,5.7,5.2,10.4,11.6,10.4c6.4,0,11.6-4.6,11.6-10.4v-37.9c0-2.6,2.1-4.8,4.8-4.8
				c2.6,0,4.8,2.1,4.8,4.8v37.9C327.1,616.8,317.6,625.7,305.9,625.7z"/>
		</g>
		<g id="XMLID_524_">
			<g id="XMLID_555_">
				<path id="XMLID_559_" class="st0" d="M294.7,727.3c-2.6,0-4.8-2.1-4.8-4.8v-81.8c0-2.6,2.1-4.8,4.8-4.8c2.6,0,4.8,2.1,4.8,4.8
					v81.8C299.5,725.2,297.4,727.3,294.7,727.3z"/>
				<path id="XMLID_556_" class="st0" d="M317.1,727.3c-2.6,0-4.8-2.1-4.8-4.8v-81.8c0-2.6,2.1-4.8,4.8-4.8c2.6,0,4.8,2.1,4.8,4.8
					v81.8C321.9,725.2,319.7,727.3,317.1,727.3z"/>
			</g>
			<g id="XMLID_552_">
				<path id="XMLID_554_" class="st0" d="M272.7,727.3c-2.6,0-4.8-2.1-4.8-4.8v-81.8c0-2.6,2.1-4.8,4.8-4.8c2.6,0,4.8,2.1,4.8,4.8
					v81.8C277.5,725.2,275.4,727.3,272.7,727.3z"/>
				<path id="XMLID_553_" class="st0" d="M339,727.3c-2.6,0-4.8-2.1-4.8-4.8v-81.8c0-2.6,2.1-4.8,4.8-4.8s4.8,2.1,4.8,4.8v81.8
					C343.8,725.2,341.7,727.3,339,727.3z"/>
			</g>
		</g>
	</g>
	<path class="st0" d="M183.5,601L183.5,601c-11.9,0-21.5-9.6-21.5-21.5v-285c0-11.9,9.6-21.5,21.5-21.5h0c11.9,0,21.5,9.6,21.5,21.5
		v285C205,591.4,195.4,601,183.5,601z"/>
	<path class="st0" d="M715.5,601L715.5,601c-11.9,0-21.5-9.6-21.5-21.5v-285c0-11.9,9.6-21.5,21.5-21.5l0,0
		c11.9,0,21.5,9.6,21.5,21.5v285C737,591.4,727.4,601,715.5,601z"/>
	<path class="st2" d="M734,280H170c-15.5,0-28-12.5-28-28v0c0-15.5,12.5-28,28-28h564c15.5,0,28,12.5,28,28v0
		C762,267.5,749.5,280,734,280z"/>
</g>
</svg>
