<?xml version="1.0" encoding="utf-8"?>
<!-- Generator: Adobe Illustrator 23.1.0, SVG Export Plug-In . SVG Version: 6.00 Build 0)  -->
<svg version="1.1" id="Layer_1" xmlns="http://www.w3.org/2000/svg" xmlns:xlink="http://www.w3.org/1999/xlink" x="0px" y="0px"
	 viewBox="0 0 909.9 909.9" style="enable-background:new 0 0 909.9 909.9;" xml:space="preserve">
<style type="text/css">
	.st0{fill:#0095DA;}
	.st1{fill:#21409A;}
	.st2{fill:#21409A;stroke:#21409A;stroke-width:3;stroke-miterlimit:10;}
	.st3{fill:#0094D9;}
</style>
<g>
	<g>
		<g>
			<g>
				<path id="XMLID_986_" class="st0" d="M105.8,725.8c-7.7,0-15.2-3.6-20-10.4C-41.9,535.1-21.1,290.9,135,134.8
					S535.4-42.2,715.6,85.5c11.1,7.9,13.7,23.1,5.8,34.2s-23.1,13.7-34.2,5.8C526.6,11.6,308.9,30.2,169.7,169.4
					c-139.3,139.2-157.8,357-43.9,517.7c7.9,11.1,5.2,26.3-5.8,34.2C115.6,724.3,110.6,725.8,105.8,725.8z"/>
			</g>
			<g>
				<path id="XMLID_985_" class="st1" d="M455.3,907.1c-90.9,0-182.1-27.4-261.2-83.4c-11.1-7.9-13.7-23.1-5.8-34.2
					c7.9-11.1,23.1-13.7,34.2-5.8C383,897.4,600.7,879,740.1,739.8C879.3,600.5,897.7,382.8,784,222c-7.9-11.1-5.2-26.3,5.8-34.2
					c11.1-7.9,26.3-5.2,34.2,5.8c127.6,180.2,106.9,424.5-49.3,580.6C687,862.2,571.5,907.1,455.3,907.1z"/>
			</g>
		</g>
	</g>
	<g>
		<g>
			<g>
				<path class="st2" d="M744.7,438.5l-65-110c-2.4-4.1-7.6-5.4-11.7-3c-4.1,2.4-5.4,7.6-3,11.7l60.6,102.7l-70.4,41.5
					c-0.6,0.4-1.2,0.8-1.7,1.3l-11.9,11.7c-2.7-7.3-7.8-13.4-14.6-17.4L579,448.2c-7.9-4.7-17.1-6-26.1-3.8
					c-8.9,2.3-16.4,7.9-21.1,15.8c-5.2,8.8-6,19.1-3,28.1c-0.7,0.1-1.4,0.3-2.1,0.5c-8.9,2.3-16.4,7.9-21,15.8
					c-5.2,8.8-6,19.1-3,28.2c-0.7,0.1-1.4,0.3-2.2,0.5c-8.9,2.3-16.4,7.9-21.1,15.8c-4.5,7.6-5.7,16.2-4.1,24.2
					c-5.7-1.2-11.7-1.9-17.7-2.1c1.1-2.4,1.1-5.4-0.4-7.9c-2.4-4.1-7.6-5.4-11.7-3L358.1,612c-7.9,4.9-19.1,2-23.6-6.1
					c-4.9-7.9-2-19.1,6.1-23.6l82.1-48.5c4.1-2.4,5.4-7.6,3-11.7c-2.4-4.1-7.6-5.4-11.7-3l-97,57.3c-7.9,4.9-19.1,2-23.6-6.1
					c-4.9-7.9-2-19.1,6.1-23.6l94.8-56c4.1-2.4,5.4-7.6,3-11.7c-2.4-4.1-7.6-5.4-11.7-3l-76.8,45.4c-7.9,4.9-19,1.9-23.6-6.1
					c-4.8-8-2-19,6.1-23.6l95.6-56.5c6.5,3.1,13.5,4.7,20.7,4.7c15.3,0,29.8-7.4,38.8-19.7l15.4-21.1l38.3,22.7
					c7.7,4.6,16.8,5.9,25.5,3.6c8.7-2.2,16-7.7,20.5-15.4l0.3-0.6c4.7-8,6-17.2,3.7-26.2c-2.3-8.9-7.9-16.3-15.8-21
					c-14.9-8.8-60.1-35.5-62.7-37.1l16.1-9.5c3.2-1.9,6.9-2.7,10.6-2.3l56.2,5.9c1.8,0.2,3.6-0.2,5.2-1.1l69.8-41.2l15.4,26
					c2.4,4.1,7.6,5.4,11.7,3c4.1-2.4,5.4-7.6,3-11.7l-19.7-33.4c-2.4-4.1-7.6-5.4-11.7-3L553.4,302l-53.4-5.6
					c-7.3-0.7-14.7,0.9-21,4.6l-24.1,14.3c-10-5.9-18.5-10.9-24.2-14.3c-6.4-3.8-13.6-5.3-21-4.6l-53.4,5.6l-74.7-44.1
					c-4.1-2.4-9.3-1-11.7,3L165.1,438.5c-2.4,4.1-1,9.3,3,11.7l25.5,15.1c1.4,0.8,2.9,1.2,4.3,1.2c2.9,0,5.8-1.5,7.3-4.2
					c2.4-4.1,1-9.3-3-11.7l-18.2-10.7l96.2-163l69.8,41.2c1.6,0.9,3.4,1.3,5.2,1.1l56.1-5.9c3.7-0.4,7.4,0.4,10.6,2.3
					c10,5.9,88.7,52.4,103.7,61.2c4,2.3,6.8,6.1,7.9,10.5c1.2,4.5,0.5,9.2-1.9,13.2l-0.3,0.6c-2.2,3.8-5.8,6.5-10.1,7.6
					c-4.3,1.1-8.7,0.5-12.5-1.8l-45-26.6c-3.8-2.2-8.6-1.2-11.2,2.3l-20,27.4c-5.8,8-15.2,12.7-25,12.7c-5.8,0-11.4-1.6-16.4-4.7
					c0,0,0,0,0,0c0,0-0.1,0-0.1-0.1l-60-36c-4-2.4-9.3-1.1-11.7,2.9c-2.4,4-1.1,9.3,2.9,11.7l47.7,28.6l-87.4,51.6
					c-6.9,4.1-11.9,10.3-14.6,17.4l-11.9-11.7c-0.5-0.5-1.1-0.9-1.7-1.3l-17.9-10.6c-4.1-2.4-9.3-1-11.7,3c-2.4,4.1-1,9.3,3,11.7
					l17,10.1l22.9,22.6c0.7,2,1.6,4,2.7,5.8c3.3,5.6,8.1,10.1,13.8,13c-4.5,4.3-7.7,9.9-9.3,16.1c-2.3,8.9-1,18.1,3.7,26
					c6.1,10.4,17.5,16.9,29.6,16.9c2.3,0,4.6-0.2,6.9-0.7c-0.4,6.8,1.2,13.5,4.7,19.4c6.1,10.4,17.5,16.9,29.6,16.9
					c5.2,0,10.4-1.2,15.1-3.5c-6.4,13.2-10,28-10,43.7c0,55.4,45,100.4,100.4,100.4c26.1,0,50.8-10,69.6-28
					c3.4-3.3,3.5-8.7,0.2-12.1c-3.3-3.4-8.7-3.5-12.1-0.2c-15.6,15-36.1,23.3-57.8,23.3c-46,0-83.3-37.4-83.3-83.3
					c0-46,37.4-83.4,83.3-83.4s83.3,37.4,83.3,83.4c0,10.4-1.9,20.6-5.7,30.2c-1.7,4.4,0.5,9.3,4.8,11c4.4,1.7,9.3-0.5,11-4.8
					c4.5-11.6,6.8-23.9,6.8-36.4c0-15.6-3.6-30.5-10-43.7c4.7,2.3,9.9,3.5,15.1,3.5c2.9,0,5.8-0.4,8.6-1.1c8.9-2.3,16.3-7.9,21-15.8
					c3.6-6.1,5.1-12.8,4.7-19.4c2.3,0.5,4.6,0.7,6.9,0.7c2.9,0,5.8-0.4,8.6-1.1c8.9-2.3,16.3-7.9,21-15.8
					c8.2-13.9,5.5-31.3-5.6-42.1c5.6-2.9,10.4-7.2,13.8-13c1.1-1.9,2-3.8,2.7-5.8l22.9-22.6l76.8-45.4c1.9-1.1,3.4-3,3.9-5.2
					C746.2,442.8,745.8,440.4,744.7,438.5L744.7,438.5z M575.2,605.9c-2.3,4-6.1,6.8-10.6,7.9c-4.5,1.1-9.1,0.5-13-1.8l-51.5-30.7
					c-8.1-4.9-10.8-15.4-6-23.6c1.9-3.3,6.1-6.8,10.6-7.9c4.5-1.1,9.1-0.5,13.1,1.9l51.3,30.6C577.4,587.1,580.1,597.7,575.2,605.9
					L575.2,605.9z M616.4,570.3c-2.3,4-6.1,6.8-10.6,7.9c-4.5,1.1-9.1,0.5-13.1-1.8l-66.4-39.5c-19.1-12.3-2.5-40.5,17.5-29.7
					l66.5,39.5C618.5,551.5,621.3,562.1,616.4,570.3L616.4,570.3z M624.6,515.2c-4.6,7.8-14.5,10.6-22.5,6.7l-49.3-29.4
					c-8.2-4.7-11-15.5-6.2-23.7c4.6-8.1,15.8-11,23.7-6l48.2,28.7C626.6,496.2,629.5,507.4,624.6,515.2L624.6,515.2z"/>
			</g>
		</g>
		<g>
			<path id="XMLID_980_" class="st3" d="M500.2,645.9L427.1,719c-4.9,4.9-12.8,4.9-17.6,0c-4.9-4.9-4.9-12.8,0-17.6l73.1-73.1
				c4.9-4.9,12.8-4.9,17.6,0S505.1,641,500.2,645.9z"/>
			<path id="XMLID_98_" class="st3" d="M409.5,629.5c4.9-4.9,12.7-4.9,17.6,0l73.1,73.1c4.9,4.9,4.9,12.7,0,17.6
				c-4.9,4.9-12.7,4.9-17.6,0l-73.1-73.1C404.6,642.2,404.7,634.3,409.5,629.5z"/>
		</g>
	</g>
</g>
</svg>
