<?xml version="1.0" encoding="utf-8"?>
<!-- Generator: Adobe Illustrator 23.1.0, SVG Export Plug-In . SVG Version: 6.00 Build 0)  -->
<svg version="1.1" id="Layer_1" xmlns="http://www.w3.org/2000/svg" xmlns:xlink="http://www.w3.org/1999/xlink" x="0px" y="0px"
	 viewBox="0 0 909.9 909.9" style="enable-background:new 0 0 909.9 909.9;" xml:space="preserve">
<style type="text/css">
	.st0{fill:#0095DA;}
	.st1{fill:#21409A;}
	.st2{fill:#224099;stroke:#21409A;stroke-width:3;stroke-miterlimit:10;}
	.st3{fill:#0095DA;stroke:#0095DA;stroke-width:3;stroke-miterlimit:10;}
	.st4{fill:#FFFFFF;}
</style>
<g>
	<g>
		<g>
			<g>
				<path id="XMLID_947_" class="st0" d="M106.7,727.7c-7.7,0-15.2-3.6-20-10.4C-41,537.1-20.2,292.9,135.9,136.7
					S536.3-40.2,716.5,87.4c11.1,7.9,13.7,23.1,5.8,34.2c-7.9,11.1-23.1,13.7-34.2,5.8C527.5,13.6,309.8,32.1,170.6,171.3
					C31.3,310.6,12.8,528.3,126.7,689c7.9,11.1,5.2,26.3-5.8,34.2C116.5,726.2,111.5,727.7,106.7,727.7z"/>
			</g>
			<g>
				<path id="XMLID_946_" class="st1" d="M456.2,909.1c-90.9,0-182.1-27.4-261.2-83.4c-11.1-7.9-13.7-23.1-5.8-34.2
					c7.9-11.1,23.1-13.7,34.2-5.8C384,899.4,601.7,880.9,741,741.7c139.2-139.2,157.7-357,43.9-517.8c-7.9-11.1-5.2-26.3,5.8-34.2
					c11.1-7.9,26.3-5.2,34.2,5.8c127.6,180.2,106.9,424.5-49.3,580.6C687.9,864.1,572.4,909.1,456.2,909.1z"/>
			</g>
		</g>
	</g>
	<g id="XMLID_42_">
		<g>
			<path class="st2" d="M375.3,449.3c-24.3-0.2-48.5-0.1-72.8-0.1V449c-24.5,0-49,0-73.4,0c-7.7,0-9,1.4-8.3,8.9
				c1.1,11.5,2.5,22.9,3.8,34.4c4.8,42.4,9.6,84.9,14.2,127.3c0.6,5.6,3.1,7.7,8.6,7.7c36.4-0.1,72.9-0.1,109.3,0c5.7,0,8.4-2,9-8
				c5.9-53.5,11.9-107,17.9-160.5C384.5,451,383.3,449.4,375.3,449.3z M370.4,483.2c-4.7,42.2-9.6,84.5-14.1,126.7
				c-0.6,6-2.8,7.6-8.3,7c-2.7-0.3-5.6-0.1-9.2-0.1c0.6-11.6,1.2-22.5,1.8-33.3c1.8-30.3,3.6-60.6,5.4-90.9c0.1-1,0.5-2.3,0-3
				c-1.4-2.1-3.1-4-4.7-6c-1.8,1.8-5,3.4-5.2,5.4c-1.1,9.4-1.4,19-2,28.4c-1.8,30.9-3.5,61.8-5.3,92.8c-0.1,2-0.5,4-0.8,6.6
				c-6,0-11.6,0.3-17.2-0.2c-1.3-0.1-3.2-2.7-3.3-4.3c-0.4-6.9-0.2-13.8-0.2-20.6c0-32.6,0-65.2,0-97.8c0-1.8,0.6-4-0.2-5.4
				c-1.2-2-3.2-4.2-5.2-4.6c-1.2-0.2-3.6,2.6-4.5,4.5c-0.8,1.7-0.3,4-0.3,6c0,38.1,0,76.1,0,114.2c0,2.6-0.3,5.1-0.4,7.5
				c-1,0.4-1.3,0.6-1.7,0.6c-18.5,1.8-18.8,1.8-19.9-16.5c-2.3-36-4.3-71.9-6.4-107.9c0-0.6-0.1-1.2-0.1-1.8
				c-0.1-3.6-1.1-6.8-5.3-6.7c-4.2,0.1-5.1,3.3-4.9,6.9c0.3,5.1,0.4,10.1,0.7,15.2c2.1,35.8,4.2,71.5,6.3,107.3c0,1-0.2,1.9-0.3,2.9
				c-0.8,0.3-1.3,0.7-1.9,0.7c-17.5,0-14,2.4-15.8-13.2c-5.2-45-10.2-90.1-15.2-135.1c-0.3-2.6-0.3-5.2-0.5-8.7h141.2
				C372,467.7,371.2,475.4,370.4,483.2z"/>
		</g>
	</g>
	<g>
		<g>
			<path class="st3" d="M489.4,295.3c-4.9-9-12.1-11.3-21.4-6.9c-4.5,2.1-8.6,4.8-13.2,7.5c-6.9-5.5-8.6-5.6-15.8,0.1
				c-7.7,6.1-16.5,8.9-26.1,8.8c-5.9-0.1-11.7-1.1-17.6-1.6c-1.4-0.1-3.1-0.2-4.2,0.4c-5.8,3.3-11.3,6.6-12.9,14.2
				c-1.1,5.1-3.9,10-6.4,14.7c-3.8,7.3-9.4,12.9-16.5,17.2c-8.1,4.8-8.4,5.8-6.1,15c-4.2,3-8.6,5.8-12.6,9
				c-9.4,7.6-10,16.5-1.7,25.2c3.4,3.5,7.1,7,11.3,9.5c12.9,7.7,22.4,9.3,34.1,0.2c0.6-0.5,1.3-1,1.9-1.4c4.5-3.2,8.9-6.1,15-3.5
				c2.8,1.2,6.3,1,9.5,1.2c14.7,0.6,27.3-4.9,39.2-13c11.6-7.9,20.5-18,23.5-31.4c2.2-9.8,7.2-15.6,15.5-19.9
				c5.1-2.6,7.8-7.2,9-12.7C496.6,316.3,494.9,305.4,489.4,295.3z M356.7,356.7c15.8-8.4,23.6-22.8,28.9-39
				c1.7-5.1,6.7-8.1,12.1-7.3c10,1.5,20.2,2.4,29.8-1.1c5.8-2.1,11.2-5.5,16.5-8.9c2.9-1.8,4.5-1.8,6,1.2c1.5,3.2,2.9,6.6,4.7,10.7
				c-4.9,1.4-9.3,3-13.8,3.7c-9.5,1.6-19.1,2.6-28.6,4c-9.4,1.4-16.8,6.2-22,14.1c-5.4,8.2-10.2,16.7-15.6,24.9
				c-2.3,3.5-5.4,6.6-8.3,9.8c-1.4,1.6-2.9,1.5-4.3-0.2c-2.1-2.6-4.4-5.1-6.4-7.7C354.4,359.3,354.7,357.8,356.7,356.7z
				 M350.3,402.9c-4.4-3.1-8.5-6.9-12-11c-3.6-4.2-3-8.1,1.2-11.6c4.4-3.7,9.2-6.9,14.2-10.5c9.5,10.1,18.6,19.6,27.8,29.3
				C374.3,408.5,361.4,410.6,350.3,402.9z M445.7,383.3c-8.2,6.4-17,12.2-27.8,13.6c-16.6,2.2-31.5-0.2-42.7-14.1
				c-1.8-2.3-3.9-4.4-6.2-6.9c11-9.5,17.3-21.7,24.1-33.5c5.6-9.8,13.3-15.2,24.6-16.2c9.6-0.9,19.1-2.6,28.6-4.2
				c3.6-0.6,7.1-2.1,10.7-3.2C473.9,343.8,463.9,369,445.7,383.3z M486.7,328.2c-1.4,4.5-6.3,8.2-13.1,11.1
				c-4.7-11.2-9.2-22.1-14.1-33c-1.4-3-1.2-4.8,1.9-6.3c4-1.9,7.7-4.3,11.6-6.2c3.5-1.6,6.7-0.6,8.8,2.6
				C488.3,306.2,490.1,316.9,486.7,328.2z"/>
		</g>
	</g>
	<g>
		<g>
			<path class="st2" d="M354.1,301.3c-4.8-3.1-10.5-5.4-16.1-6.4c-14.3-2.6-28.2,0.7-41.7,5.4c-3.8,1.4-6.1,0.9-8.9-2.1
				c-8.2-8.6-18.5-11.4-30-8.5c-15.4,3.9-27.4,12.9-35.6,26.4c-6.2,10.3-6.7,21.2-0.7,31.8c2.3,3.9,2.1,6.5-0.5,10.1
				c-9,12.9-15.9,26.8-17,45.3c0.6,2.3,1.3,6.9,3.1,11.1c2.5,5.8,6,6.4,11,2.5c3.4-2.6,6.5-5.5,9.9-8c21.1-15.9,42.4-31.8,63.5-47.7
				c21-15.8,41.9-31.8,62.8-47.7C359.9,309.1,360.3,305.3,354.1,301.3z M242.3,308.6c12-9.5,29.2-14.4,38.2-1.8
				c-18.7,9.1-35,21.4-48.8,37.1C223.8,333.2,228.2,319.7,242.3,308.6z M216,405.6l-2.3-1.2c1.2-5.9,1.8-12.1,3.8-17.8
				c10.1-27.9,29.7-47.8,54.2-63.3c18.1-11.4,37.5-19,59.3-18.8c4.2,0,8.5,1.2,12.7,1.9c0.1,0.6,0.1,1.1,0.2,1.7
				C301.3,340.7,258.7,373.1,216,405.6z"/>
		</g>
	</g>
	<path class="st1" d="M762.9,520c-9.6-12.8-22.7-22.8-37.5-28.6c0.3-5.1-1.3-10.1-4.5-14.3c-4.1-5.3-10.3-8.3-17-8.3h-1.7
		c9.8-15.3,15.1-33.2,15.1-51.6v-33.1c0-52.9-42.8-95.9-95.5-95.9c-52.7,0-95.5,43-95.5,95.9v33.1c0,16.7,4.2,32.7,12.3,47
		c-37.8,8.7-66.1,42.7-66.1,83.1v47.2c0,5.1,4.1,9.2,9.2,9.2s9.2-4.1,9.2-9.2v-47.2c0-36.8,30-66.8,66.9-66.8H668v40H558
		c-5.1,0-9.2,4.1-9.2,9.2c0,5.1,4.1,9.2,9.2,9.2h119.5c4,0,7.4-2.6,8.7-6.1h12.2c9.8,0,18.4-6.7,20.9-16.2l1.8-7
		c24,10.6,40.2,34.7,40.2,61.1v23.7c0,5.1,4.1,9.2,9.2,9.2s9.2-4.1,9.2-9.2v-23.7C779.8,552.4,773.9,534.8,762.9,520L762.9,520z
		 M559,462.1c-9.4-13.2-14.3-28.6-14.3-44.8v-33.1c0-2.6,0.1-5.2,0.4-7.8c6.8,2,13.8,3.1,21,3.1c21.6,0,41.9-9.6,55.6-25.7
		c13.7,16.1,34,25.7,55.6,25.7c7.2,0,14.2-1,21-3.1c0.3,2.6,0.4,5.2,0.4,7.8v33.1c0,16.9-5.5,33.2-15.7,46.6
		c-1.5-1.2-3.4-1.8-5.5-1.8L559,462.1z M621.7,306.8c33.4,0,62,21.5,72.6,51.5c-5.5,1.8-11.2,2.7-17,2.7
		c-19.7,0-37.9-10.7-47.5-27.9c-1.6-2.9-4.7-4.7-8.1-4.7s-6.4,1.8-8.1,4.7c-9.6,17.2-27.9,27.9-47.5,27.9c-5.8,0-11.5-0.9-16.9-2.7
		C559.8,328.3,588.3,306.8,621.7,306.8L621.7,306.8z M706.8,491.2l-5.4,20.9c-0.3,1.4-1.6,2.3-3,2.3h-11.7v-27.1h17.1
		c1.3,0,2.1,0.7,2.4,1.2C706.6,489,707.2,489.9,706.8,491.2z"/>
	<path class="st1" d="M770.6,610.9c-7.2,0-13.1-6-13.1-13.3v-23.9c0-23.2-13.4-45.1-33.7-56.1l-0.6,2.4c-2.9,11.4-13,19.3-24.7,19.3
		h-9.8c-2.4,3.8-6.5,6.2-11.1,6.2H558c-7.2,0-13.1-6-13.1-13.3S550.8,519,558,519h106.1v-32.6H557.7c-34.7,0-63,28.5-63,63.6v47.6
		c0,7.3-5.9,13.3-13.1,13.3c-7.2,0-13.1-6-13.1-13.3V550c0-40.5,26.2-75.4,64.3-86.5c-6.9-13.9-10.4-29-10.4-44.9v-33.4
		c0-55.6,44.6-100.8,99.4-100.8s99.4,45.2,99.4,100.8v33.4c0,17.1-4.3,33.7-12.4,48.6c6,1.2,11.4,4.5,15.3,9.5
		c3.2,4.1,5,9.1,5.3,14.2c14.6,6.3,27.2,16.3,36.7,29.1v0c11.6,15.7,17.7,34.2,17.7,53.7v23.9C783.7,605,777.8,610.9,770.6,610.9z
		 M718.5,506.5l4.2,1.9c25.4,11.3,42.5,37.6,42.5,65.3v23.9c0,3,2.4,5.4,5.3,5.4s5.3-2.4,5.3-5.4v-23.9c0-17.8-5.6-34.7-16.2-49
		c-9-12.2-21.7-22-35.8-27.5l-2.6-1l0.1-2.8c0.2-4.2-1.1-8.4-3.7-11.8c-3.4-4.4-8.5-6.9-14-6.9H695l3.8-6.1
		c9.5-15,14.5-32.3,14.5-50v-33.4c0-51.2-41.1-92.9-91.6-92.9s-91.6,41.7-91.6,92.9v33.4c0,16.2,4,31.5,11.8,45.5l2.6,4.6l-5.1,1.2
		c-36.6,8.5-63.1,42.2-63.1,80.1v47.6c0,3,2.4,5.4,5.3,5.4c2.9,0,5.3-2.4,5.3-5.4V550c0-39.4,31.7-71.4,70.8-71.4h114.1v48.3H558
		c-2.9,0-5.3,2.4-5.3,5.4c0,3,2.4,5.4,5.3,5.4h119.5c2.2,0,4.3-1.4,5-3.6l0.9-2.6h15c8.1,0,15.1-5.5,17.1-13.4L718.5,506.5z
		 M698.5,520.7h-15.6v-35.3h21c2.2,0,4.2,1,5.5,2.7c1.3,1.7,1.8,3.9,1.2,6.1l-5.4,21.2C704.4,518.5,701.7,520.7,698.5,520.7z
		 M690.7,512.8h7.2l5-19.5h-12.1V512.8z M683.8,471.2l-3.1-2.3c-0.9-0.7-2-1.1-3.2-1.1H557l-1.2-1.7c-9.8-13.9-15-30.4-15-47.5
		v-33.4c0-2.7,0.1-5.5,0.4-8.2l0.5-4.8l4.5,1.4c6.4,1.9,13.1,2.9,19.9,2.9c20.3,0,39.5-9,52.6-24.6l3-3.5l3,3.5
		c13.2,15.6,32.4,24.6,52.6,24.6c6.8,0,13.5-1,19.9-3l4.5-1.4l0.5,4.8c0.3,2.7,0.4,5.5,0.4,8.3v33.4c0,17.7-5.8,35.3-16.5,49.5
		L683.8,471.2z M561.1,459.9h116.5c1.5,0,3,0.3,4.3,0.7c8.4-12.3,13-27.1,13-42.1v-33.4c0-0.9,0-1.9-0.1-2.8c-5.7,1.3-11.6,2-17.5,2
		c-21.1,0-41.1-8.7-55.6-24c-14.5,15.3-34.5,24-55.6,24c-5.9,0-11.7-0.7-17.4-2c0,0.9-0.1,1.9-0.1,2.8v33.4
		C548.6,433.4,552.9,447.7,561.1,459.9z M677.3,365.7c-21.1,0-40.6-11.6-50.9-30.1c-0.9-1.7-2.7-2.8-4.7-2.8c-1.9,0-3.7,1.1-4.7,2.8
		c-10.3,18.6-29.9,30.2-50.9,30.2c-6.2,0-12.3-1-18.2-2.9l-3.8-1.3l1.3-3.8c11.5-32.7,42.1-54.7,76.2-54.7c34.1,0,64.8,22,76.2,54.7
		l1.3,3.8l-3.8,1.3C689.7,364.7,683.5,365.7,677.3,365.7z M621.7,325c4.7,0,9.1,2.6,11.5,6.8c9,16.1,25.9,26.1,44.2,26.1
		c4,0,8-0.5,11.8-1.4c-11.4-27.4-37.9-45.5-67.4-45.5c-29.5,0-56,18.1-67.4,45.5c3.8,0.9,7.8,1.4,11.8,1.4c18.3,0,35.2-10,44.1-26.1
		C612.6,327.6,617,325,621.7,325z"/>
	<ellipse class="st4" cx="201.6" cy="428.9" rx="44.3" ry="44.3"/>
	<g>
		<path id="XMLID_132_" class="st0" d="M227.4,426L194,452.2c-1.7,1.3-3.6,2-5.6,2c-2.6,0-5.1-1.1-6.9-3.2l-15.7-18.3
			c-3.2-3.8-2.8-9.5,1-12.8c3.8-3.2,9.5-2.8,12.8,1l10,11.7l26.5-20.9c3.9-3.1,9.6-2.4,12.8,1.5C231.9,417.1,231.3,422.8,227.4,426z
			"/>
		<path class="st0" d="M198.4,377.6c-28.5,0-51.6,23.1-51.6,51.6c0,28.5,23.1,51.6,51.6,51.6c28.5,0,51.6-23.1,51.6-51.6
			C250,400.7,226.9,377.6,198.4,377.6z M198.4,471.7c-23.5,0-42.5-19.1-42.5-42.5c0-23.5,19.1-42.6,42.5-42.6
			c23.5,0,42.5,19.1,42.5,42.6C240.9,452.6,221.8,471.7,198.4,471.7z"/>
		<path class="st0" d="M198.4,368.5c-33.5,0-60.7,27.3-60.7,60.7c0,33.4,27.2,60.7,60.7,60.7c33.5,0,60.7-27.2,60.7-60.7
			C259.1,395.7,231.8,368.5,198.4,368.5z M198.4,471.7c-23.5,0-42.5-19.1-42.5-42.5c0-23.5,19.1-42.6,42.5-42.6
			c23.5,0,42.5,19.1,42.5,42.6C240.9,452.6,221.8,471.7,198.4,471.7z"/>
	</g>
	<g>
		<path id="XMLID_127_" class="st0" d="M227.4,426L194,452.2c-1.7,1.3-3.6,2-5.6,2c-2.6,0-5.1-1.1-6.9-3.2l-15.7-18.3
			c-3.2-3.8-2.8-9.5,1-12.8c3.8-3.2,9.5-2.8,12.8,1l10,11.7l26.5-20.9c3.9-3.1,9.6-2.4,12.8,1.5C231.9,417.1,231.3,422.8,227.4,426z
			"/>
	</g>
</g>
</svg>
