<?xml version="1.0" encoding="utf-8"?>
<!-- Generator: Adobe Illustrator 23.0.1, SVG Export Plug-In . SVG Version: 6.00 Build 0)  -->
<svg version="1.1" id="Layer_1" xmlns="http://www.w3.org/2000/svg" xmlns:xlink="http://www.w3.org/1999/xlink" x="0px" y="0px"
	 viewBox="0 0 867.12 867.13" style="enable-background:new 0 0 867.12 867.13;" xml:space="preserve">
<style type="text/css">
	.st0{fill:#21409A;}
	.st1{fill:#0095DA;}
	.st2{fill:#FFFFFF;}
	.st3{fill:none;stroke:#FFFFFF;stroke-width:2;stroke-linecap:round;stroke-linejoin:round;stroke-miterlimit:10;}
	.st4{fill:#1F4396;}
	.st5{fill:#1F4497;}
	.st6{fill:#214099;}
</style>
<g>
	<g>
		<path class="st1" d="M99.1,693.34c-7.36,0-14.6-3.45-19.17-9.91C-42.37,510.71-22.52,276.75,127.11,127.11
			C276.75-22.52,510.71-42.37,683.43,79.93c10.58,7.49,13.09,22.13,5.59,32.71c-7.47,10.58-22.12,13.09-32.71,5.59
			C502.31,9.21,293.71,26.91,160.29,160.3C26.89,293.71,9.2,502.31,118.23,656.31c7.49,10.58,4.99,25.22-5.59,32.71
			C108.52,691.94,103.78,693.34,99.1,693.34z"/>
		<path class="st0" d="M434,867.13c-87.04,0-174.55-26.29-250.3-79.93c-10.58-7.49-13.09-22.13-5.59-32.71
			c7.49-10.58,22.12-13.09,32.71-5.59c154.01,109.05,362.61,91.35,496.02-42.07c133.41-133.41,151.1-342.02,42.07-496.02
			c-7.49-10.58-4.99-25.22,5.59-32.71c10.59-7.49,25.22-4.98,32.71,5.59c122.29,172.72,102.44,406.69-47.19,556.32
			C656.02,824.02,545.41,867.13,434,867.13z"/>
	</g>
</g>
<path class="st0" d="M548.49,650.03H272.97c-8.64,0-15.64-7-15.64-15.64V265.15c0-8.64,7-15.64,15.64-15.64h275.51
	c8.64,0,15.64,7,15.64,15.64v369.23C564.13,643.02,557.12,650.03,548.49,650.03z M288.62,618.74h244.22V280.79H288.62V618.74z"/>
<path class="st0" d="M551.28,452.8c-1.96,0-3.96-0.37-5.89-1.16c-8.01-3.26-11.85-12.38-8.59-20.39l74.75-183.64l-111.15-45.24
	l-27.95,68.67c-3.26,8.01-12.37,11.84-20.39,8.59c-8.01-3.25-11.85-12.38-8.59-20.39l33.85-83.16c3.26-8,12.37-11.86,20.39-8.59
	l140.14,57.03c3.84,1.57,6.91,4.59,8.52,8.42c1.61,3.82,1.64,8.13,0.08,11.97l-80.64,198.13
	C563.3,449.12,557.45,452.79,551.28,452.8z"/>
<path class="st0" d="M447.45,707.95c-2,0-4-0.38-5.9-1.15l-140.14-57.03c-8.01-3.25-11.85-12.38-8.59-20.39
	c3.25-8,12.37-11.87,20.39-8.59l125.64,51.13l17.68-43.43c3.26-8.01,12.36-11.86,20.39-8.59c8.01,3.25,11.85,12.38,8.59,20.39
	l-23.57,57.93c-1.57,3.84-4.59,6.91-8.42,8.52C451.58,707.54,449.52,707.95,447.45,707.95z"/>
<path class="st0" d="M480.8,581.82H340.65c-8.64,0-15.64-7-15.64-15.64s7-15.64,15.64-15.64H480.8c8.64,0,15.64,7,15.64,15.64
	S489.44,581.82,480.8,581.82z"/>
<g>
	<path class="st0" d="M410.73,512.86c-51.68,0-93.72-42.04-93.72-93.73c0-51.68,42.04-93.72,93.72-93.72
		c51.68,0,93.73,42.04,93.73,93.72C504.45,470.81,462.41,512.86,410.73,512.86z M410.73,348.87c-38.74,0-70.25,31.52-70.25,70.25
		c0,38.74,31.52,70.26,70.25,70.26c38.74,0,70.26-31.52,70.26-70.26C480.99,380.39,449.47,348.87,410.73,348.87z"/>
	<path class="st0" d="M399.7,506.16c-3.8,0-7.54-1.85-9.79-5.26c-0.49-0.73-11.99-18.26-17.27-38.32
		c-8.35-31.62-8.54-54.05-0.69-79.97c4.76-15.68,16.76-39.52,17.27-40.53c2.92-5.79,9.98-8.1,15.76-5.19
		c5.78,2.92,8.1,9.98,5.19,15.76c-0.11,0.23-11.6,23.05-15.76,36.77c-6.55,21.62-6.3,39.83,0.92,67.18
		c4.32,16.36,14.06,31.22,14.15,31.37c3.57,5.41,2.09,12.69-3.32,16.26C404.17,505.53,401.93,506.16,399.7,506.16z"/>
	<path class="st0" d="M421.23,506.16c-1.83,0-3.7-0.43-5.43-1.34c-5.74-3-7.96-10.09-4.96-15.84c0.11-0.21,11.2-21.47,14.95-33.02
		c7.68-23.63,7.94-44.7,0.82-66.28c-5.19-15.71-15.75-36.85-15.86-37.06c-2.9-5.8-0.57-12.85,5.23-15.75
		c5.79-2.9,12.84-0.57,15.75,5.22c0.47,0.93,11.45,22.9,17.17,40.23c8.63,26.2,8.38,52.65-0.79,80.87
		c-4.35,13.44-15.99,35.72-16.48,36.66C429.54,503.86,425.45,506.16,421.23,506.16z"/>
	<path class="st0" d="M484.75,430.86H330.98c-6.48,0-11.73-5.26-11.73-11.73c0-6.48,5.26-11.73,11.73-11.73h153.77
		c6.48,0,11.73,5.26,11.73,11.73C496.48,425.6,491.22,430.86,484.75,430.86z"/>
</g>
</svg>
