<?xml version="1.0" encoding="utf-8"?>
<!-- Generator: Adobe Illustrator 23.1.0, SVG Export Plug-In . SVG Version: 6.00 Build 0)  -->
<svg version="1.1" id="Layer_1" xmlns="http://www.w3.org/2000/svg" xmlns:xlink="http://www.w3.org/1999/xlink" x="0px" y="0px"
	 viewBox="0 0 909.9 909.9" style="enable-background:new 0 0 909.9 909.9;" xml:space="preserve">
<style type="text/css">
	.st0{fill:#0095DA;}
	.st1{fill:#21409A;}
	.st2{fill:#FFFFFF;}
</style>
<g>
	<g>
		<g>
			<path id="XMLID_281_" class="st0" d="M105.6,726.1c-7.7,0-15.2-3.6-20-10.3C-42,535.5-21.3,291.3,134.9,135.1
				C291-21,535.2-41.7,715.5,85.9c11,7.8,13.7,23.1,5.8,34.1c-7.8,11-23.1,13.7-34.1,5.8C526.5,12.1,308.7,30.6,169.5,169.8
				C30.3,309,11.8,526.8,125.6,687.5c7.8,11,5.2,26.3-5.8,34.1C115.5,724.7,110.5,726.1,105.6,726.1z"/>
			<path id="XMLID_280_" class="st1" d="M455.2,907.5c-90.8,0-182.2-27.4-261.2-83.4c-11-7.8-13.7-23.1-5.8-34.1
				c7.8-11,23.1-13.7,34.1-5.8c160.8,113.8,378.5,95.3,517.7-43.9c139.2-139.2,157.7-357,43.9-517.7c-7.8-11-5.2-26.3,5.8-34.1
				c11.1-7.8,26.3-5.2,34.1,5.8c127.6,180.3,106.9,424.5-49.2,580.6C686.9,862.5,571.4,907.5,455.2,907.5z"/>
		</g>
	</g>
	<g>
		<g>
			<g>
				<path class="st0" d="M372.7,318.3c-42.6,0-77.2-34.6-77.2-77.2s34.6-77.2,77.2-77.2s77.2,34.6,77.2,77.2
					S415.3,318.3,372.7,318.3z M372.7,188.4c-29.1,0-52.7,23.6-52.7,52.7s23.6,52.7,52.7,52.7s52.7-23.7,52.7-52.7
					S401.8,188.4,372.7,188.4z"/>
				<path id="XMLID_277_" class="st0" d="M400,253h-40l0.2-45.2c0-4.5,3.7-8.1,8.2-8.1c0,0,0,0,0,0c4.5,0,8.2,3.7,8.1,8.2l-0.1,28.8
					H400c4.5,0,8.2,3.7,8.2,8.2S404.5,253,400,253z"/>
			</g>
		</g>
		<g>
			<polyline id="XMLID_276_" class="st2" points="366.2,635 366.2,479.8 693.8,479.8 693.8,634.9 			"/>
			<path id="XMLID_275_" class="st1" d="M366.2,647.2c-6.8,0-12.2-5.5-12.2-12.2V479.8c0-6.8,5.5-12.2,12.2-12.2h327.5
				c6.8,0,12.2,5.5,12.2,12.2v155.1c0,6.8-5.5,12.2-12.2,12.2c-6.8,0-12.2-5.5-12.2-12.2V492h-303v143
				C378.5,641.7,373,647.2,366.2,647.2z"/>
		</g>
		<g>
			<g>
				<path id="XMLID_274_" class="st2" d="M592.4,443.7H463.5V364c0-3.3,2.7-6,6-6h116.7c3.3,0,6,2.7,6,6L592.4,443.7L592.4,443.7z"
					/>
				<path class="st1" d="M592.4,455.9H463.5c-6.8,0-12.2-5.5-12.2-12.2v-38.4c0-32.8,26.7-59.5,59.5-59.5h34.2
					c32.8,0,59.5,26.7,59.5,59.5v38.4C604.6,450.4,599.1,455.9,592.4,455.9z M475.8,431.4h104.3v-26.1c0-19.3-15.7-35-35-35h-34.2
					c-19.3,0-35,15.7-35,35L475.8,431.4L475.8,431.4z"/>
			</g>
			<g>
				<ellipse id="XMLID_271_" class="st2" cx="527.9" cy="289.6" rx="31.4" ry="32.1"/>
				<path class="st1" d="M527.9,333.9c-24,0-43.6-19.9-43.6-44.4c0-24.5,19.6-44.4,43.6-44.4c24,0,43.6,19.9,43.6,44.4
					C571.5,314,552,333.9,527.9,333.9z M527.9,269.7c-10.5,0-19.1,8.9-19.1,19.9c0,11,8.6,19.9,19.1,19.9s19.1-8.9,19.1-19.9
					C547,278.6,538.5,269.7,527.9,269.7z"/>
			</g>
		</g>
		<g>
			<path id="XMLID_268_" class="st0" d="M324,551H215.9c-1.3,0-2.4-1.1-2.4-2.4v-85.9c0-1.3,1.1-2.4,2.4-2.4H324
				c1.3,0,2.4,1.1,2.4,2.4v85.9C326.4,550,325.3,551,324,551z"/>
			<path class="st0" d="M291.8,483.6h-40.7c-6.8,0-12.2-5.5-12.2-12.2v-26.1c0-12.1,9.9-22,22-22H282c12.1,0,22,9.9,22,22v26.1
				C304.1,478.1,298.6,483.6,291.8,483.6z M263.4,459.1h16.2v-11.4h-16.2V459.1z"/>
		</g>
		<g>
			<path id="XMLID_265_" class="st1" d="M692.7,532.4H376.3c-6.8,0-12.2-5.5-12.2-12.2c0-6.8,5.5-12.2,12.2-12.2h316.5
				c6.8,0,12.2,5.5,12.2,12.2C705,526.9,699.5,532.4,692.7,532.4z"/>
		</g>
		<g>
			<polyline id="XMLID_264_" class="st2" points="366.2,640 190.1,640 190.1,585.6 318.2,585.6 			"/>
			<path id="XMLID_263_" class="st1" d="M366.2,652.2H190.1c-6.8,0-12.2-5.5-12.2-12.2v-54.3c0-6.8,5.5-12.2,12.2-12.2h128.1
				c6.8,0,12.2,5.5,12.2,12.2s-5.5,12.2-12.2,12.2H202.4v29.8h163.9c6.8,0,12.2,5.5,12.2,12.2C378.5,646.7,373,652.2,366.2,652.2z"
				/>
		</g>
	</g>
</g>
</svg>
