<?xml version="1.0" encoding="utf-8"?>
<!-- Generator: Adobe Illustrator 23.1.0, SVG Export Plug-In . SVG Version: 6.00 Build 0)  -->
<svg version="1.1" id="Layer_1" xmlns="http://www.w3.org/2000/svg" xmlns:xlink="http://www.w3.org/1999/xlink" x="0px" y="0px"
	 viewBox="0 0 909 909" style="enable-background:new 0 0 909 909;" xml:space="preserve">
<style type="text/css">
	.st0{fill:#0095DA;}
	.st1{fill:#21409A;}
	.st2{fill:#FFFFFF;}
</style>
<g>
	<g>
		<g>
			<path class="st0" d="M640.6,588.6H223.1c-9.1,0-16.3-7.4-16.3-16.3V278c0-9.1,7.4-16.3,16.3-16.3h417.5c9.1,0,16.3,7.4,16.3,16.3
				v294.3C656.9,581.4,649.7,588.6,640.6,588.6z M239.4,556h384.8V294.3H239.4V556z"/>
		</g>
		<g>
			<path class="st0" d="M678.6,649.9H185.1c-9.1,0-16.3-7.4-16.3-16.3v-61.3c0-9.1,7.4-16.3,16.3-16.3h493.5
				c9.1,0,16.3,7.4,16.3,16.3v61.3C694.9,642.6,687.6,649.9,678.6,649.9z M201.6,617.2h460.7v-28.6H201.6V617.2z"/>
		</g>
		<g>
			<g>
				<g>
					<path id="XMLID_1767_" class="st0" d="M105.7,726.9c-7.7,0-15.2-3.6-20.1-10.4C-42,536.3-21.3,292.1,134.9,136
						S535.4-41,715.7,86.7c11.1,7.9,13.7,23.1,5.8,34.2c-7.9,11.1-23.1,13.7-34.2,5.8C526.6,12.8,308.9,31.4,169.6,170.6
						C30.2,309.8,11.8,527.6,125.7,688.2c7.9,11.1,5.2,26.3-5.8,34.2C115.5,725.4,110.5,726.9,105.7,726.9z"/>
				</g>
				<g>
					<path id="XMLID_1766_" class="st1" d="M455.3,908.3c-90.9,0-182.2-27.4-261.3-83.4c-11.1-7.9-13.7-23.1-5.8-34.2
						c7.9-11.1,23.1-13.7,34.2-5.8c160.7,113.7,378.5,95.3,517.9-43.9C879.4,601.7,897.9,384,784.1,223.2
						c-7.9-11.1-5.2-26.3,5.8-34.2c11.1-7.9,26.3-5.2,34.2,5.8C951.8,375.1,931,619.3,774.8,775.5
						C687.1,863.3,571.6,908.3,455.3,908.3z"/>
				</g>
			</g>
		</g>
		<g>
			<rect id="XMLID_1765_" x="313.1" y="353.5" class="st2" width="203.7" height="137.3"/>
			<path class="st1" d="M501.6,495.4H328.4c-13.4,0-24.4-10.9-24.4-24.4v-97.7c0-13.4,10.9-24.4,24.4-24.4h173.3
				c13.4,0,24.4,10.9,24.4,24.4V471C526,484.5,515.1,495.4,501.6,495.4z M328.4,367.3c-3.3,0-6.1,2.7-6.1,6.1V471
				c0,3.3,2.7,6.1,6.1,6.1h173.3c3.3,0,6.1-2.7,6.1-6.1v-97.7c0-3.3-2.7-6.1-6.1-6.1H328.4z"/>
			<rect id="XMLID_1762_" x="313.1" y="387.9" class="st1" width="203.7" height="25.2"/>
			<rect id="XMLID_1761_" x="340.6" y="445.1" class="st1" width="38.9" height="11.4"/>
		</g>
		<g>
			<g>
				<ellipse id="XMLID_1760_" class="st2" cx="530.2" cy="422.4" rx="45" ry="45"/>
				<path class="st0" d="M530.2,475.3c-29.2,0-52.9-23.8-52.9-52.9s23.7-52.9,52.9-52.9c29.2,0,52.9,23.7,52.9,52.9
					C583.2,451.6,559.4,475.3,530.2,475.3z M530.2,385.3c-20.4,0-37.1,16.6-37.1,37.1c0,20.4,16.6,37.1,37.1,37.1
					c20.4,0,37.1-16.6,37.1-37.1C567.3,401.9,550.7,385.3,530.2,385.3z"/>
			</g>
			<g>
				<path id="XMLID_1757_" class="st0" d="M521.5,444.2c-2.2,0-4.4-0.9-6-2.8l-13.7-16c-2.8-3.3-2.4-8.3,0.9-11.1
					c3.3-2.8,8.3-2.4,11.1,0.9l8.7,10.2l23.1-18.2c3.4-2.7,8.4-2.1,11.1,1.3c2.7,3.4,2.1,8.4-1.3,11.1l-29.1,22.8
					C524.9,443.6,523.2,444.2,521.5,444.2z"/>
			</g>
		</g>
	</g>
</g>
</svg>
