<?xml version="1.0" encoding="utf-8"?>
<!-- Generator: Adobe Illustrator 23.1.0, SVG Export Plug-In . SVG Version: 6.00 Build 0)  -->
<svg version="1.1" id="Layer_1" xmlns="http://www.w3.org/2000/svg" xmlns:xlink="http://www.w3.org/1999/xlink" x="0px" y="0px"
	 viewBox="0 0 909.9 909.9" style="enable-background:new 0 0 909.9 909.9;" xml:space="preserve">
<style type="text/css">
	.st0{fill:#0095DA;}
	.st1{fill:#21409A;}
	.st2{fill:#FFFFFF;}
</style>
<g>
	<g>
		<g>
			<g>
				<path id="XMLID_412_" class="st0" d="M105.8,726.3c-7.7,0-15.2-3.6-20-10.4C-41.9,535.6-21.1,291.4,135,135.3
					S535.3-41.7,715.6,86c11.1,7.9,13.7,23.1,5.8,34.2c-7.9,11.1-23.1,13.7-34.2,5.8C526.6,12.1,308.9,30.7,169.7,169.9
					c-139.3,139.2-157.8,357-43.9,517.7c7.9,11.1,5.2,26.3-5.8,34.2C115.6,724.8,110.6,726.3,105.8,726.3z"/>
			</g>
			<g>
				<path id="XMLID_411_" class="st1" d="M455.3,907.6c-90.9,0-182.1-27.4-261.2-83.4c-11.1-7.9-13.7-23.1-5.8-34.2
					c7.9-11.1,23.1-13.7,34.2-5.8c160.7,113.7,378.4,95.3,517.7-43.9C879.3,601,897.7,383.3,784,222.5c-7.9-11.1-5.2-26.3,5.8-34.2
					c11.1-7.9,26.3-5.2,34.2,5.8c127.6,180.2,106.9,424.5-49.3,580.6C687,862.7,571.5,907.6,455.3,907.6z"/>
			</g>
		</g>
	</g>
	<g>
		<path class="st0" d="M611.6,528.4c0,2.6,0,4.5,0,6.5c0,36.6,0,73.1,0,109.7c0,24.3-16.8,41.2-41,41.2c-82.6,0-165.3,0-247.9,0
			c-25,0-41.6-16.7-41.6-41.6c0-129.7,0-259.4,0-389.1c0-24.9,16.7-41.5,41.7-41.6c82.3,0,164.6,0,246.9,0
			c25.3,0,41.9,16.5,41.9,41.8c0,20.8,0,41.6,0,62.5c0,1.8,0,3.5,0,5.9c6.5,0,12.7,0.3,18.9-0.1c5.7-0.4,10.2,1.3,13.8,5.8
			c1.8,2.3,3.9,4.4,7.3,8.2c3.1-3.9,5.4-7.5,8.5-10.3c2.1-1.9,5.4-3.4,8.2-3.4c25.2-0.3,50.5-0.2,75.7-0.1c6.4,0,9.3,2.9,9.3,9.4
			c0,62,0,124,0,185.9c0,6.4-2.9,9.3-9.3,9.3c-25.2,0-50.5,0.1-75.7-0.1c-2.8,0-5.9-1.7-8.2-3.4c-3.2-2.5-5.7-5.8-9-9.3
			c-3.4,3.6-6.1,7-9.4,9.6c-2.1,1.7-5.1,3-7.8,3.2C626.7,528.7,619.4,528.4,611.6,528.4z M595.5,512.4c0-57.8,0-115.3,0-172.5
			c-99.7,0-199.1,0-298.4,0c0,57.7,0,115,0,172.5C396.6,512.4,495.9,512.4,595.5,512.4z M297,606.7c99.8,0,199.2,0,298.4,0
			c0-26.3,0-52.3,0-78.1c-99.7,0-198.9,0-298.4,0C297,554.7,297,580.6,297,606.7z M595.6,276.8c-99.7,0-199.1,0-298.4,0
			c0,15.8,0,31.2,0,46.7c99.6,0,198.9,0,298.4,0C595.6,307.9,595.6,292.6,595.6,276.8z M297.2,260.4c99.7,0,199.1,0,298.4,0
			c2.9-21-11-31.5-28.2-31.4c-81.3,0.6-162.5,0.2-243.8,0.3c-2.6,0-5.3,0-7.8,0.5C302.2,232.7,295.3,243.9,297.2,260.4z
			 M737.3,339.5c-1.9,0-3.5,0-5.1,0c-17,0-34.1,0.5-51.1-0.2c-8.1-0.3-14.1,1.7-19.1,8.1c-1.9,2.4-3.2,4.5-3.2,7.7
			c0.1,44.9,0.3,89.8-0.2,134.7c-0.1,8.7,1.8,15.3,8.8,20.1c1.8,1.3,4.2,2.6,6.4,2.6c19.8,0.2,39.7,0.1,59.5,0.1c1.3,0,2.5,0,4,0
			C737.3,454.9,737.3,397.5,737.3,339.5z M611.8,512.4c10.8,0.3,21.8,3,28.5-8.3c1.3-2.1,2.6-4.5,2.6-6.8
			c0.2-47.5,0.1-95.1,0.1-142.6c0-4-8.4-14.9-12.2-15.1c-6.3-0.4-12.6-0.1-19.1-0.1C611.8,397.4,611.8,454.8,611.8,512.4z
			 M296.8,623.1c0,7.6,0,14.7,0,21.7c0,15.4,9.9,25.3,25.1,25.3c29.3,0,58.7,0,88,0c1.4,0,2.8-0.1,4.7-0.2
			c-10.2-15.8-10.1-31.1,0-46.8C375.1,623.1,336.2,623.1,296.8,623.1z M478,670c32.6,0,64.4,0.2,96.1-0.1
			c10.8-0.1,20.5-9.2,21.4-20.2c0.8-8.7,0.2-17.6,0.2-26.4c-39.2,0-78.2,0-117.5,0C488.2,638.9,488.1,654.1,478,670z M469.9,646.5
			c0-13.1-10.7-23.7-23.8-23.6c-12.9,0.1-23.4,10.7-23.4,23.6c0,13.1,10.7,23.7,23.8,23.6C459.4,670,469.9,659.3,469.9,646.5z"/>
		<path class="st0" d="M439.6,690.7c-39,0-77.9,0-116.9,0c-27.8,0-46.6-18.7-46.6-46.5c0-129.7,0-259.4,0-389.1
			c0-27.8,18.7-46.5,46.6-46.5c82.3,0,164.6,0,246.9,0c28,0,46.8,18.8,46.9,46.7l0,44.6l0,18.9c0.4,0,0.7,0,1.1,0
			c4.4,0.1,8.5,0.1,12.5-0.1c7.6-0.5,13.5,2,18,7.6c0.9,1.1,1.9,2.2,3.1,3.6c1.7-2.3,3.5-4.4,5.6-6.3c2.5-2.2,6.8-4.6,11.4-4.6
			c22.4-0.2,45.2-0.2,67.2-0.1l8.6,0c9.1,0,14.2,5.1,14.2,14.3c0,62,0,124,0,185.9c0,9.2-5.1,14.2-14.2,14.2l-8.8,0
			c-22,0-44.7,0.1-67-0.2c-4.9-0.1-9.4-3.2-11.1-4.5c-2.2-1.8-4.1-3.8-6-5.9c-2,2.2-4,4.3-6.3,6.1c-3.1,2.4-7,4-10.6,4.2
			c-5.3,0.3-10.4,0.3-15.9,0.2c-0.6,0-1.1,0-1.7,0l0,31.4c0,26.6,0,53.2,0,79.8c0,27.2-18.9,46.2-45.9,46.2
			C526.9,690.7,483.3,690.7,439.6,690.7z M459.9,218.5c-45.7,0-91.4,0-137.1,0c-22.3,0-36.8,14.4-36.8,36.6c0,129.7,0,259.4,0,389.1
			c0,22.3,14.4,36.7,36.7,36.7c82.6,0,165.3,0,247.9,0c21.6,0,36.1-14.6,36.1-36.3c0-26.6,0-53.2,0-79.8l0-41.3h4.9
			c2.3,0,4.5,0,6.7,0c5.3,0.1,10.3,0.1,15.2-0.2c1.5-0.1,3.5-0.9,5-2.1c2-1.6,3.7-3.5,5.8-5.8c1-1.1,2-2.2,3.1-3.3l3.6-3.7l3.6,3.8
			c1.1,1.1,2.1,2.3,3,3.3c1.9,2.2,3.6,4.1,5.5,5.5c1.8,1.4,3.9,2.4,5.2,2.4c22.3,0.2,45,0.2,66.9,0.2l8.8,0c3.7,0,4.4-0.7,4.4-4.4
			c0-62,0-124,0-185.9c0-3.8-0.7-4.4-4.3-4.5l-8.6,0c-22,0-44.8-0.1-67.1,0.1c-1.4,0-3.6,1-5,2.2c-1.8,1.6-3.3,3.6-5.2,6
			c-0.9,1.2-1.8,2.4-2.8,3.6l-3.6,4.5l-3.9-4.3c-1.2-1.3-2.2-2.4-3.1-3.3c-1.8-1.9-3.2-3.4-4.5-5.1c-2.4-3.1-5.2-4.2-9.6-3.9
			c-4.5,0.3-9,0.2-13.3,0.2c-1.9,0-3.9-0.1-5.8-0.1h-4.9l0-73.3c0-22.4-14.5-36.9-37-36.9C533.1,218.5,496.5,218.5,459.9,218.5z
			 M532.6,675c-8.9,0-17.9,0-27.1,0c-9.1,0-18.3,0-27.5,0h-9l4.9-7.6c9.1-14.3,9.2-27.4,0.2-41.4l-4.9-7.6h131.4v4.9
			c0,2.7,0.1,5.4,0.1,8.1c0.1,6.1,0.3,12.5-0.3,18.8c-1.2,13.5-13,24.5-26.3,24.7C560.2,675,546.5,675,532.6,675z M486.3,665.1
			c6.4,0,12.8,0,19.2,0c23.6,0,45.8,0.1,68.6-0.1c8.2-0.1,15.8-7.3,16.6-15.7c0.5-5.8,0.4-11.6,0.3-17.7c0-1.1,0-2.2-0.1-3.4H486.4
			C491.9,640.4,491.9,652.8,486.3,665.1z M357.9,675c-12,0-24,0-35.9,0c-17.9,0-30-12.1-30.1-30.2c0-4.8,0-9.6,0-14.6l0-12h131.7
			l-4.9,7.6c-9.1,14.1-9.1,27.3,0,41.4l4.6,7.2l-10.2,0.5c-1.2,0.1-2.2,0.1-3.2,0.1C392.6,675,375.2,675,357.9,675z M301.7,628
			l0,2.2c0,5,0,9.8,0,14.6c0,12.7,7.6,20.4,20.2,20.4c28.2,0,56.3,0,84.4,0c-5.7-12.4-5.7-24.8-0.1-37.1H301.7z M446.4,675
			c-7.6,0-14.8-2.9-20.2-8.3c-5.4-5.4-8.4-12.6-8.4-20.2c0-15.6,12.7-28.4,28.3-28.5c0.1,0,0.1,0,0.2,0c7.6,0,14.8,2.9,20.2,8.3
			c5.4,5.4,8.4,12.6,8.4,20.2l0,0c0,15.6-12.7,28.4-28.3,28.5C446.5,675,446.5,675,446.4,675z M446.2,627.8c0,0-0.1,0-0.1,0
			c-10.2,0.1-18.5,8.4-18.5,18.7c0,5,2,9.7,5.5,13.3c3.6,3.5,8.2,5.5,13.4,5.4c10.2-0.1,18.5-8.4,18.5-18.7l0,0c0-5-2-9.7-5.5-13.3
			C455.9,629.7,451.2,627.8,446.2,627.8z M600.4,611.7H292.1v-87.9h308.3V611.7z M301.9,601.8h288.6v-68.3H301.9V601.8z
			 M622.7,517.8c-2.2,0-4.3-0.1-6.3-0.2c-1.6-0.1-3.2-0.2-4.7-0.2l-4.8-0.1V334.6h4.9c1.9,0,3.8,0,5.7,0c4.5-0.1,9.1-0.1,13.7,0.2
			c7,0.4,16.8,14.2,16.8,20l0,19.9c0,40.9,0,81.8-0.1,122.7c0,3.5-1.7,6.7-3.4,9.3C638.8,516.2,630.5,517.8,622.7,517.8z
			 M616.7,507.7c0.1,0,0.2,0,0.3,0c9.5,0.6,15.1,0.6,19.1-6.1c0.5-0.9,1.9-3.2,1.9-4.3c0.1-40.9,0.1-81.8,0.1-122.7l0-19.9
			c-0.4-2.2-5.6-9-8-10.2c-4.1-0.2-8.3-0.2-12.6-0.1c-0.3,0-0.6,0-0.9,0V507.7z M630,344.4L630,344.4L630,344.4z M706.7,517.6
			c-10.9,0-22,0-33-0.1c-2.8,0-5.9-1.2-9.1-3.5c-9.8-6.9-11-16.5-10.9-24.2c0.4-37.8,0.3-76.3,0.2-113.4l-0.1-21.2
			c0-5,2.2-8.2,4.2-10.8c5.8-7.3,12.9-10.3,23.1-9.9c12,0.5,24.2,0.4,36,0.3c4.9,0,9.9-0.1,14.8-0.1c0,0,0.1,0,0.1,0h10.1v183
			l-22.3,0C715.5,517.6,711.1,517.6,706.7,517.6z M679.4,344.2c-6.2,0-10.1,1.8-13.6,6.2c-1.7,2.1-2.1,3.1-2.1,4.7l0.1,21.2
			c0.1,37.2,0.2,75.7-0.2,113.6c-0.1,8.1,1.8,12.6,6.7,16c1.9,1.3,3.2,1.7,3.6,1.7c15.4,0.2,31,0.1,46.1,0.1l12.5,0V344.4h-0.2
			c0,0-0.1,0-0.1,0c-4.9,0-9.8,0-14.8,0.1c-11.9,0.1-24.3,0.2-36.5-0.3C680.3,344.2,679.8,344.2,679.4,344.2z M600.4,517.4H292.2
			V335h308.3V517.4z M302,507.5h288.6V344.8H302V507.5z M600.5,328.4H292.3v-56.5h308.3V328.4z M302.1,318.6h288.6v-36.8H302.1
			V318.6z M599.8,265.4h-307l-0.5-4.4c-2.1-19.1,6.3-32.6,22.5-36c2.8-0.6,5.7-0.6,8.2-0.6h0.6c22.6,0,45.2,0,67.8,0
			c57.7,0.1,117.3,0.1,176-0.3c10.8,0,20.4,3.7,26.4,10.5c5.8,6.7,8.1,15.8,6.7,26.4L599.8,265.4z M301.8,255.5H591
			c0.1-5.9-1.5-10.7-4.7-14.3c-4.1-4.6-10.7-7.2-18.7-7.2c-0.1,0-0.2,0-0.3,0c-58.7,0.4-118.4,0.4-176.1,0.3c-22.6,0-45.2,0-67.8,0
			H323c-2.3,0-4.4,0-6.2,0.4C304.3,237.2,301.8,247.5,301.8,255.5z"/>
	</g>
	<path class="st2" d="M737.3,339.5c0,58,0,115.4,0,173.1c-1.5,0-2.8,0-4,0c-19.8,0-39.7,0.1-59.5-0.1c-2.1,0-4.5-1.3-6.4-2.6
		c-7-4.9-8.9-11.4-8.8-20.1c0.5-44.9,0.3-89.8,0.2-134.7c0-3.2,1.2-5.3,3.2-7.7c5-6.3,11-8.4,19.1-8.1c17,0.7,34.1,0.2,51.1,0.2
		C733.7,339.5,735.3,339.5,737.3,339.5z M674.8,417.9c15.8,0,31.3,0,46.6,0c0-10.6,0-20.8,0-30.9c-15.7,0-31.1,0-46.6,0
		C674.8,397.3,674.8,407.4,674.8,417.9z M674.8,370.7c15.9,0,31.2,0,46.7,0c0-5.2,0-10.2,0-15.2c-15.7,0-31.2,0-46.7,0
		C674.8,360.7,674.8,365.6,674.8,370.7z M674.8,449.3c15.9,0,31.4,0,46.8,0c0-5.2,0-10.1,0-15.1c-15.7,0-31.1,0-46.8,0
		C674.8,439.3,674.8,444.2,674.8,449.3z M674.9,457.7c0,5.5,0,10.4,0,15.3c15.7,0,31,0,46.5,0c0-5.2,0-10.2,0-15.3
		C705.8,457.7,690.5,457.7,674.9,457.7z M721.6,481.5c-15.8,0-31.3,0-46.6,0c0,5.3,0,10.3,0,15.2c15.7,0,31.1,0,46.6,0
		C721.6,491.6,721.6,486.7,721.6,481.5z"/>
	<path class="st2" d="M611.8,512.4c0-57.7,0-115,0-172.9c6.4,0,12.8-0.3,19.1,0.1c3.8,0.2,12.2,11.1,12.2,15.1
		c0,47.5,0,95.1-0.1,142.6c0,2.3-1.4,4.7-2.6,6.8C633.5,515.4,622.6,512.7,611.8,512.4z"/>
	<path class="st1" d="M407.2,560.1c5.1,0,9.9,0,15.1,0c0,5,0,10,0,15.2c-5,0-9.9,0-15.1,0C407.2,570.3,407.2,565.5,407.2,560.1z"/>
	<path class="st1" d="M438.6,575.2c0-5.1,0-9.9,0-15c5,0,10,0,15.3,0c0,4.9,0,9.8,0,15C448.7,575.2,443.7,575.2,438.6,575.2z"/>
	<path class="st1" d="M470.2,560.1c5.1,0,9.9,0,15.1,0c0,5,0,9.9,0,15.2c-4.9,0-9.9,0-15.1,0C470.2,570.4,470.2,565.5,470.2,560.1z"
		/>
	<path class="st1" d="M674.8,417.9c0-10.4,0-20.5,0-30.9c15.6,0,30.9,0,46.6,0c0,10.1,0,20.3,0,30.9
		C706.1,417.9,690.6,417.9,674.8,417.9z"/>
	<path class="st1" d="M674.8,370.7c0-5.2,0-10,0-15.2c15.5,0,31,0,46.7,0c0,5,0,10,0,15.2C706,370.7,690.6,370.7,674.8,370.7z"/>
	<path class="st1" d="M674.8,449.3c0-5.1,0-10,0-15.1c15.6,0,31.1,0,46.8,0c0,5,0,9.9,0,15.1C706.1,449.3,690.7,449.3,674.8,449.3z"
		/>
	<path class="st1" d="M674.9,457.7c15.6,0,30.9,0,46.5,0c0,5.1,0,10.1,0,15.3c-15.5,0-30.8,0-46.5,0
		C674.9,468.2,674.9,463.2,674.9,457.7z"/>
	<path class="st1" d="M721.6,481.5c0,5.2,0,10.1,0,15.2c-15.6,0-30.9,0-46.6,0c0-4.9,0-9.8,0-15.2
		C690.3,481.5,705.7,481.5,721.6,481.5z"/>
	<path class="st2" d="M564.4,449.8c-0.1,17.4-14.2,31.4-31.7,31.3c-17.3-0.1-31.4-14.4-31.2-31.9c0.1-17.1,14.3-31.1,31.5-31.1
		C550.4,418.2,564.4,432.4,564.4,449.8z M520.8,440.7c-2.4,1.9-5.7,3.2-6.5,5.4c-0.9,2.4-0.4,6.1,0.9,8.5c1.7,3,4.9,5.2,7.4,7.8
		c3.5,3.6,7.3,4,11.5,1.2c7.2-4.8,14.5-9.6,21.6-14.5c4.8-3.3,5.9-7.7,3.1-11.7c-2.7-3.8-7-4.5-11.7-1.5c-4.8,3.1-9.6,6.2-14.3,9.6
		c-2.1,1.5-3.5,1.5-5.4-0.4C525.9,443.5,523.6,442.5,520.8,440.7z"/>
	<g>
		<g>
			<g>
				<path class="st1" d="M523.9,372.9c1.6,3.5,0.9,6.3-2.9,9.6c-7.4,6.5-10.9,8.7-34.5,19.6c-25.8,11.9-53.8,21.9-68.3,28.6l-17,7.8
					c-13.9,6.5-28.6,9.3-44.5,11c-12.2,1.3-31,0.4-31,0.4c-1.4,0-2.7-0.7-3.6-1.9l0,0c-1.6-2.3-0.9-5.4,1.4-6.6l10.6-4.9l-20.8-15.2
					c-1.2-0.9-1.1-2.8,0.2-3.4l8.4-1.9c0.4-0.2,0.8-0.2,1.2-0.1l37.3,8.4l117.1-54.1c9.4-4.4,18.8-4.3,29.2-3
					c3.2,0.4,8.1,0.4,12.1,1.5C521,369.5,522.8,370.4,523.9,372.9z"/>
			</g>
			<g>
				<path class="st1" d="M446.4,394.1L409,406.9c-3.9,1.3-8.1,1.5-11.7,0.3l-81.5-26.3c-1.8-1-1.1-3.3,1.1-4.1l21.5-3.8
					c0.7-0.3,1.5-0.2,2.1-0.1l106.2,17C449,390.5,448.9,393.3,446.4,394.1z"/>
			</g>
		</g>
	</g>
	<g>
		<g>
			<ellipse id="XMLID_941_" class="st2" cx="529.3" cy="447.5" rx="38" ry="38"/>
			<path class="st1" d="M529.3,492.2c-24.6,0-44.7-20.1-44.7-44.7s20-44.7,44.7-44.7c24.6,0,44.7,20,44.7,44.7
				S553.9,492.2,529.3,492.2z M529.3,416.2c-17.3,0-31.3,14-31.3,31.3c0,17.3,14,31.3,31.3,31.3c17.3,0,31.3-14,31.3-31.3
				C560.6,430.2,546.6,416.2,529.3,416.2z"/>
		</g>
		<g>
			<path id="XMLID_938_" class="st1" d="M521.9,465.9c-1.9,0-3.7-0.8-5.1-2.3l-11.5-13.5c-2.4-2.8-2.1-7,0.7-9.4
				c2.8-2.4,7-2.1,9.4,0.7l7.4,8.6l19.5-15.4c2.9-2.3,7.1-1.8,9.4,1.1c2.3,2.9,1.8,7.1-1.1,9.4l-24.6,19.3
				C524.8,465.4,523.4,465.9,521.9,465.9z"/>
		</g>
	</g>
</g>
</svg>
