<?xml version="1.0" encoding="utf-8"?>
<!-- Generator: Adobe Illustrator 23.1.0, SVG Export Plug-In . SVG Version: 6.00 Build 0)  -->
<svg version="1.1" id="Layer_1" xmlns="http://www.w3.org/2000/svg" xmlns:xlink="http://www.w3.org/1999/xlink" x="0px" y="0px"
	 viewBox="0 0 909.9 909.9" style="enable-background:new 0 0 909.9 909.9;" xml:space="preserve">
<style type="text/css">
	.st0{fill:#0095DA;}
	.st1{fill:#21409A;}
</style>
<g>
	<g>
		<g>
			<path id="XMLID_193_" class="st0" d="M105.8,726.3c-7.7,0-15.2-3.6-20-10.3C-41.9,535.6-21.1,291.5,135,135.3
				C291.2-20.9,535.4-41.6,715.7,86c11,7.8,13.7,23.1,5.8,34.1c-7.8,11-23.1,13.7-34.1,5.8C526.6,12.2,308.9,30.7,169.7,169.9
				C30.4,309.2,12,526.9,125.8,687.6c7.8,11,5.2,26.3-5.8,34.1C115.6,724.8,110.7,726.3,105.8,726.3z"/>
			<path id="XMLID_192_" class="st1" d="M455.3,907.7c-90.8,0-182.2-27.4-261.3-83.4c-11-7.8-13.7-23.1-5.8-34.1
				c7.8-11,23.1-13.7,34.1-5.8c160.7,113.8,378.5,95.3,517.7-43.9c139.2-139.2,157.7-357,43.9-517.7c-7.8-11-5.2-26.3,5.8-34.1
				c11-7.8,26.3-5.2,34.1,5.8C951.6,374.6,930.9,618.8,774.7,775C687.1,862.7,571.6,907.7,455.3,907.7z"/>
		</g>
	</g>
	<g>
		<path id="XMLID_124_" class="st0" d="M738.7,470.8c-5.8-4.6-11.6-0.9-13.9,1.7c-26.1,24.4-44.8,33.4-54.8,38.2
			c-8.1,3.9-13.5,6.5-10.6,13.4c0.8,1.9,2.3,3.4,4.2,4.2c1.9,0.8,4.1,0.8,6,0c12.9-5.4,26.5-13.2,40.4-23.3
			c10.2-7.4,18.4-14.5,23.1-18.8c53.6,42.9,55.5,81.2,56.5,101.9c0.5,9.9,0.9,17.7,8.7,17.7c4.3,0,7.8-3.5,7.8-7.8
			C806,545.9,785.2,506.7,738.7,470.8z"/>
		<path id="XMLID_123_" class="st0" d="M729.5,511.1c0,0-0.1,0-0.1,0h0c-21.7,0.1-39.3,17.8-39.2,39.6l0.2,47.4
			c0,2.9,1.4,5.4,3.7,6.7c1.2,0.7,2.6,1.1,4,1.1c1.4,0,2.9-0.4,4.1-1.1c2.4-1.4,3.7-3.8,3.7-6.7l-0.2-47.4
			c-0.1-13.1,10.6-23.8,23.7-23.9c0,0,0.1,0,0.1,0c6.3,0,12.3,2.4,16.8,6.9c4.5,4.5,7,10.4,7,16.8l0.2,47.4c0,4.3,3.5,7.8,7.8,7.8
			h0.5l0.1-0.1c4.3-0.6,7.1-3.6,7.1-7.8l-0.2-47.4C768.9,528.7,751.2,511.1,729.5,511.1z"/>
		<path id="XMLID_122_" class="st0" d="M656.1,546.7c0-11.9-7.9-18.3-15.7-19.4c-4.4-0.6-9.5,0.3-13.5,3.3c0.5-2,1.1-3.9,1.6-5.6
			c3-10.4,5.4-18.6-1.2-27c-3.9-5-11.5-8.5-16.8-7.7c-3.1,0.5-5.3,2.2-6.3,5c-6.4,17.5-10.4,27.8-12.7,34
			c-3.9,10.1-3.9,10.1-3.4,12.5c4.3,18.3,6.4,31,7.9,39.5c2.5,14.5,3.3,19.4,10.3,19.4h0c0,0,0,0,0,0c2.1,0,4-0.8,5.5-2.3
			c1.5-1.5,2.3-3.4,2.3-5.5c0-0.5-0.1-1-0.2-1.5l-10.1-50.5l12-32c0.4,2-0.4,5.4-2.4,12.5c-1.2,4.4-2.7,10-4.2,16.9
			c-0.7,2.7-0.2,3.7,2.7,10.4c1.7,4,4.3,9.9,8.2,19.8c1.4,3.4,5.1,5.4,8.7,4.7c6.8-1.4,6.6-7.6,6.2-14.8c-0.1-3.3-0.3-7.1,0-11.6
			c0-1.4,0.3-2.6,1-3.3c1.4-1.6,4.5-0.9,4.5,3.3c0,3.5,0,6.6,0,9.4c0.1,22.4,0.1,22.8-8.3,31.2c-3.6,3.6-2.7,8.3,0,11
			c1.5,1.5,3.5,2.4,5.6,2.4c1.8,0,3.7-0.7,5.4-2.4c13.1-13.1,13-19.3,12.9-42.3C656.2,553.1,656.1,550,656.1,546.7z"/>
		<path id="XMLID_121_" class="st1" d="M464.1,458.5c-2.3,0-4.4,0.9-5.8,2.5c-1.3,1.4-1.9,3.3-1.9,5.3c0,3.9,2.7,7.8,7.8,7.8
			c2.3,0,4.4-0.9,5.8-2.5c1.3-1.4,1.9-3.3,1.9-5.3C471.8,462.5,469.2,458.5,464.1,458.5z"/>
		<path id="XMLID_120_" class="st1" d="M479.3,461c-1.3,1.4-1.9,3.3-1.9,5.3c0,3.9,2.7,7.8,7.8,7.8c5.1,0,7.8-3.9,7.8-7.8
			c0-3.9-2.7-7.8-7.8-7.8C482.8,458.5,480.7,459.4,479.3,461z"/>
		<path id="XMLID_119_" class="st1" d="M500.4,461c-1.3,1.4-1.9,3.3-1.9,5.3c0,3.9,2.7,7.8,7.8,7.8s7.8-3.9,7.8-7.8
			c0-3.9-2.7-7.8-7.8-7.8C503.9,458.5,501.8,459.4,500.4,461z"/>
		<path id="XMLID_118_" class="st1" d="M561.6,487.4c0,2.3,0.9,4.4,2.5,5.8c1.4,1.3,3.3,1.9,5.3,1.9c3.9,0,7.8-2.7,7.8-7.8
			C577.2,477.2,561.6,477.2,561.6,487.4z"/>
		<path id="XMLID_117_" class="st1" d="M500.9,453.1h47.4c5.1,0,7.8-3.9,7.8-7.8c0-3.9-2.7-7.8-7.8-7.8h-47.4c-4.4,0-8-3.6-8-8
			c0-2.5,0.8-4.5,2.4-5.9c4.1-3.6,13.6-2.4,13.6,5.9c0,4.3,3.5,7.8,7.8,7.8c2.5,0,4.6-1,6-2.8c1.2-1.6,1.8-3.7,1.8-6.2
			c0-9.2-8.4-22.4-23.6-22.4c-13,0-23.6,10.6-23.6,23.6C477.3,442.5,487.9,453.1,500.9,453.1z"/>
		<path id="XMLID_116_" class="st1" d="M548.3,479.6h-47.4c-13,0-23.6,10.6-23.6,23.6c0,13,10.6,23.6,23.6,23.6
			c13,0,23.6-10.6,23.6-23.6c0-10.2-15.6-10.2-15.6,0c0,2.5-0.8,4.5-2.4,5.9c-4.1,3.6-13.6,2.4-13.6-5.9c0-4.4,3.6-8,8-8h47.4
			c5.1,0,7.8-3.9,7.8-7.8C556.1,483.5,553.4,479.6,548.3,479.6z"/>
		<path id="XMLID_115_" class="st1" d="M519.5,466.3c0,3.9,2.7,7.8,7.8,7.8h42.1c5.1,0,7.8-3.9,7.8-7.8c0-3.9-2.7-7.8-7.8-7.8h-42.1
			C522.2,458.5,519.5,462.5,519.5,466.3z"/>
		<path class="st0" d="M591.9,460.2l-9.7,5.3l8.3,7.4c16.1,14.3,36,22.5,57.6,23.8c1.9,0.1,3.8,0.2,5.6,0.2
			c50.2,0,91.9-39.3,95.1-89.4c1.6-25.4-6.8-50-23.7-69.1c-16.9-19.1-40.2-30.5-65.6-32c-24.9-1.5-49.2,6.7-68.2,23.2
			c-19,16.5-30.6,39.3-32.7,64.2c-1.6,19.6,2.8,38.8,12.6,55.7l3.8,6.5l10.6-5.7c2.8-1.5,5.9-3.1,8.8-4.9c1.7-1,3.4-2.1,4.7-2.9
			l0.6-0.4c0.5-0.4,1-0.7,1.5-1.1c1.9-1.5,5.7-3.4,9.2,0.3c0.7,0.7,1.4,2.4,1.2,4.5c-0.1,1.5-0.7,2.7-1.4,3.2
			C604.7,453.1,598.4,456.7,591.9,460.2z M621.9,430.4c-8.1-8.4-20.1-9.2-29.8-2c-0.4,0.3-0.8,0.6-1.3,0.9c-1.1,0.7-2.6,1.7-4.1,2.5
			c-1.8,1-3.6,2.1-5.4,3c-5.7-12.4-8.2-26.1-7-39.9c3.5-42.9,41.3-75.6,84.3-73c21.3,1.3,40.8,10.8,54.9,26.8
			c14.1,16,21.1,36.5,19.8,57.7c-2.7,43.7-40.5,77.1-84.2,74.6c-14.2-0.8-27.7-5.3-39.3-13.1c3.8-2.3,7-4.4,10-6.6
			c4.4-3.2,7.2-8.5,7.7-14.5C627.9,440.7,625.9,434.5,621.9,430.4z"/>
	</g>
	<g id="Thermometer">
		<g id="Outline">
			<path class="st1" d="M494.1,318.7c-49-46.2-50.9-57.7-67.6-57.7c-17.8,0-8.3,1.9-184.5,174.6c-0.9,0.9-1.5,2.1-1.7,3.4
				c-18.5,129.4-150.7,166-117,199.8c34.1,34.1,69.4-98.4,199.8-117c3.8-0.5-7.1,8.2,171-169.3C503.4,343.2,503.4,328,494.1,318.7
				C494.1,318.7,494.1,318.7,494.1,318.7L494.1,318.7z M131.8,630.3c-6.2-6.2,2.1-9.7,46.6-55l8.4,8.4
				C142.6,627.2,138.2,636.7,131.8,630.3L131.8,630.3z M464.5,365.2L436,336.7c-5.6-5.6-14,2.9-8.4,8.4l28.5,28.5L319.4,510.2
				c-79.3,12.1-121.3,62.9-124.2,65l-8.4-8.4c1.9-2.6,53-45.4,65-124.2L388.5,306c9.7,9,10.8,12.5,14.9,12.5c1.6,0,3.1-0.6,4.2-1.7
				c6.5-6.5-6-13-10.7-19.2c38.4-35.8,18.1-38.8,88.7,29.6c2.2,2.2,3.5,5.3,3.5,8.4C489.1,343.9,482.6,345.7,464.5,365.2z"/>
			<path class="st1" d="M350.5,360.9L266,445.4c-2.3,2.3-2.3,6.1,0,8.4l42.2,42.3c2.3,2.3,6.1,2.3,8.4,0c0,0,0,0,0,0l84.6-84.6
				c2.3-2.3,2.3-6.1,0-8.4C360.6,363.4,356.7,354.7,350.5,360.9L350.5,360.9z M312.4,483.5l-33.7-33.9l76.1-76.1l33.8,33.8
				L312.4,483.5z"/>
			<path id="XMLID_184_" class="st0" d="M299.8,445.4c-2.3,2.3-2.3,6.1,0,8.4c7.5,6.9,8.6,10.2,12.7,10.2c3.3,0,6-2.7,6-6
				c0-1.6-0.6-3.1-1.7-4.2C312.4,450.8,306.1,439.1,299.8,445.4L299.8,445.4z"/>
			<path id="XMLID_183_" class="st0" d="M316.7,428.5c-2.3,2.3-2.3,6.1,0,8.4l0,0c7.5,6.9,8.6,10.2,12.7,10.2c3.3,0,6-2.7,6-6
				c0-1.6-0.6-3.1-1.7-4.2C329.3,433.9,323,422.2,316.7,428.5L316.7,428.5z"/>
			<path id="XMLID_182_" class="st0" d="M342,411.6c-5.6-5.6-14,2.9-8.4,8.4c7.5,6.9,8.6,10.2,12.7,10.2c1.6,0,3.1-0.6,4.2-1.8
				C356.7,422.2,345.3,416.1,342,411.6L342,411.6z"/>
			<path id="XMLID_181_" class="st0" d="M358.9,411.6c2.3,2.3,6.1,2.3,8.4,0l0,0c6.3-6.3-5.1-12.4-8.4-16.9c-2.3-2.3-6.1-2.3-8.4,0
				C344.2,401,355.6,407.2,358.9,411.6L358.9,411.6z"/>
			<path id="XMLID_180_" class="st1" d="M375.8,358.5c4.3,0,4.5-2.9,21.1-18.6c5.6-5.6-2.9-14-8.5-8.4l-16.9,16.9
				c-2.3,2.3-2.3,6.1,0,8.5C372.7,357.8,374.2,358.5,375.8,358.5z"/>
			<path id="XMLID_179_" class="st1" d="M392.7,375.4c4.3,0,4.5-2.8,21.1-18.6c5.6-5.6-2.9-14-8.4-8.4l-16.9,16.9
				c-2.3,2.3-2.3,6.1,0,8.5C389.6,374.7,391.1,375.4,392.7,375.4L392.7,375.4z"/>
			<path id="XMLID_178_" class="st1" d="M405.4,382.1c-5.6,5.6,2.9,14,8.4,8.4l16.9-16.9c5.6-5.6-2.9-14-8.4-8.4L405.4,382.1z"/>
			<path id="XMLID_177_" class="st0" d="M309.3,339.3v-23.9c0-7.9-11.9-7.9-11.9,0v23.9C297.3,347.2,309.3,347.2,309.3,339.3z"/>
			<path id="XMLID_176_" class="st0" d="M285.4,375.1v-23.9c0-7.9-11.9-7.9-11.9,0v23.9C273.4,383,285.4,383,285.4,375.1z"/>
			<path id="XMLID_175_" class="st0" d="M285.4,327.3v-35.8c0-7.9-11.9-7.9-11.9,0v35.8C273.4,335.2,285.4,335.3,285.4,327.3z"/>
			<path id="XMLID_172_" class="st0" d="M261.5,399v-71.7c0-7.9-11.9-7.9-11.9,0V399C249.5,406.9,261.5,406.9,261.5,399z"/>
			<path id="XMLID_171_" class="st0" d="M309.3,267.6c0-7.9-11.9-7.9-11.9,0C297.3,275.5,309.3,275.5,309.3,267.6z"/>
			<path id="XMLID_170_" class="st0" d="M285.4,267.6c0-7.9-11.9-7.9-11.9,0C273.4,275.5,285.4,275.5,285.4,267.6z"/>
			<path id="XMLID_169_" class="st0" d="M309.3,291.5c0-7.9-11.9-7.9-11.9,0C297.3,299.4,309.3,299.4,309.3,291.5z"/>
			<path id="XMLID_168_" class="st1" d="M422.8,327.3c0-7.9-11.9-7.9-11.9,0C410.9,335.2,422.8,335.3,422.8,327.3z"/>
			<path id="XMLID_167_" class="st0" d="M261.5,279.5c0-7.9-11.9-7.9-11.9,0C249.5,287.4,261.5,287.5,261.5,279.5z"/>
			<path id="XMLID_166_" class="st0" d="M255.5,309.4c7.9,0,7.9-11.9,0-11.9C247.6,297.5,247.6,309.4,255.5,309.4z"/>
		</g>
	</g>
</g>
</svg>
