<?xml version="1.0" encoding="utf-8"?>
<!-- Generator: Adobe Illustrator 23.1.0, SVG Export Plug-In . SVG Version: 6.00 Build 0)  -->
<svg version="1.1" id="Layer_1" xmlns="http://www.w3.org/2000/svg" xmlns:xlink="http://www.w3.org/1999/xlink" x="0px" y="0px"
	 viewBox="0 0 909.9 909.9" style="enable-background:new 0 0 909.9 909.9;" xml:space="preserve">
<style type="text/css">
	.st0{fill:#0095DA;}
	.st1{fill:#21409A;}
</style>
<g>
	<g id="XMLID_461_">
		<g id="XMLID_462_">
			<g id="XMLID_465_">
				<path id="XMLID_466_" class="st0" d="M105.9,726.1c-7.7,0-15.2-3.6-20-10.4C-41.8,535.5-21,291.3,135.1,135.1
					S535.5-41.8,715.7,85.8c11.1,7.9,13.7,23.1,5.8,34.2s-23.1,13.7-34.2,5.8C526.7,12,309,30.5,169.8,169.8
					C30.5,309,12,526.7,125.9,687.4c7.9,11.1,5.2,26.3-5.8,34.2C115.7,724.6,110.8,726.1,105.9,726.1z"/>
			</g>
			<g id="XMLID_463_">
				<path id="XMLID_464_" class="st1" d="M455.4,907.5c-90.9,0-182.1-27.4-261.2-83.4c-11.1-7.9-13.7-23.1-5.8-34.2
					c7.9-11.1,23.1-13.7,34.2-5.8c160.7,113.7,378.4,95.3,517.7-43.9c139.2-139.2,157.7-357,43.9-517.8c-7.9-11.1-5.2-26.3,5.8-34.2
					c11.1-7.9,26.3-5.2,34.2,5.8C951.8,374.3,931,618.5,774.9,774.7C687.1,862.5,571.7,907.5,455.4,907.5z"/>
			</g>
		</g>
	</g>
	<g id="Page-1_1_">
		<g id="XMLID_452_">
			<g>
				<path id="XMLID_453_" class="st0" d="M213.8,541.1c22.4,2.8,45,4.1,67.6,4.1c23.8,0,42.2-1,67.6-4.1c1.8-0.2,3.4-1.2,4.1-2.6
					s0.4-2.9-0.8-4.1c-1.2-1.1-3-1.7-4.8-1.5c-43.8,5.4-88.3,5.4-132.1,0c-2.8-0.3-5.4,1.2-5.8,3.4
					C209.2,538.6,211,540.7,213.8,541.1z"/>
				<path class="st0" d="M281.9,548.5c-0.3,0-0.6,0-0.8,0c-22.6,0-45.4-1.4-67.7-4.2l0,0c-2.4-0.3-4.5-1.5-5.8-3.3
					c-1.1-1.5-1.5-3.4-1.2-5.2c0.8-3.9,4.9-6.6,9.4-6.1c43.6,5.4,87.8,5.4,131.3,0c2.8-0.4,5.6,0.5,7.5,2.4c2.2,2.1,2.7,5.2,1.4,7.9
					c-1.2,2.4-3.7,4-6.6,4.4C325,547.3,306.6,548.5,281.9,548.5z M281.4,541.9c0.2,0,0.3,0,0.5,0c24.4,0,42.5-1.1,66.7-4.1
					c0.9-0.1,1.4-0.5,1.5-0.8c0,0,0.1-0.1-0.2-0.3c-0.4-0.4-1.2-0.7-2.1-0.5c-44.1,5.4-88.8,5.4-132.9,0c-1.2-0.2-2.1,0.5-2.2,0.8
					c0,0.1,0.4,0.7,1.4,0.8C236.4,540.5,259.2,542,281.4,541.9z"/>
			</g>
			<g>
				<path id="XMLID_451_" class="st0" d="M346.1,586.7c-40.8,15.9-88.5,15.9-129.2,0c-1.7-0.8-3.7-0.7-5.3,0.1
					c-1.6,0.8-2.5,2.3-2.3,3.8s1.4,2.8,3.2,3.4c43.6,17,94.5,17,138.1,0c1.8-0.6,3-1.9,3.2-3.4c0.2-1.5-0.7-3-2.3-3.8
					C349.8,586,347.7,585.9,346.1,586.7L346.1,586.7z"/>
				<path class="st0" d="M281.5,610.2c-24,0-47.9-4.4-70.3-13.1c-2.8-0.9-4.9-3.2-5.3-6.1c-0.4-2.9,1.2-5.7,4-7.2
					c2.5-1.3,5.6-1.4,8.2-0.2c39.5,15.4,86.9,15.4,126.6,0c2.6-1.1,5.7-1,8.1,0.3c2.8,1.5,4.4,4.3,4,7.2c-0.3,2.8-2.4,5.2-5.5,6.1
					C329.3,605.9,305.4,610.2,281.5,610.2z M214.3,589.5c-0.5,0-0.9,0.1-1.3,0.3c-0.4,0.2-0.6,0.5-0.6,0.5c0,0.1,0.3,0.5,0.9,0.7
					c42.7,16.7,93.4,16.7,135.9,0.1c0.9-0.3,1.1-0.7,1.1-0.8c0-0.1-0.1-0.3-0.6-0.5c-0.7-0.4-1.7-0.4-2.5-0.1l-0.1,0.1
					c-41.8,16.3-89.8,16.3-131.6,0C215.2,589.6,214.7,589.5,214.3,589.5z"/>
			</g>
			<g>
				<path id="XMLID_444_" class="st0" d="M415.1,504.1h-26.7c-2.2-4.9-8-8.2-14.5-8.2h-7.8c-19.1-0.2-37.1-7.3-48.9-19.2
					c-8.8-8.6-22-13.6-35.9-13.6c-13.9,0-27.1,5-35.9,13.6c-11.9,12-29.8,19-48.9,19.2h-7.8c-6.5,0-12.3,3.3-14.5,8.2h-26.7
					c-11.4,0-20.6,7.4-20.6,16.4v20.5c0,21.6,24.2,41.5,53.6,44.7c14.5,31.7,50.2,54,92.2,57.6c5.6,0.5,11.3,0.5,17,0
					c42-3.6,77.7-26,92.2-57.6c29.4-3.2,53.6-23.1,53.6-44.7v-20.5C435.7,511.5,426.5,504.1,415.1,504.1z M188.9,504.1h7.8
					c22.2-0.2,43.1-8.4,56.9-22.3c6.8-6.7,17.1-10.6,27.9-10.6c10.8,0,21.1,3.9,27.9,10.6c13.8,13.9,34.7,22.1,56.9,22.3h7.8
					c2.8,0,5.1,1.8,5.1,4.1v4.1l-15.4,0h-0.1c-24.5-0.5-47.3-9.8-62.3-25.3c-4.9-4.8-12.2-7.6-19.9-7.6c-7.7,0-15,2.8-19.9,7.6
					c-14.9,15.5-37.8,24.7-62.2,25.2h-0.1l-15.4,0v-4.1C183.8,506,186.1,504.1,188.9,504.1L188.9,504.1z M137.5,541.1v-20.5
					c0-4.5,4.6-8.2,10.3-8.2h25.7v41.1c0,7.9,1.3,15.8,3.8,23.5C156.9,573,137.5,559.1,137.5,541.1z M288.9,635.2
					c-4.9,0.4-9.9,0.4-14.8,0c-39.1-3.4-72.1-24.7-84.5-54.5v0c-3.8-8.8-5.7-18-5.8-27.3v-32.9l15.4,0c27.6-0.4,53.4-10.8,70.3-28.3
					c2.9-2.9,7.3-4.6,11.9-4.6c4.6,0,9,1.7,12,4.5c16.9,17.4,42.7,27.8,70.2,28.3h0.1l15.4,0v32.9c0,9.3-2,18.5-5.7,27.3v0
					C361,610.6,327.9,631.8,288.9,635.2L288.9,635.2z M425.4,541.1c0,18-19.4,31.9-39.8,35.8c2.5-7.7,3.8-15.6,3.8-23.5v-41.1h25.7
					c5.7,0,10.3,3.7,10.3,8.2V541.1z"/>
				<path class="st0" d="M281.5,647.1c-2.9,0-5.9-0.1-8.8-0.4c-42.7-3.7-78.6-25.8-94.1-57.8c-30.3-4.1-54.7-25.2-54.7-47.7v-20.5
					c0-10.9,10.7-19.7,23.8-19.7h24.7c3.2-5,9.5-8.2,16.4-8.2h7.8c18.3-0.2,35.3-6.8,46.6-18.3c9.5-9.3,23.4-14.6,38.2-14.6
					c14.8,0,28.7,5.3,38.2,14.6c11.3,11.4,28.3,18.1,46.6,18.3h7.7c6.9,0,13.2,3.3,16.4,8.2h24.7c13.1,0,23.8,8.8,23.8,19.7v20.5
					c0,22.6-24.4,43.7-54.7,47.7c-15.5,32.1-51.4,54.2-94.1,57.8C287.3,646.9,284.4,647.1,281.5,647.1z M147.8,507.4
					c-9.5,0-17.3,5.9-17.3,13.2v20.5c0,19.8,22.7,38.4,50.6,41.4l1.8,0.2l0.8,1.7c13.9,30.4,49,52.2,89.5,55.7
					c5.4,0.5,11,0.5,16.4,0c40.5-3.5,75.6-25.4,89.5-55.7l0.8-1.7l1.8-0.2c27.9-3.1,50.6-21.7,50.6-41.4v-20.5
					c0-7.3-7.8-13.2-17.3-13.2h-28.8l-0.9-2c-1.6-3.7-6.3-6.2-11.5-6.3h-7.8c-20.1-0.2-38.7-7.6-51.2-20.2
					c-8.2-8-20.4-12.7-33.5-12.7s-25.4,4.6-33.6,12.7c-12.5,12.6-31.1,20-51.2,20.2h-7.8c-5.2,0-9.8,2.5-11.5,6.3l-0.9,2H147.8z
					 M281.4,638.9c-2.6,0-5.1-0.1-7.7-0.3c-40.1-3.5-74.4-25.7-87.2-56.5l-0.3-0.6c-3.8-9-5.7-18.4-5.8-28v-36.1l18.7,0
					c26.8-0.4,51.6-10.4,68-27.3c3.6-3.5,8.8-5.6,14.3-5.6c0,0,0,0,0,0c5.5,0,10.7,2,14.2,5.5c16.4,16.9,41.2,26.9,68,27.4l18.8,0
					v36.1c0,9.6-2,19.1-5.8,28.1l-0.2,0.5c-12.9,30.8-47.1,53-87.3,56.5C286.6,638.7,284,638.9,281.4,638.9z M192.8,580.1
					c12.1,28.3,44,48.6,81.5,51.9c4.7,0.4,9.5,0.4,14.2,0h0c37.5-3.3,69.4-23.6,81.5-51.9v0l0.3-0.7c3.6-8.4,5.5-17.2,5.5-26v-29.6
					l-12.2,0c-28.7-0.5-55.1-11.2-72.7-29.3c-2.2-2.2-5.8-3.5-9.6-3.5c0,0,0,0,0,0c-3.7,0-7.3,1.4-9.6,3.6
					c-17.5,18.1-44,28.8-72.6,29.2l-12.2,0v29.6c0,8.9,1.9,17.6,5.5,26L192.8,580.1z M380.7,581.2l1.7-5.3
					c2.4-7.3,3.7-14.9,3.7-22.5v-44.4h29c7.5,0,13.6,5.2,13.6,11.5v20.5c0,20.3-21.4,35-42.5,39.1L380.7,581.2z M392.7,515.6v37.8
					c0,6.4-0.8,12.8-2.4,19c16.3-4.7,31.8-16.4,31.8-31.3v-20.5c0-2.7-3.2-4.9-7-4.9H392.7z M182.2,581.2l-5.5-1.1
					c-21.1-4.1-42.5-18.8-42.5-39.1v-20.5c0-6.3,6.1-11.5,13.6-11.5h29v44.4c0,7.6,1.2,15.1,3.7,22.5L182.2,581.2z M147.8,515.6
					c-3.8,0-7,2.3-7,4.9v20.5c0,14.9,15.6,26.6,31.8,31.3c-1.6-6.2-2.4-12.6-2.4-19v-37.8H147.8z M180.5,515.6v-7.4
					c0-4.1,3.8-7.4,8.4-7.4h7.8c21.4-0.2,41.3-8,54.6-21.3c7.5-7.4,18.5-11.6,30.2-11.6c11.7,0,22.7,4.2,30.2,11.5
					c13.3,13.4,33.2,21.1,54.6,21.3h7.7c4.6,0,8.4,3.3,8.4,7.4v7.4l-18.7,0c-25.6-0.5-49.1-10.1-64.7-26.3
					c-4.2-4.1-10.6-6.6-17.5-6.6c0,0,0,0,0,0c-6.9,0-13.3,2.4-17.6,6.7c-15.5,16.1-39.1,25.6-64.4,26.2L180.5,515.6z M281.4,476.2
					c8.6,0,16.7,3.1,22.2,8.5c14.5,15,36.3,23.8,60,24.3l12.2,0v-0.8c0-0.2-0.6-0.8-1.9-0.8h-7.8c-23.2-0.2-44.7-8.7-59.2-23.2
					c-6.2-6.1-15.5-9.6-25.6-9.6c-10,0-19.3,3.5-25.6,9.7c-14.4,14.5-36,23-59.2,23.2h-7.8c-1.2,0-1.9,0.7-1.9,0.8v0.8l12.1,0
					c23.7-0.5,45.6-9.3,60-24.2C264.7,479.3,272.8,476.2,281.4,476.2C281.4,476.2,281.4,476.2,281.4,476.2z"/>
			</g>
		</g>
	</g>
	<g id="XMLID_445_">
		<g>
			<path id="XMLID_438_" class="st1" d="M537.2,461.3c0-12.2,9.1-19.5,21-16.8c2.1,0.5,3.2,0.4,3.9-2c2.2-6.9,6.8-11.2,14.2-11.9
				c7.7-0.8,13.1,2.9,16.8,9.4c0.5,0.8,1.4,2,2.2,2.1c4,0.5,6.9-2.3,6.8-6.4c-0.2-10.5-0.6-21.1-0.6-31.6c0-9.3,7.3-16.3,16.6-16.2
				c2.4,0,4.8,0.6,7.4,0.9c0-3.1-0.1-6.1,0-9.1c0.5-11.6,9.7-18.9,20.9-16.4c2.8,0.6,3.8-0.2,4.6-2.8c2.2-6.6,7.1-10.4,14-11
				c7-0.6,12.5,2.3,16.1,8.5c0.6,1.1,1.1,2.1,1.5,2.9c3.9-0.4,7.6-1.5,11.1-1c9.2,1.3,14.2,8,14.6,18.5c0.2,7.4,0.1,14.8,0.2,22.2
				c0,1.6,0.3,3.1,0.5,5.2c1.8-0.6,3.1-1,4.3-1.4c12.6-3.7,25.1,5.6,24.4,18.4c-0.6,10.9-1.8,21.8-2.8,32.7
				c-1.2,14.2-3,28.3-3.6,42.5c-0.7,18.6-6.3,34.8-19.9,48c-1.4,1.3-2.3,3.7-2.4,5.7c-0.3,5.5,0,11-0.2,16.4
				c-0.1,3.1,0.8,5.2,3.3,7.3c7.1,5.9,5.7,16.4-2.6,20.4c-2.1,1-4.7,1.3-7.1,1.3c-19.2,0.1-38.3,0-57.5-0.1c-2.6,0-4.6,0.2-5.6,3.4
				c-3,10.2-8.8,18.7-16,26.5c-1.4,1.5-2.5,3.7-2.6,5.7c-0.3,6.1-0.3,12.3,0,18.5c0.1,1.6,0.9,3.5,2,4.6c4.9,4.7,6.5,9.4,4.5,14.6
				c-2,5.4-6.5,8.1-13.4,8.1c-14,0-27.9,0-41.9-0.1c-10.8,0-21.6,0-32.4-0.1c-5.2,0-8.9-2.7-11.1-7.2c-2.1-4.1-2.2-8.8,1-12
				c4-3.9,4.1-8.3,4-13.1c-0.1-5.2,0.2-10.4-0.1-15.6c-0.1-2.1-1.1-4.5-2.4-6.1c-5.7-6.8-10.2-14.2-13.2-22.6
				c-3.2-9.1-3.4-18.5-3.7-28c-0.4-10.9-0.2-21.9-0.4-32.9c-0.3-18.5-1.1-36.9-1.1-55.4c0-10.9,9.4-18,20.2-16
				c1.2,0.2,2.4,0.5,4.2,0.9C537.2,467,537.2,464.1,537.2,461.3z M606.7,653.4c3.9,0.1,5.4-1,5.3-5.1c-0.3-6.2-0.3-12.3,0.1-18.5
				c0.2-2.3,1.2-5.2,2.9-6.7c12.7-11.4,18.3-25.6,19.3-42.5c1.3-21,3.6-42,5.5-62.9c0.4-4.8,0.8-9.5,1-14.3c0.2-5.9-3.4-9.6-9.2-10
				c-6.6-0.5-10.5,2.4-11.2,8.6c-1.5,14.7-2.3,29.5-4.3,44.1c-0.9,6.2-3.8,12.2-6.7,17.8c-1.3,2.6-4.7,4.5-7.5,5.9
				c-1.1,0.5-3.8-0.6-4.7-1.8c-0.7-1-0.4-4.1,0.5-4.6c8.7-4.9,9.8-13.7,10.6-22c1.7-17.3,2.9-34.6,3.7-52
				c0.4-10.4-0.4-20.8-0.7-31.2c-0.2-5.4-3.7-9.1-8.1-9.1c-5,0-8.1,3.5-8,9.4c0.3,20.4,0.7,40.8,1.1,61.2c0.1,3-0.5,5.8-4,6
				c-3.2,0.2-4.4-2.3-4.6-5.2c-0.1-0.7-0.1-1.4-0.1-2.1c-0.3-20.1-0.5-40.2-0.9-60.4c-0.1-4-0.3-7.9-0.7-11.9
				c-0.4-4.4-3.7-7.2-8-7.1c-4.1,0.1-7.4,3-7.4,7.2c-0.1,13.1,0.2,26.3,0.3,39.4c0.1,11.9,0.3,23.8,0.5,35.7c0,2.5-1.1,4.8-3.7,4.4
				c-1.7-0.3-3.3-2.3-4.4-3.9c-0.6-0.8-0.3-2.4-0.3-3.6c-0.3-18.2-0.5-36.4-0.8-54.6c0-2.2-0.3-4.4-1.1-6.4
				c-1.4-3.6-4.3-5.3-8.1-4.8c-4.2,0.5-6.9,3.2-6.9,7.4c0,9.7,0.2,19.4,0.4,29.2c0.1,4.9,0.2,9.9,0.3,14.8
				c0.2,11.2,0.5,22.4,0.7,33.7c0,1.4,0.1,2.7-0.1,4.1c-0.3,2.6-1.4,4.7-4.3,4.5c-2.8-0.1-3.9-2.1-4-4.8
				c-0.3-11.4-0.5-22.7-0.8-34.1c-0.2-7.2-0.4-14.5-0.7-21.7c-0.2-4.7-3-7.6-7.3-7.9c-4.3-0.3-7.6,2.2-8.6,6.6
				c-0.3,1.3-0.3,2.7-0.3,4.1c0.2,7.8,0.5,15.6,0.6,23.4c0.3,17.8,0.4,35.6,0.9,53.4c0.2,8.6,0.4,17.3,1.5,25.8
				c1.5,11.5,7.2,21.1,14.9,29.6c1.6,1.8,2.8,4.7,2.9,7.1c0.4,6.8,0.3,13.7,0,20.5c-0.1,3.9,1,5.3,5.1,5.2c10-0.2,20,0,30,0
				C587,653.3,596.8,653.1,606.7,653.4z M631.9,485c10.3,0.4,17.6,7.9,17.2,18.1c-0.5,11.9-1.7,23.7-2.7,35.6
				c-0.8,10.1-1.7,20.2-2.6,30.2c-0.2,2.2,0.5,3,2.6,3c17,0,33.9,0,50.9,0.1c2.9,0,3.3-1.7,3.3-4c0-6.6-0.2-13.2,0.2-19.7
				c0.1-2.2,1.1-5,2.7-6.4c12.7-11.4,18.3-25.7,19.5-42.5c1.5-22.5,3.7-45,5.6-67.5c0.3-3.3,0.6-6.5,0.8-9.8c0.3-5.2-3.4-9.3-8.8-10
				c-5.8-0.8-10.4,1.6-11.2,7c-1.3,8.4-1.6,16.9-2.6,25.3c-1,9.1-1.9,18.2-3.6,27.2c-1.3,6.6-4.3,12.9-10.9,16.2
				c-1.6,0.8-4.5,0.9-5.9-0.1c-2.5-1.7-2.2-4.7,0.4-6.1c7.8-4.5,8.9-12.2,9.8-19.7c1.8-14.9,3.5-29.9,4-44.9
				c0.4-14.1-0.7-28.2-1.3-42.2c-0.2-4.1-3.9-7-7.9-6.8c-4.1,0.2-7.4,3-7.5,7.3c-0.1,13.7,0.1,27.4,0.3,41.1
				c0.1,7.5,0.3,15,0.5,22.6c0.1,2.9-0.8,5.4-4.2,5.5c-3.3,0-4.2-2.5-4.3-5.4c-0.2-9.8-0.5-19.7-0.7-29.5
				c-0.3-14.1-0.5-28.2-0.8-42.3c-0.1-5.9-3.2-9.3-8.2-9.3c-4.8,0.1-8.1,3.8-8,9.5c0.4,22.7,0.9,45.4,1.4,68.1c0,1.5,0.1,3,0,4.5
				c-0.2,2.8-1.3,4.9-4.4,4.8c-2.9-0.1-3.8-2.2-3.9-4.8c-0.2-6.3-0.5-12.6-0.7-18.9c-0.3-13.7-0.5-27.4-0.8-41
				c-0.1-5.6-3.3-9.1-8-8.9c-4.9,0.2-8.1,4.1-7.8,9.6c0.1,1.1,0.2,2.2,0.2,3.3c0.3,24.5,0.6,49,0.9,73.5c0,0.7,0,1.4,0,2.1
				c0.1,2.7-0.6,5.2-3.8,5.3c-3.3,0.1-4.4-2.3-4.6-5.2c-0.1-1.4-0.1-2.7-0.1-4.1c-0.3-16.7-0.5-33.4-0.8-50.1
				c-0.1-5.8-3.1-9.2-8.2-9.2c-4.8-0.1-8,3.3-7.9,9c0.1,11.5,0.4,23,0.8,34.5c0.1,1.5,1.2,3.3,2.4,4.4c4.5,4,6.6,8.9,6.5,14.9
				c-0.1,9-0.1,18-0.1,27.1C624.7,485.7,628.3,484.9,631.9,485z M612.6,669.8c1.4,0,3,0.3,4-0.4c1.3-0.9,2.8-2.5,2.9-3.9
				c0.1-1.1-1.6-2.7-2.9-3.4c-1.2-0.6-2.9-0.4-4.4-0.4c-23-0.1-46-0.1-69-0.1c-1.1,0-2.5-0.3-3.2,0.2c-1.4,0.9-3.5,2.5-3.4,3.6
				c0.2,1.5,1.9,3.6,3.4,4c2.6,0.7,5.4,0.3,8.2,0.3c10,0,20,0,30,0.1C589.6,669.7,601.1,669.8,612.6,669.8z M702.3,588.6
				c2.9,0,5.8-0.3,5.7-4.2c-0.1-3.6-2.8-3.9-5.5-3.9c-18.5,0-36.9,0-55.4-0.1c-2.9,0-4.6,0.5-4.6,4c-0.1,3.5,1.6,4.1,4.5,4.1
				c9.3-0.1,18.6,0,27.9,0C684,588.5,693.1,588.6,702.3,588.6z"/>
			<path class="st1" d="M612.6,683.1c-9.7,0-19.3,0-29,0l-20.4,0c-7.8,0-15.6,0-23.3-0.1c-6.8-0.1-12.3-3.6-15.5-9.9
				c-3.3-6.5-2.5-13.3,2-17.7c2.4-2.4,2.6-4.8,2.5-9.5c-0.1-2.2,0-4.4,0-6.5c0-3.1,0.1-6-0.1-8.9c-0.1-1.1-0.6-2.5-1.3-3.3
				c-6.3-7.5-10.9-15.4-14-24.1c-3.3-9.3-3.6-18.7-3.9-27.8l-0.1-1.7c-0.2-6.5-0.2-13.1-0.3-19.5c0-4.5,0-8.9-0.1-13.4
				c-0.1-6.5-0.3-13.1-0.5-19.6c-0.3-11.7-0.6-23.9-0.6-35.8c0-6.5,2.6-12.3,7.4-16.3c4.6-3.8,10.7-5.5,17-4.8l0-2.9
				c0-7.5,2.8-13.8,7.9-17.9c4.8-3.8,11.1-5.2,17.8-4c3.2-8.1,9.4-12.9,17.8-13.7c6.2-0.7,14.9,0.8,21.2,11.2
				c0.1-0.2,0.2-0.6,0.2-1.1c-0.1-3.6-0.2-7.2-0.3-10.7c-0.2-6.9-0.4-13.9-0.4-20.9c0-5.7,2.2-11.1,6.2-15c4-4,9.5-6.2,15.4-6.1
				c0.8,0,1.6,0.1,2.4,0.1c0-1.2,0-2.4,0.1-3.6c0.3-7.2,3.3-13.3,8.4-17.3c4.9-3.8,11.1-5.1,17.6-3.9c3-8.1,9.3-13,18-13.8
				c8.9-0.8,16.2,3,20.8,10.9c0.1,0,0.1,0,0.2,0c2.9-0.5,5.8-0.9,8.9-0.5c11.5,1.6,18.4,10.1,18.8,23.2c0.1,4.6,0.2,9.2,0.2,13.8
				c0,2.4,0,4.8,0,7.2c7.2-1.6,14.9,0,20.6,4.6c5.9,4.7,9.1,11.7,8.7,19.2c-0.4,7.7-1.2,15.4-1.9,22.9c-0.3,3.3-0.6,6.6-0.9,9.9
				c-0.4,4.4-0.8,8.8-1.3,13.2c-1,9.5-1.9,19.4-2.3,29.1c-0.8,21.4-7.8,38.2-21.4,51.3c-0.3,0.3-0.8,1.5-0.9,2.5
				c-0.2,2.9-0.2,5.8-0.1,8.9c0,2.5,0,4.9-0.1,7.4c-0.1,1.5,0.2,2.2,1.6,3.4c4.6,3.9,6.9,9.6,6.2,15.3c-0.7,5.7-4.4,10.7-9.8,13.3
				c-2.5,1.2-5.6,1.8-9.2,1.8c-19.2,0.1-38.3,0-57.5-0.1c-0.4,0-0.7,0-0.9,0c-3,9.9-8.5,19.1-17.1,28.3c-0.7,0.7-1.2,2-1.2,2.6
				c-0.3,5.3-0.3,11,0,18c0,0.3,0.3,1,0.5,1.2c6.4,6.2,8.4,12.9,5.7,19.9c-2.7,7.3-9.1,11.3-18,11.3
				C613.6,683.1,613.1,683.1,612.6,683.1z M541.4,664.3L541.4,664.3L541.4,664.3z M538.1,653.6c-0.4,1.6-0.9,3.2-1.8,4.8
				c0.4-0.3,0.7-0.5,1-0.7c1.2-0.8,2.4-1,3.5-1.1c-0.4-0.3-0.8-0.6-1.2-1C538.9,655,538.4,654.3,538.1,653.6z M614.2,656.8
				c1.2,0,2.6,0.1,4,0.7c-1-1.4-1.7-3-2-4.7c-0.4,1-0.9,2-1.8,2.9c-0.4,0.4-0.9,0.8-1.4,1.1C613.4,656.8,613.8,656.8,614.2,656.8z
				 M606.8,648.4c0.1,0,0.2,0,0.2,0c-0.3-7.3-0.3-13.3,0.1-19c0.2-2.9,1.5-7.3,4.5-10c11.1-9.9,16.7-22.4,17.7-39.1
				c0.9-14.4,2.3-28.9,3.6-42.9c0.6-6.7,1.3-13.4,1.9-20.1c0.4-4.3,0.8-9.3,0.9-14c0.1-3.1-1.4-4.7-4.6-4.9
				c-5.1-0.3-5.7,1.7-5.9,4.2c-0.5,5.1-1,10.3-1.4,15.4c-0.8,9.5-1.6,19.2-3,28.8c-1,7-4.2,13.7-7.2,19.4c-2,3.9-6,6.2-9.7,8
				c-3.7,1.9-8.9-0.7-10.9-3.3c-1.9-2.6-1.3-6.1-1.1-7.2c0.5-2.2,1.5-3.8,3.1-4.7c6.2-3.5,7.3-9.5,8.1-18.2
				c1.7-17,2.9-34.4,3.6-51.7c0.3-7.4,0-15-0.4-22.4c-0.1-2.8-0.2-5.6-0.3-8.5c-0.1-2.6-1.4-4.4-3.2-4.4c0,0,0,0,0,0
				c-1.4,0-1.9,0.5-2.1,0.7c-0.7,0.7-1,2-1,3.7c0.3,20.1,0.7,40.2,1.1,60.3l0,0.8c0.2,9.5-6,10.8-8.7,11c-4.3,0.2-9.1-2.2-9.7-9.7
				c-0.1-0.7-0.1-1.4-0.1-2.1l-0.2-16.9c-0.2-14.6-0.4-29.2-0.6-43.7c-0.1-3.4-0.3-7.2-0.7-11.5c-0.2-2.3-1.7-2.7-3-2.6
				c-0.6,0-2.6,0.2-2.7,2.4c0,10.4,0.1,21.1,0.2,31.4l0.1,8c0.1,5.6,0.1,11.2,0.2,16.7c0.1,6.3,0.2,12.7,0.2,19
				c0,3.1-1.1,5.9-3.1,7.6c-1.7,1.5-4,2.1-6.4,1.7c-3.4-0.6-5.7-3.3-7.6-5.8c-1.5-2-1.4-4.4-1.3-5.8c0-0.2,0-0.5,0-0.7l-0.2-16.3
				c-0.2-12.8-0.4-25.6-0.6-38.3c0-2-0.3-3.6-0.7-4.7c-0.6-1.5-1.3-1.9-2.9-1.7c-2.6,0.3-2.6,1.7-2.6,2.5c0,7.1,0.1,14.4,0.2,21.5
				l0.1,7.6c0.1,4.2,0.2,8.4,0.2,12.6l0.7,35.8c0,1.4,0.1,3.1-0.1,4.7c-0.6,5.6-4.3,9.1-9.4,8.9c-5.2-0.2-8.6-4-8.7-9.6l-0.3-12.1
				c-0.2-7.3-0.3-14.6-0.5-21.9c-0.2-7.2-0.4-14.4-0.7-21.7c-0.1-2.6-1.4-3.1-2.7-3.2c-1.2-0.1-2.9,0.1-3.4,2.7
				c-0.2,0.8-0.2,1.9-0.2,2.9c0.1,3.3,0.2,6.6,0.3,9.9c0.1,4.5,0.3,9,0.3,13.6c0.1,6.8,0.2,13.6,0.3,20.3c0.2,11,0.3,22,0.6,33
				l0,0.5c0.2,8.2,0.4,16.7,1.4,24.7c1.2,9.3,5.7,18.1,13.7,26.9c2.4,2.6,4,6.5,4.2,10.2c0.3,6.1,0.4,12.6,0,21c0,0,0,0.1,0,0.1
				c0,0,0,0,0.1,0c7.2-0.2,14.5-0.1,21.6-0.1c2.8,0,5.7,0,8.5,0c2.8,0,5.7,0,8.5,0C592.5,648.3,599.7,648.3,606.8,648.4L606.8,648.4
				z M644.4,601.3L644.4,601.3L644.4,601.3z M638.3,588.9c-0.3,2-0.7,3.9-1.1,5.7c1.3-1.3,2.8-2,4.3-2.3c-0.6-0.3-1.2-0.7-1.7-1.3
				C639.2,590.4,638.7,589.7,638.3,588.9z M639.7,573.3c-0.1,1.7-0.2,3.4-0.4,5.2c0.8-1,1.9-1.8,3.3-2.3c-0.8-0.4-1.5-0.9-2.1-1.5
				C640.2,574.2,639.9,573.8,639.7,573.3z M702.3,575.6h0.1c1.5,0,2.9,0.2,4,0.5c-0.7-1-1.3-2.2-1.7-3.4c-0.3,0.7-0.8,1.4-1.4,2.1
				C703,575.1,702.6,575.4,702.3,575.6z M648.9,567.1c15.6,0,31.2,0,46.8,0.1l0-3.3c0-5.1-0.1-10.5,0.2-15.8
				c0.2-2.8,1.4-7.1,4.3-9.8c11.1-9.9,16.7-22.3,17.8-39.1c1-15.8,2.5-31.7,3.8-47.2c0.6-6.8,1.2-13.6,1.8-20.4l0.2-2.7
				c0.2-2.3,0.4-4.6,0.5-6.9c0.2-3.1-2.3-4.6-4.6-4.9c-3.4-0.5-5.3,0.5-5.6,2.9c-0.7,4.9-1.2,10-1.6,15c-0.3,3.4-0.6,6.8-1,10.1
				l-0.6,5c-0.8,7.4-1.6,15-3.1,22.5c-1.9,9.4-6.4,16-13.4,19.6c-2.9,1.5-7.8,1.7-10.9-0.4c-2.5-1.7-4-4.5-3.9-7.3
				c0.1-2.9,1.8-5.6,4.5-7.2c5.5-3.1,6.5-8.4,7.4-16.1c1.6-13.8,3.5-29.4,4-44.5c0.3-10.6-0.2-21.6-0.8-32.2
				c-0.2-3.2-0.3-6.5-0.5-9.7c-0.1-1.3-1.6-2.2-2.8-2.1c-0.6,0-2.7,0.3-2.7,2.4c-0.1,12.8,0.1,25.9,0.2,38.5l0,2.5
				c0.1,4.6,0.2,9.2,0.3,13.8c0.1,2.9,0.1,5.8,0.2,8.7c0.1,3.4-0.8,6-2.7,7.9c-1.1,1.2-3.1,2.5-6.4,2.6c-4.3,0-9-2.6-9.2-10.2
				c-0.1-4.3-0.2-8.5-0.3-12.8c-0.1-5.6-0.3-11.2-0.4-16.8c-0.1-7-0.3-14-0.4-20.9c-0.1-7.1-0.3-14.2-0.4-21.4
				c-0.1-4.5-2.3-4.4-3.2-4.4c-0.9,0-1.5,0.3-2,0.8c-0.7,0.8-1.1,2.1-1.1,3.7c0.3,15.8,0.6,31.7,1,47.5l0.4,20.6
				c0,1.6,0.1,3.3,0,4.9c-0.4,7.2-5.4,9.6-9.5,9.4c-4-0.2-8.4-2.8-8.6-9.6l-0.2-6.5c-0.2-4.1-0.3-8.3-0.4-12.4
				c-0.2-7.8-0.3-15.5-0.5-23.3c-0.1-5.9-0.2-11.9-0.3-17.8c0-1.6-0.4-2.9-1.1-3.5c-0.2-0.2-0.7-0.6-1.8-0.6c-0.9,0-1.6,0.3-2.1,0.9
				c-0.7,0.8-1,2-0.9,3.5l0,0.7c0.1,0.9,0.1,1.9,0.1,2.8l0.9,75.5c0.2,7.4-4.3,10.2-8.5,10.4c-2.6,0.1-5.4-0.7-7.3-3.1
				c0,3.8,0,7.5,0,11.3v2.5c2.7-0.4,5.1-0.6,7.6-0.5c6.4,0.2,12.2,2.8,16.2,7.1c3.9,4.2,5.9,10,5.7,16.1c-0.4,8.8-1.2,17.7-1.9,26.3
				c-0.3,3.2-0.6,6.3-0.8,9.5C650.5,548.4,649.7,557.8,648.9,567.1z M568.8,521.1L568.8,521.1L568.8,521.1z M616.7,491.4
				c-0.1,1.9-0.2,3.8-0.3,5.8c1-2.6,2.5-4.7,4.7-6.2c-0.3,0-0.6,0.1-1,0.1L616.7,491.4z M688.8,483.6L688.8,483.6L688.8,483.6z
				 M537.4,475.2c1.6,1.2,2.8,2.9,3.7,4.8c0-1.3,0-2.7-0.1-4.1L537.4,475.2z M561,449.6c1.9,1.4,3.4,3.4,4.4,5.9
				c0,0.1,0.1,0.1,0.1,0.2c0-2.9,0-5.9,0-8.8C564.5,448.2,563.1,449.3,561,449.6z M590.6,444.8c0,0.3,0.1,0.6,0.1,0.9
				c0.2,2.2,0.4,4.3,0.5,6.3c0.6-1.6,1.6-3,2.7-4.2c0.3-0.3,0.6-0.6,0.9-0.8c0,0-0.1,0-0.2,0C593,446.8,591.6,445.8,590.6,444.8z
				 M617.7,401.3c-0.8,0-1.5,0.2-1.9,0.6c-0.6,0.6-1,1.9-1,3.4c0.1,11.8,0.4,23.3,0.8,34.3c0,0,0.4,0.6,0.7,0.9
				c2.3,2,4.1,4.3,5.5,6.8l-0.1-5.6c-0.2-12-0.4-24.1-0.6-36.1C621.1,401.3,619,401.3,617.7,401.3
				C617.8,401.3,617.8,401.3,617.7,401.3z M603.7,444.2c1.3,0.1,2.6,0.3,3.8,0.8c-0.7-1.2-1.3-2.5-1.5-4
				C605.4,442.2,604.6,443.3,603.7,444.2z M656.5,440.6L656.5,440.6L656.5,440.6z M681.2,440.1L681.2,440.1L681.2,440.1z
				 M705.5,411.9c0,1,0,2,0,3c0.6-1.5,1.5-2.8,2.6-3.9L705.5,411.9z M625.6,393.8c1.8,1.3,3.2,3.1,4.1,5.2l-0.1-4.7L625.6,393.8z
				 M649.3,368.3c0.5,0.4,1,0.8,1.5,1.2c1.2,1.2,2.2,2.6,2.9,4.2c0-2.1-0.1-4.2-0.1-6.3c0-0.5,0-1,0-1.5
				C652.5,367.3,651,368,649.3,368.3z M679.5,365.4c0.1,0.5,0.1,1.1,0.1,1.7c0,1.4,0.1,2.7,0.1,4.1c0.8-2.2,2.2-4.1,4.1-5.4
				c-0.2,0-0.4,0-0.6,0.1l-3.3,0.3L679.5,365.4z"/>
		</g>
	</g>
	<g>
		<path id="XMLID_95_" class="st1" d="M522.7,345.4c2.2,0,3.9-1.8,3.9-3.9V266c0-26-21.1-47.3-47.1-47.4v-22.1
			c0-4.2-3.4-7.6-7.6-7.6h-3.5v-13.2l15.5-13.1c2-1.6,3.1-4.1,3.1-6.6v-9.2c0-4.5-3.5-8.3-8-8.6c-17.4-1.4-35-1.2-52.3,0.4
			c-22.9,2.1-45.6,6.9-67.4,14.1c-4.9,1.6-7.4,7.5-5,12.1l1.4,2.8c1.6,3.2,5.1,5.1,8.7,4.7c12.7-1.5,25.5-1.6,38.2-0.5
			c10.2,0.9,20.4,2.6,30.3,5.2v12h-3.5c-4.2,0-7.6,3.4-7.6,7.6v22.1c-26,0.2-47.1,21.4-47.1,47.4v120.9c0,10.8,8.8,19.7,19.7,19.7
			H507c10.8,0,19.7-8.8,19.7-19.7v-27c0-2.2-1.8-3.9-3.9-3.9s-3.9,1.8-3.9,3.9v27c0,6.5-5.3,11.8-11.8,11.8H394.4
			c-6.5,0-11.8-5.3-11.8-11.8V266c0-21.8,17.7-39.6,39.6-39.6h57c21.8,0,39.6,17.7,39.6,39.6v75.5
			C518.7,343.6,520.5,345.4,522.7,345.4L522.7,345.4z M403.3,163.8c-13.2-1.2-26.6-1-39.8,0.6c-0.3,0-0.6-0.1-0.8-0.4l-1.4-2.8
			c-0.2-0.5,0-0.9,0.4-1.1c21.3-7.1,43.4-11.7,65.7-13.8c16.9-1.6,34-1.7,51-0.4c0.4,0,0.7,0.4,0.7,0.8v9.2c0,0.2-0.1,0.4-0.3,0.6
			l-15.9,13.4h-25.6C426.3,166.8,414.8,164.8,403.3,163.8L403.3,163.8z M460.6,177.7v11.1h-19.7v-11.1H460.6z M471.6,218.5h-41.9
			v-21.8h41.9V218.5z M353.1,186.6c-2,0-3.9,1-5,2.7c-6.9,10.3-15.2,24.1-15.2,31.6c0,11.1,9.1,20.2,20.2,20.2s20.2-9.1,20.2-20.2
			c0-7.5-8.2-21.3-15.2-31.6C357,187.6,355.1,186.6,353.1,186.6z M353.1,233.2c-6.8,0-12.3-5.5-12.3-12.3c0-3.8,4.8-13.4,12.3-24.9
			c7.5,11.5,12.3,21.1,12.3,24.9C365.3,227.7,359.8,233.2,353.1,233.2L353.1,233.2z"/>
		<path class="st1" d="M507,411.5H394.4c-13.5,0-24.6-11-24.6-24.6V266c0-27,20.7-49.4,47.1-52.1v-17.5c0-6.4,4.9-11.7,11.1-12.4
			v-3.3c-8.5-2-17.2-3.4-25.8-4.1c-12.3-1.1-24.8-0.9-37.2,0.5c-5.7,0.6-11.1-2.3-13.7-7.4l-1.4-2.8c-1.8-3.5-1.9-7.6-0.4-11.2
			c1.5-3.7,4.5-6.5,8.2-7.7c22.2-7.4,45.3-12.2,68.5-14.4c17.6-1.6,35.5-1.8,53.2-0.4c7,0.6,12.5,6.5,12.5,13.5v9.2
			c0,4-1.8,7.8-4.8,10.4l-13.8,11.6v6.1c6.2,0.7,11.1,6,11.1,12.4v17.5c26.4,2.7,47.1,25.1,47.1,52.1v75.5c0,4.9-4,8.9-8.9,8.9
			c-4.9,0-8.9-4-8.9-8.9V266c0-19.1-15.5-34.6-34.6-34.6h-57c-19.1,0-34.6,15.5-34.6,34.6v120.9c0,3.8,3.1,6.8,6.8,6.8H507
			c3.8,0,6.8-3.1,6.8-6.8v-27c0-4.9,4-8.9,8.9-8.9s8.9,4,8.9,8.9v27C531.5,400.5,520.5,411.5,507,411.5z M434.7,213.6h32v-12h-32
			V213.6z M445.8,183.9h9.9v-1.2h-9.9V183.9z M438.1,164.9h23.2l13-11v-3.4c-15.4-1-31-0.8-46.3,0.6c-14,1.3-27.9,3.6-41.6,7
			c5.8,0,11.6,0.3,17.3,0.8C415.3,159.9,426.8,161.9,438.1,164.9z M475.7,152.7C475.7,152.7,475.7,152.7,475.7,152.7L475.7,152.7z
			 M353.1,246c-13.8,0-25.1-11.3-25.1-25.1c0-2.6,0-10.6,16-34.4c2-3,5.4-4.8,9.1-4.8c3.7,0,7,1.8,9.1,4.8c16,23.8,16,31.7,16,34.4
			C378.2,234.8,366.9,246,353.1,246z M353.1,205.3c-5.2,8.8-7.3,14.1-7.4,15.6c0,4.1,3.3,7.4,7.4,7.4c4.1,0,7.4-3.3,7.4-7.4
			C360.4,219.4,358.3,214,353.1,205.3z"/>
	</g>
	<path id="XMLID_432_" class="st0" d="M487.5,275.7c-10.1-10.1-23.4-15.3-36.9-15.3c-10.3,0-20.7,3.1-29.7,9.4
		c-1.8,1.2-2.2,3.7-1,5.5c1.2,1.8,3.7,2.2,5.5,1c16.5-11.5,38.4-10.4,53.6,2.3l-15.9,15.9c-2.5-1.7-5.4-3-8.5-3.5v-3
		c0-2.2-1.8-3.9-3.9-3.9c-2.2,0-4,1.8-4,3.9v3c-3.1,0.6-5.9,1.8-8.5,3.5l-2.1-2.1c-1.5-1.5-4-1.5-5.6,0c-1.5,1.5-1.5,4,0,5.6
		l2.1,2.1c-1.7,2.5-3,5.4-3.5,8.5h-2.9c-2.2,0-3.9,1.8-3.9,3.9c0,2.2,1.7,4,3.9,4h2.9c0.6,3.1,1.8,6,3.5,8.5l-15.9,15.9
		c-12.3-14.7-13.7-36.1-3.2-52.4c1.2-1.8,0.7-4.3-1.1-5.4c-1.8-1.2-4.3-0.7-5.5,1.1c-6.4,9.9-9.3,21.8-8.1,33.5
		c1.2,11.9,6.5,23.2,15,31.7c4.9,4.9,10.7,8.7,16.9,11.3c6.2,2.6,13,3.9,19.9,3.9c13.9,0,27-5.4,36.8-15.2
		C507.8,329.1,507.8,296,487.5,275.7z M464.7,312.5c0,7.7-6.3,14-14,14c-2.4,0-4.7-0.6-6.7-1.7l19-18.9
		C464.1,307.9,464.7,310.1,464.7,312.5z M450.7,298.6c2.4,0,4.7,0.6,6.7,1.7l-19,19c-1.1-2-1.7-4.3-1.7-6.7
		C436.7,304.9,443,298.6,450.7,298.6z M481.9,343.8c-8.3,8.4-19.4,13-31.2,13c-10.5,0-20.4-3.6-28.3-10.3l15.9-15.9
		c2.5,1.7,5.4,3,8.5,3.5v2.9c0,2.2,1.8,4,4,4c2.2,0,3.9-1.8,3.9-4v-2.9c3.1-0.6,6-1.8,8.5-3.5l2.1,2.1c1.5,1.5,4.1,1.5,5.6,0
		c1.5-1.5,1.5-4,0-5.6l-2.1-2.1c1.7-2.5,3-5.4,3.5-8.5h3c2.2,0,3.9-1.8,3.9-4c0-2.2-1.8-3.9-3.9-3.9h-3c-0.6-3.1-1.8-6-3.5-8.5
		l15.9-15.9C499.1,301.6,498.2,327.5,481.9,343.8z"/>
</g>
</svg>
