<?xml version="1.0" encoding="utf-8"?>
<!-- Generator: Adobe Illustrator 23.0.1, SVG Export Plug-In . SVG Version: 6.00 Build 0)  -->
<svg version="1.1" id="Layer_1" xmlns="http://www.w3.org/2000/svg" xmlns:xlink="http://www.w3.org/1999/xlink" x="0px" y="0px"
	 viewBox="0 0 870.08 870.09" style="enable-background:new 0 0 870.08 870.09;" xml:space="preserve">
<style type="text/css">
	.st0{fill:#21409A;}
	.st1{fill:#0095DA;}
	.st2{fill:#FFFFFF;}
	.st3{fill:none;stroke:#FFFFFF;stroke-width:2;stroke-linecap:round;stroke-linejoin:round;stroke-miterlimit:10;}
	.st4{fill:#1F4396;}
	.st5{fill:#1F4497;}
	.st6{fill:#214099;}
</style>
<g>
	<g>
		<path class="st1" d="M99.44,695.71c-7.38,0-14.65-3.46-19.24-9.94C-42.51,512.45-22.6,277.69,127.54,127.55
			C277.68-22.6,512.44-42.52,685.75,80.21c10.62,7.51,13.13,22.21,5.61,32.82c-7.52,10.62-22.21,13.13-32.82,5.61
			C504.02,9.22,294.71,26.97,160.84,160.85C26.98,294.71,9.23,504.02,118.63,658.56c7.52,10.62,5.01,25.31-5.61,32.82
			C108.89,694.3,104.13,695.71,99.44,695.71z"/>
		<path class="st0" d="M435.47,870.09c-87.33,0-175.14-26.37-251.16-80.2c-10.62-7.51-13.13-22.21-5.61-32.82
			c7.5-10.62,22.21-13.14,32.82-5.61c154.53,109.41,363.85,91.64,497.71-42.21c133.86-133.87,151.61-343.18,42.21-497.71
			c-7.52-10.62-5.01-25.31,5.61-32.82c10.62-7.52,25.31-5,32.82,5.61c122.71,173.31,102.79,408.08-47.35,558.22
			C658.25,826.84,547.26,870.09,435.47,870.09z"/>
	</g>
</g>
<g>
	<g>
		<g>
			<path class="st0" d="M576.58,528.12c-1.17,0-2.34-0.02-3.5-0.04c-6.07-0.11-10.9-5.12-10.78-11.18c0.11-6,5.01-10.79,10.98-10.79
				c0.07,0,0.14,0,0.21,0.01c36.96,0.6,73.31-11.46,89-29.17v-20.24c0-7.19-2.28-13.9-6.24-18.4c-1.79-2.02-3.84-3.62-6.1-4.77
				c-9.56-4.87-32.33-11.22-45.99-12.85c-6.57-0.81-8.87-5.3-13.9-15.14c-1.14-2.24-2.23-4.45-3.03-5.79
				c-2.02-2.12-3.19-5.04-3.01-8.19c0.34-6.06,5.53-10.74,11.59-10.35c6.88,0.38,9.27,5.04,14.02,14.33
				c0.59,1.15,1.38,2.69,2.1,4.06c14.88,2.45,36.42,8.35,48.17,14.33c4.74,2.41,8.99,5.71,12.62,9.83
				c7.58,8.59,11.75,20.29,11.75,32.94v24.12c0,2.36-0.77,4.66-2.18,6.55C664.01,511.96,621.84,528.12,576.58,528.12z
				 M594.52,403.16C594.52,403.16,594.52,403.16,594.52,403.16S594.52,403.16,594.52,403.16z M594.5,403.16L594.5,403.16
				L594.5,403.16z"/>
			<path class="st0" d="M494.67,431.97c-4.38,0-8.52-2.64-10.22-6.95c-2.23-5.65,0.54-12.03,6.18-14.26
				c11.57-4.57,28.23-9.06,41.01-11.15c0.73-1.38,1.52-2.93,2.11-4.09c4.74-9.27,7.13-13.92,14.01-14.3
				c6.24-0.6,11.24,4.29,11.59,10.35c0.18,3.16-0.99,6.08-3.01,8.2c-0.79,1.34-1.88,3.54-3.02,5.77
				c-5.04,9.85-7.35,14.35-13.88,15.15c-11.35,1.36-29.23,5.97-40.72,10.51C497.38,431.73,496.02,431.97,494.67,431.97z
				 M549.02,403.16C549.02,403.16,549.02,403.16,549.02,403.16S549.02,403.16,549.02,403.16z M549.04,403.16L549.04,403.16
				L549.04,403.16z"/>
			<path class="st0" d="M566.96,528.12c-45.27,0-87.44-16.17-105.71-40.74c-3.62-4.87-2.61-11.75,2.27-15.38
				c4.87-3.63,11.74-2.61,15.38,2.27c14.24,19.16,52.42,32.41,91.17,31.84c0.07-0.01,0.14-0.01,0.21-0.01
				c5.97,0,10.87,4.79,10.98,10.79c0.11,6.06-4.71,11.08-10.78,11.18C569.3,528.11,568.13,528.12,566.96,528.12z"/>
		</g>
		<path class="st0" d="M570.27,403.18c-40.08,0-69.18-31.99-69.18-76.07s29.1-76.07,69.18-76.07c40.09,0,69.18,31.99,69.18,76.07
			S610.36,403.18,570.27,403.18z M570.27,273.02c-32.43,0-47.19,28.04-47.19,54.09c0,26.05,14.76,54.09,47.19,54.09
			c32.43,0,47.2-28.04,47.2-54.09C617.47,301.06,602.7,273.02,570.27,273.02z"/>
	</g>
	<g>
		<path class="st4" d="M561.76,341l0.06-2.31c0.1-4.31,2.23-8.31,5.73-10.82c1.55-1.11,3.19-2.3,4.56-3.34
			c3.81-2.81,6.32-5.09,7.54-6.85c1.21-1.75,1.82-3.72,1.82-5.88c0-2.43-0.87-4.28-2.61-5.56c-1.74-1.27-4.17-1.9-7.29-1.9
			c-3.87,0-8.13,0.93-12.77,2.78c-3.35,1.34-7.19-0.12-8.76-3.37l0,0c-1.75-3.62-0.03-7.97,3.69-9.49
			c6.09-2.48,12.43-3.73,19.04-3.73c7.47,0,13.41,1.85,17.82,5.56c4.41,3.7,6.61,8.64,6.61,14.8c0,4.12-0.91,7.66-2.72,10.65
			c-1.81,2.99-5.26,6.36-10.34,10.09c-3.49,2.66-6.3,3.91-7.41,7.17c-0.41,1.2-0.61,2.08-0.66,2.8c-0.22,3.03-2.4,4.9-5.44,4.9
			h-3.38C564.2,346.52,561.74,344.04,561.76,341z M561.07,361.57c0-2.78,0.73-4.88,2.17-6.3c1.44-1.42,3.55-2.13,6.31-2.13
			c2.67,0,4.73,0.73,6.19,2.19c1.47,1.45,2.19,3.54,2.19,6.25c0,2.62-0.74,4.68-2.22,6.19s-3.53,2.26-6.17,2.26
			c-2.7,0-4.78-0.74-6.27-2.22C561.81,366.33,561.07,364.26,561.07,361.57z"/>
	</g>
	<g>
		<g>
			<path class="st0" d="M349.85,427.8c-1.07,0-2.15-0.15-3.21-0.48c-10.39-3.17-21.65-5.7-29.39-6.61
				c-6.57-0.81-8.86-5.3-13.89-15.12c-1.15-2.24-2.25-4.45-3.04-5.8c-2.02-2.12-3.2-5.04-3.02-8.2c0.33-6.06,5.6-10.75,11.58-10.36
				c6.89,0.38,9.28,5.05,14.04,14.34c0.58,1.15,1.37,2.68,2.09,4.04c8.3,1.36,18.4,3.76,28.03,6.69c5.8,1.76,9.08,7.91,7.3,13.71
				C358.91,424.75,354.55,427.8,349.85,427.8z M307.62,403.16C307.63,403.16,307.63,403.16,307.62,403.16
				C307.63,403.16,307.63,403.16,307.62,403.16z M307.61,403.16L307.61,403.16L307.61,403.16z"/>
			<path class="st0" d="M290.63,528.13c-1.48,0-2.96-0.02-4.45-0.05c-6.07-0.11-10.9-5.12-10.78-11.18
				c0.11-6,5.01-10.79,10.98-10.79c0.07,0,0.14,0,0.21,0.01c39,0.57,70.1-9.27,88.02-28.11c4.19-4.39,11.14-4.58,15.54-0.39
				c4.4,4.19,4.57,11.14,0.39,15.54C368.72,516.07,334.24,528.13,290.63,528.13z"/>
			<path class="st0" d="M280.07,528.12c-45.27,0-87.44-16.17-105.71-40.74c-1.4-1.89-2.17-4.19-2.17-6.55v-24.12
				c0-12.65,4.17-24.34,11.73-32.93c3.64-4.12,7.89-7.43,12.64-9.83c11.76-5.98,33.27-11.88,48.17-14.33
				c0.73-1.37,1.52-2.91,2.11-4.06c4.74-9.28,7.13-13.94,14.03-14.33c5.86-0.6,11.24,4.3,11.58,10.36c0.18,3.16-1,6.08-3.02,8.2
				c-0.8,1.35-1.89,3.55-3.03,5.78c-5.04,9.84-7.34,14.33-13.87,15.13c-13.69,1.63-36.46,7.99-46.01,12.85
				c-2.27,1.15-4.32,2.76-6.12,4.78c-3.96,4.49-6.23,11.2-6.23,18.39v20.24c15.68,17.71,51.89,29.61,89,29.17
				c0.07-0.01,0.14-0.01,0.21-0.01c5.97,0,10.87,4.79,10.98,10.79c0.11,6.06-4.71,11.08-10.78,11.18
				C282.41,528.11,281.24,528.12,280.07,528.12z M262.13,403.16C262.12,403.16,262.12,403.16,262.13,403.16
				C262.12,403.16,262.12,403.16,262.13,403.16z M262.15,403.16L262.15,403.16L262.15,403.16z"/>
		</g>
		<path class="st0" d="M283.38,403.18c-40.08,0-69.18-31.99-69.18-76.07s29.1-76.07,69.18-76.07s69.18,31.99,69.18,76.07
			S323.46,403.18,283.38,403.18z M283.38,273.02c-32.43,0-47.19,28.04-47.19,54.09c0,26.05,14.76,54.09,47.19,54.09
			s47.19-28.04,47.19-54.09C330.57,301.06,315.81,273.02,283.38,273.02z"/>
	</g>
	<g>
		<path class="st4" d="M274.87,341l0.06-2.31c0.1-4.31,2.23-8.31,5.73-10.82c1.55-1.11,3.19-2.3,4.56-3.34
			c3.81-2.81,6.32-5.09,7.54-6.85c1.21-1.75,1.82-3.72,1.82-5.88c0-2.43-0.87-4.28-2.61-5.56c-1.74-1.27-4.17-1.9-7.29-1.9
			c-3.87,0-8.13,0.93-12.77,2.78c-3.35,1.34-7.19-0.12-8.76-3.37v0c-1.75-3.62-0.03-7.97,3.69-9.49c6.09-2.48,12.43-3.73,19.04-3.73
			c7.47,0,13.41,1.85,17.82,5.56c4.41,3.7,6.61,8.64,6.61,14.8c0,4.12-0.91,7.66-2.72,10.65c-1.81,2.99-5.26,6.36-10.34,10.09
			c-3.49,2.66-6.3,3.91-7.41,7.17c-0.41,1.2-0.61,2.08-0.66,2.8c-0.22,3.03-2.4,4.9-5.44,4.9h-3.38
			C277.31,346.52,274.85,344.04,274.87,341z M274.18,361.57c0-2.78,0.73-4.88,2.17-6.3s3.55-2.13,6.31-2.13
			c2.67,0,4.73,0.73,6.19,2.19c1.47,1.45,2.19,3.54,2.19,6.25c0,2.62-0.74,4.68-2.22,6.19c-1.47,1.51-3.53,2.26-6.17,2.26
			c-2.7,0-4.78-0.74-6.26-2.22C274.92,366.33,274.18,364.26,274.18,361.57z"/>
	</g>
	<g>
		<g>
			<path class="st0" d="M542.79,589.24c-6.07,0-10.99-4.92-10.99-10.99v-10.46c0-8.81-2.81-17.05-7.73-22.62
				c-2.22-2.54-4.79-4.55-7.64-5.99c-11.28-5.73-38.1-13.24-54.18-15.16c-6.68-0.79-8.89-5.11-14.8-16.67
				c-1.16-2.25-2.82-5.5-3.71-7.03c-2.1-2.14-3.32-5.12-3.13-8.34c0.36-6.06,5.37-10.64,11.61-10.32
				c6.97,0.41,9.26,4.88,14.79,15.68c0.81,1.58,1.93,3.78,2.9,5.57c17.24,2.74,42.7,9.67,56.48,16.67
				c5.34,2.71,10.12,6.43,14.19,11.05c8.52,9.65,13.21,22.85,13.21,37.15v10.46C553.78,584.32,548.86,589.24,542.79,589.24z
				 M450.9,503.59C450.91,503.59,450.91,503.59,450.9,503.59C450.91,503.59,450.91,503.59,450.9,503.59z M450.89,503.59
				L450.89,503.59L450.89,503.59z"/>
			<path class="st0" d="M428.55,642.87c-13.04,0-26.69-1.04-42.9-3.16c-69.08-9.03-85.2-27.9-90.78-59.56
				c-2.94-16.73,5.88-42.79,18.14-53.62c3.1-2.75,6.53-5.09,10.19-6.94c12.82-6.52,37.02-13.29,53.98-16.26
				c0.99-1.82,2.19-4.25,3.03-5.93c4.74-9.54,7.6-15.31,15.03-15.74c6.19-0.34,11.27,4.27,11.61,10.32c0.21,3.52-1.26,6.75-3.72,8.9
				c-0.85,1.48-2.25,4.3-3.24,6.29c-5.01,10.09-8.04,16.18-15.21,17.21c-16.43,2.38-41,9.44-51.53,14.8
				c-1.99,1.01-3.87,2.29-5.58,3.81c-6.71,5.93-12.7,24.01-11.06,33.36c2.85,16.19,5.79,32.93,71.98,41.57
				c28.14,3.67,47.09,3.94,69.92,0.96c5.93-0.74,11.53,3.46,12.32,9.48c0.78,6.02-3.46,11.53-9.48,12.32
				C450.04,642.14,439.51,642.87,428.55,642.87z M396.56,503.59L396.56,503.59L396.56,503.59z M396.58,503.59
				C396.57,503.59,396.57,503.59,396.58,503.59C396.57,503.59,396.57,503.59,396.58,503.59z M381.56,502.62
				c-0.02,0.01-0.03,0.01-0.05,0.01C381.53,502.63,381.54,502.63,381.56,502.62z"/>
		</g>
		<path class="st0" d="M424.17,503.62c-45.64,0-78.78-36.51-78.78-86.81S378.52,330,424.17,330s78.77,36.52,78.77,86.81
			S469.81,503.62,424.17,503.62z M424.17,351.98c-33.44,0-56.8,26.66-56.8,64.83s23.35,64.82,56.8,64.82s56.79-26.65,56.79-64.82
			S457.61,351.98,424.17,351.98z"/>
	</g>
	<g>
		<path class="st4" d="M411.39,433.69l0.07-2.81c0.13-5.23,2.71-10.09,6.96-13.14c1.89-1.35,3.88-2.8,5.54-4.06
			c4.63-3.42,7.68-6.19,9.16-8.32c1.47-2.13,2.21-4.52,2.21-7.15c0-2.96-1.06-5.2-3.18-6.75c-2.12-1.54-5.06-2.31-8.86-2.31
			c-4.7,0-9.87,1.13-15.52,3.38c-4.07,1.63-8.74-0.14-10.65-4.09v0c-2.12-4.4-0.04-9.69,4.48-11.53c7.4-3.02,15.11-4.53,23.14-4.53
			c9.08,0,16.29,2.25,21.65,6.75c5.36,4.5,8.03,10.49,8.03,17.99c0,5-1.1,9.31-3.3,12.95c-2.2,3.64-6.4,7.73-12.56,12.27
			c-4.24,3.23-7.65,4.76-9.01,8.71c-0.5,1.46-0.74,2.53-0.8,3.4c-0.27,3.69-2.92,5.95-6.62,5.95h-4.11
			C414.35,440.4,411.36,437.39,411.39,433.69z M410.54,458.68c0-3.38,0.88-5.93,2.64-7.66c1.75-1.73,4.32-2.59,7.67-2.59
			c3.24,0,5.75,0.88,7.52,2.66c1.78,1.76,2.66,4.3,2.66,7.59c0,3.18-0.9,5.69-2.69,7.52c-1.79,1.83-4.29,2.75-7.49,2.75
			c-3.28,0-5.81-0.9-7.61-2.69C411.44,464.47,410.54,461.95,410.54,458.68z"/>
	</g>
	<path class="st1" d="M611.29,707.19h-119.4c-20.47,0-37.12-16.03-37.12-35.74v-62.31c0-19.71,16.66-35.74,37.12-35.74h119.4
		c20.47,0,37.12,16.03,37.12,35.74v62.31C648.41,691.15,631.76,707.19,611.29,707.19z M491.89,591.46
		c-10.52,0-19.06,7.93-19.06,17.68v62.31c0,9.75,8.55,17.68,19.06,17.68h119.4c10.52,0,19.06-7.93,19.06-17.68v-62.31
		c0-9.75-8.55-17.68-19.06-17.68H491.89z"/>
	<path class="st1" d="M598.36,590.02c-6.5,0-11.77-5.27-11.77-11.77v-30.41c0-19-15.44-34.45-34.42-34.45h-3.7
		c-18.98,0-34.42,15.45-34.42,34.45v30.41c0,6.5-5.27,11.77-11.77,11.77s-11.77-5.27-11.77-11.77v-30.41c0-31.98,26-58,57.96-58h3.7
		c31.96,0,57.97,26.02,57.97,58v30.41C610.13,584.75,604.86,590.02,598.36,590.02z"/>
</g>
</svg>
