<?xml version="1.0" encoding="utf-8"?>
<!-- Generator: Adobe Illustrator 23.0.1, SVG Export Plug-In . SVG Version: 6.00 Build 0)  -->
<svg version="1.1" id="Layer_1" xmlns="http://www.w3.org/2000/svg" xmlns:xlink="http://www.w3.org/1999/xlink" x="0px" y="0px"
	 viewBox="0 0 867.1 867.1" style="enable-background:new 0 0 867.1 867.1;" xml:space="preserve">
<style type="text/css">
	.st0{fill:#0095DA;}
	.st1{fill:#21409A;}
	.st2{fill:#FFFFFF;}
</style>
<g>
	<g>
		<path class="st0" d="M99.1,693.3c-7.4,0-14.6-3.5-19.2-9.9C-42.4,510.7-22.5,276.8,127.1,127.1C276.7-22.5,510.7-42.4,683.4,79.9
			c10.6,7.5,13.1,22.1,5.6,32.7c-7.5,10.6-22.1,13.1-32.7,5.6c-154-109-362.6-91.3-496,42.1c-133.4,133.4-151.1,342-42.1,496
			c7.5,10.6,5,25.2-5.6,32.7C108.5,691.9,103.8,693.3,99.1,693.3z"/>
		<path class="st1" d="M434,867.1c-87,0-174.5-26.3-250.3-79.9c-10.6-7.5-13.1-22.1-5.6-32.7c7.5-10.6,22.1-13.1,32.7-5.6
			c154,109,362.6,91.3,496-42.1c133.4-133.4,151.1-342,42.1-496c-7.5-10.6-5-25.2,5.6-32.7c10.6-7.5,25.2-5,32.7,5.6
			C909.5,356.4,889.7,590.4,740,740C656,824,545.4,867.1,434,867.1z"/>
	</g>
</g>
<g>
	<g>
		<g>
			<g>
				<path class="st0" d="M411.2,430.9c-47.1,0-85.7-35.4-89.8-82.3l-3.9-44.6c-2.2-25.1,6.3-50.2,23.4-68.8
					c17-18.6,41.3-29.2,66.5-29.2h7.8c25.2,0,49.4,10.7,66.5,29.2c17,18.6,25.5,43.6,23.4,68.8l-3.9,44.6
					C496.9,395.5,458.3,430.9,411.2,430.9z M407.3,238.5c-16.4,0-31.5,6.6-42.5,18.7c-11.1,12.1-16.4,27.7-15,44l3.9,44.6
					c2.6,30,27.3,52.7,57.5,52.7c30.1,0,54.9-22.6,57.5-52.7l3.9-44.6c1.4-16.3-3.9-31.9-15-44c-11.1-12.1-26.2-18.7-42.5-18.7
					L407.3,238.5L407.3,238.5z"/>
			</g>
		</g>
		<g>
			<g>
				<path class="st0" d="M431,628.2h-42.2c-36.4,0-72.9-8.4-105.7-24.3c-32.5-15.8-50.8-50.4-45.5-86.1
					c5.5-37.5,35.7-66.2,73.4-69.9l33.5-3.3c2.6-0.3,4.7-2.3,5-4.8l1.5-26c0.5-9,8.3-15.7,17.2-15.3c9,0.5,15.8,8.2,15.3,17.2
					l-1.6,27.1c-2.4,18.8-16.4,32.4-34.1,34.2l-33.5,3.3c-22.8,2.2-41.1,19.7-44.4,42.4c-3.2,21.6,7.9,42.6,27.6,52.1
					c28.4,13.7,60,21,91.5,21h42.2c17.3,0,34.5-2.1,51.2-6.4c8.7-2.2,17.5,3.1,19.7,11.8s-3.1,17.5-11.8,19.7
					C470.8,625.8,450.9,628.2,431,628.2z"/>
			</g>
		</g>
		<g>
			<g>
				<path class="st0" d="M550,522.6c-3.4-22.9-21.5-40.3-44.1-42.7l-30.4-3.2c-17.6-1.9-31.5-15.4-33.7-32.9l-1.7-28.3
					c-0.5-9,6.3-16.6,15.2-17.2c9.1-0.8,16.6,6.3,17.2,15.2l1.6,27.2c0.2,1.4,2.3,3.4,4.9,3.7l30.3,3.2
					c37.4,3.9,67.3,32.7,72.8,69.9L550,522.6z"/>
			</g>
		</g>
	</g>
	<g>
		<g>
			<circle class="st2" cx="528.8" cy="559.5" r="85.4"/>
		</g>
		<g>
			<path class="st1" d="M528.8,661.1c-56,0-101.6-45.6-101.6-101.6s45.6-101.6,101.6-101.6s101.6,45.6,101.6,101.6
				C630.4,615.5,584.8,661.1,528.8,661.1z M528.8,490.3c-38.1,0-69.2,31-69.2,69.2s31,69.2,69.2,69.2s69.2-31,69.2-69.2
				S566.9,490.3,528.8,490.3z"/>
		</g>
	</g>
	<g>
		<path class="st1" d="M527.8,566.7c-3.3-1.1-6.4-2.3-9.1-3.4c-2.7-1.2-5.1-2.6-7-4.3c-2-1.7-3.5-3.6-4.6-6
			c-1.1-2.3-1.7-5.1-1.7-8.5c0-5.1,1.6-9.5,4.8-13c3.2-3.5,7.7-5.9,13.6-7.2v-9.2c0.7-0.2,1.7-0.3,3.2-0.6c1.4-0.2,2.9-0.3,4.4-0.3
			c2.9,0,5.3,0.5,6.9,1.6c1.7,1,2.5,3.2,2.5,6.5v1.5c4.7,0.6,8.5,1.8,11.3,3.6c2.8,1.8,4.3,4.3,4.3,7.5c0,2-0.5,3.6-1.4,5.1
			c-0.9,1.4-2,2.6-3.3,3.6c-1.7-1.1-3.9-2-6.7-2.8c-2.8-0.8-5.9-1.2-9.2-1.2c-3.4,0-5.9,0.5-7.5,1.4c-1.6,0.9-2.4,2.1-2.4,3.6
			c0,1.1,0.5,2.1,1.5,2.8c1,0.7,2.5,1.4,4.4,2l6,1.9c7.1,2.3,12.6,5.2,16.4,8.7c3.8,3.5,5.7,8.3,5.7,14.4c0,5.1-1.6,9.5-4.9,13.1
			c-3.3,3.6-8,6-14.3,7.3v9.1c-0.7,0.2-1.7,0.3-3.2,0.6c-1.4,0.2-2.9,0.3-4.4,0.3c-3,0-5.3-0.5-6.9-1.5c-1.7-1-2.5-3.2-2.5-6.5v-1.1
			c-2.7-0.3-5.2-0.8-7.4-1.5c-2.2-0.7-4.2-1.6-5.8-2.6c-1.6-1.1-2.9-2.3-3.8-3.8c-0.9-1.4-1.4-3.1-1.4-4.9c0-2.2,0.6-4.1,1.9-5.6
			c1.3-1.6,2.7-2.7,4.2-3.6c2.1,1.7,4.7,3.1,7.8,4.3c3.1,1.2,6.4,1.8,10,1.8c3.7,0,6.3-0.6,7.8-1.7c1.5-1.1,2.3-2.5,2.3-4
			c0-1.5-0.6-2.7-1.8-3.5c-1.2-0.8-2.9-1.6-5.1-2.3L527.8,566.7z"/>
	</g>
</g>
</svg>
