<?xml version="1.0" encoding="utf-8"?>
<!-- Generator: Adobe Illustrator 23.0.1, SVG Export Plug-In . SVG Version: 6.00 Build 0)  -->
<svg version="1.1" id="Layer_1" xmlns="http://www.w3.org/2000/svg" xmlns:xlink="http://www.w3.org/1999/xlink" x="0px" y="0px"
	 viewBox="0 0 909.32 909.32" style="enable-background:new 0 0 909.32 909.32;" xml:space="preserve">
<style type="text/css">
	.st0{fill:#0094D9;}
	.st1{fill:#224099;}
	.st2{fill:#FFFFFF;}
	.st3{fill:none;stroke:#224099;stroke-width:2;stroke-linecap:round;stroke-linejoin:round;stroke-miterlimit:10;}
	.st4{fill:none;stroke:#FFFFFF;stroke-width:2;stroke-linecap:round;stroke-linejoin:round;stroke-miterlimit:10;}
	.st5{fill:#1E4497;}
</style>
<g>
	<g>
		<path class="st0" d="M103.92,727.08c-7.71,0-15.31-3.61-20.1-10.39C-44.43,535.56-23.62,290.21,133.3,133.3
			C290.2-23.62,535.57-44.43,716.69,83.82c11.09,7.85,13.72,23.21,5.86,34.3c-7.85,11.1-23.21,13.72-34.3,5.86
			C526.76,9.64,308,28.2,168.09,168.1C28.19,308,9.64,526.75,123.98,688.25c7.85,11.09,5.23,26.45-5.86,34.3
			C113.8,725.61,108.84,727.08,103.92,727.08z"/>
		<path class="st1" d="M455.12,909.32c-91.27,0-183.04-27.57-262.48-83.81c-11.09-7.85-13.72-23.21-5.86-34.3
			c7.85-11.1,23.22-13.72,34.3-5.86c161.49,114.34,380.25,95.79,520.16-44.11c139.9-139.9,158.45-358.66,44.11-520.16
			c-7.85-11.09-5.23-26.45,5.86-34.3c11.09-7.87,26.45-5.23,34.3,5.86c128.25,181.13,107.44,426.48-49.48,583.39
			C687.94,864.12,571.94,909.32,455.12,909.32z"/>
	</g>
</g>
<g>
	<path class="st0" d="M577.57,601.53c-6.8,0-12.3-5.51-12.3-12.3v-16.41c0-6.8,5.51-12.3,12.3-12.3c6.8,0,12.3,5.51,12.3,12.3v16.41
		C589.88,596.03,584.37,601.53,577.57,601.53z M577.57,535.91c-6.8,0-12.3-5.51-12.3-12.3V507.2c0-6.8,5.51-12.3,12.3-12.3
		c6.8,0,12.3,5.51,12.3,12.3v16.41C589.88,530.4,584.37,535.91,577.57,535.91z M577.57,470.29c-6.8,0-12.3-5.51-12.3-12.3v-16.41
		c0-6.8,5.51-12.3,12.3-12.3c6.8,0,12.3,5.51,12.3,12.3v16.41C589.88,464.78,584.37,470.29,577.57,470.29z M577.57,404.67
		c-6.8,0-12.3-5.51-12.3-12.3v-16.41c0-6.8,5.51-12.3,12.3-12.3c6.8,0,12.3,5.51,12.3,12.3v16.41
		C589.88,399.16,584.37,404.67,577.57,404.67z"/>
	<g>
		<g>
			<path class="st1" d="M503.68,421.65c-4.65-7.2-27.01-1.01-34.2,3.64l-28.81,18.63l-107.89-23.17c-2.56-0.55-5.16,0.8-6.18,3.22
				c-1.02,2.42-0.18,5.22,2,6.67l65.29,43.52l-47.96,36.3l-46.56-10.83c-0.89-0.19-1.79,0.28-2.14,1.12
				c-0.35,0.84-0.06,1.81,0.69,2.31l31.87,21.24c0.01,0.92,0.11,1.83,0.29,2.75l-1.85,1.2c-2.64,1.7-3.39,5.22-1.69,7.85
				c1.7,2.64,5.22,3.39,7.86,1.69l1.81-1.17c0.76,0.55,1.57,1.03,2.41,1.43l6.04,37.28c0.15,0.9,0.91,1.57,1.82,1.59
				c0.39,0.01,0.76-0.1,1.08-0.3c0.41-0.26,0.71-0.68,0.82-1.19l9.21-46.21l53.48-29.2l12.56,77.58c0.42,2.59,2.63,4.52,5.25,4.59
				c1.13,0.03,2.21-0.29,3.1-0.87c1.18-0.77,2.06-1.99,2.38-3.45l23.17-107.89l28.81-18.63
				C493.52,446.69,508.33,428.84,503.68,421.65z"/>
			<path class="st1" d="M429.01,586.28c-0.08,0-0.16,0-0.24,0c-4.6-0.12-8.47-3.5-9.2-8.03l-11.63-71.86l-46.71,25.5l-8.83,44.33
				c-0.34,1.63-1.28,2.98-2.64,3.85c-1.01,0.66-2.21,0.93-3.41,0.95c-2.87-0.09-5.29-2.21-5.74-5.04l-5.5-33.94
				c-1.83,0.77-3.85,0.97-5.84,0.54c-2.56-0.55-4.75-2.06-6.16-4.26c-1.41-2.19-1.89-4.8-1.35-7.36c0.43-2.01,1.45-3.79,2.93-5.14
				l-29.03-19.35c-2.38-1.58-3.32-4.65-2.2-7.31c1.13-2.65,3.95-4.15,6.78-3.54l44.77,10.42l41.82-31.66l-60.49-40.31
				c-3.82-2.54-5.29-7.46-3.51-11.68c1.78-4.21,6.33-6.6,10.82-5.63l106.23,22.81l27.39-17.7c4.3-2.78,12.36-5.6,19.58-6.86
				c10.26-1.77,17.27-0.24,20.29,4.44l0,0c6.87,10.63-11.3,30.66-18.57,35.37l-27.38,17.7l-22.81,106.22
				c-0.54,2.5-2.01,4.64-4.16,6.03C432.63,585.75,430.85,586.28,429.01,586.28z M414.18,493.63l13.48,83.3
				c0.1,0.65,0.66,1.13,1.31,1.15c1.07-0.41,1.29-0.72,1.37-1.09l23.53-109.54l30.24-19.55c7.93-5.13,18.34-20.62,16.14-24.03l0,0
				c-0.68-1.05-4.43-2.12-12-0.81c-6.9,1.2-13.67,3.81-16.53,5.67l-30.24,19.55l-109.55-23.52c-0.66-0.13-1.29,0.2-1.55,0.81
				c-0.25,0.6-0.04,1.3,0.5,1.66l70.09,46.71l-54.1,40.95l-36.56-8.51l23.55,15.7l0.03,2.16c0.01,0.67,0.08,1.34,0.21,2.01
				l0.54,2.73l-4.19,2.71c-0.48,0.31-0.64,0.76-0.69,0.99c-0.05,0.24-0.09,0.71,0.22,1.19c0.31,0.48,0.75,0.64,0.99,0.69
				c0.24,0.05,0.71,0.09,1.19-0.22l4.17-2.7l2.27,1.65c0.56,0.4,1.15,0.76,1.76,1.05l1.94,0.93l4.43,27.33l7.18-36.06L414.18,493.63
				z M300.19,499.63l0.01,0.01C300.2,499.63,300.19,499.63,300.19,499.63z"/>
		</g>
	</g>
	<path class="st0" d="M643.98,656.74H248.94c-28.41,0-51.52-25.25-51.52-56.28V383.02c0-31.03,23.11-56.28,51.52-56.28h395.03
		c28.41,0,51.52,25.25,51.52,56.28v45.67c0,9.06-7.35,16.41-16.41,16.41c-21.57,0-39.12,20.92-39.12,46.64
		c0,25.72,17.55,46.65,39.12,46.65c9.06,0,16.41,7.35,16.41,16.41v45.67C695.5,631.49,672.39,656.74,643.98,656.74z M248.94,359.55
		c-10.32,0-18.71,10.53-18.71,23.47v217.44c0,12.94,8.4,23.47,18.71,23.47h395.03c10.32,0,18.71-10.53,18.71-23.47v-31.35
		c-31.78-8.22-55.53-39.79-55.53-77.37s23.74-69.15,55.53-77.37v-31.35c0-12.94-8.4-23.47-18.71-23.47H248.94z"/>
	<path class="st0" d="M257.15,359.55c-6.41,0-12.5-3.78-15.14-10.06c-3.5-8.36,0.42-17.97,8.78-21.48L559.48,198.4
		c0.34-0.14,0.68-0.27,1.03-0.39c11.52-3.94,24.06-2.94,35.33,2.82c13.15,6.72,23.36,19.36,28.01,34.67l26.24,86.36
		c2.64,8.67-2.26,17.83-10.93,20.47c-8.69,2.65-17.83-2.25-20.47-10.93l-26.24-86.36c-2.08-6.84-6.29-12.31-11.56-15
		c-2.23-1.13-5.62-2.23-9.33-1.12L263.5,358.27C261.42,359.14,259.27,359.55,257.15,359.55z"/>
	<path class="st0" d="M398.68,359.55c-6.44,0-12.55-3.82-15.17-10.14c-3.46-8.37,0.51-17.97,8.89-21.43l213.85-88.51
		c8.36-3.47,17.96,0.52,21.43,8.89c3.46,8.37-0.51,17.97-8.89,21.43L404.94,358.3C402.89,359.15,400.76,359.55,398.68,359.55z"/>
</g>
</svg>
