<?xml version="1.0" encoding="utf-8"?>
<!-- Generator: Adobe Illustrator 23.0.1, SVG Export Plug-In . SVG Version: 6.00 Build 0)  -->
<svg version="1.1" id="Layer_1" xmlns="http://www.w3.org/2000/svg" xmlns:xlink="http://www.w3.org/1999/xlink" x="0px" y="0px"
	 viewBox="0 0 909.9 909.9" style="enable-background:new 0 0 909.9 909.9;" xml:space="preserve">
<style type="text/css">
	.st0{fill:#0094D9;}
	.st1{fill:#E6E7E8;}
	.st2{fill:#FFFFFF;}
	.st3{fill:#224099;}
	.st4{fill:#1C93D1;}
	.st5{fill:#FFFFFF;stroke:#224099;stroke-width:2;stroke-linecap:round;stroke-linejoin:round;stroke-miterlimit:10;}
	.st6{fill:#FFFFFF;stroke:#FFFFFF;stroke-width:2;stroke-linecap:round;stroke-linejoin:round;stroke-miterlimit:10;}
	.st7{fill:#FFFFFF;stroke:#1E4497;stroke-width:3;stroke-linecap:round;stroke-linejoin:round;stroke-miterlimit:10;}
	.st8{fill:#1E4497;}
	.st9{fill:#FFFFFF;stroke:#FFFFFF;stroke-width:1.8;stroke-linecap:round;stroke-linejoin:round;stroke-miterlimit:10;}
	.st10{fill:none;stroke:#224099;stroke-width:1.8;stroke-linecap:round;stroke-linejoin:round;stroke-miterlimit:10;}
</style>
<g>
	<g>
		<path class="st0" d="M103.99,727.54c-7.72,0-15.32-3.62-20.12-10.4C-44.46,535.9-23.63,290.4,133.38,133.38
			C290.4-23.63,535.9-44.46,717.14,83.87c11.1,7.86,13.73,23.23,5.87,34.32c-7.85,11.11-23.23,13.73-34.32,5.87
			C527.08,9.65,308.19,28.2,168.2,168.21C28.21,308.2,9.65,527.09,124.06,688.69c7.86,11.1,5.23,26.47-5.87,34.32
			C113.87,726.07,108.91,727.54,103.99,727.54z"/>
		<path class="st3" d="M455.41,909.9c-91.33,0-183.15-27.58-262.65-83.87c-11.1-7.86-13.73-23.23-5.87-34.32
			c7.86-11.11,23.23-13.73,34.32-5.87c161.6,114.41,380.5,95.84,520.49-44.14c139.99-139.99,158.55-358.89,44.14-520.49
			c-7.86-11.1-5.23-26.47,5.87-34.32c11.09-7.87,26.46-5.24,34.32,5.87C954.36,374,933.53,619.51,776.52,776.52
			C688.37,864.67,572.31,909.9,455.41,909.9z"/>
	</g>
</g>
<g>
	<path class="st0" d="M383.33,247.6c9.21-15.85,23.68-29.55,41.55-33.62c8.78-2,17.91-1.6,26.91-1.19
		c12.3,0.56,24.61,1.12,36.91,1.67c12.75,0.58,25.98,1.28,37.26,7.27c23.31,12.37,30.17,41.96,34.58,67.98
		c0.64,3.8,1.24,7.9-0.49,11.34c-2.97,5.88-10.89,6.77-17.48,6.52c-24.71-0.96-49.19-7.26-71.29-18.34
		c-6.44-3.23-13.11-6.96-20.31-6.63c-4.98,0.23-9.63,2.4-14.23,4.33c-13.56,5.67-47.73,19.47-61.78,10.67
		C359.8,288.1,376.95,258.58,383.33,247.6z"/>
	<g id="z47f9J_20_">
		<g>
			<path class="st3" d="M352.26,389.85c-6.23,0-13.39-2.25-21.14-8.66c-12.21-10.09-20.53-27.99-22.24-47.89
				c-1.67-19.47,3.13-37.36,13.17-49.08c2.35-2.75,2.97-4.67,3.12-9.8c1.31-43.84,21.37-77.64,58.01-97.75
				c40.14-22.04,82.68-20.24,115.25-16.22c63.83,7.87,108.16,56.2,107.8,117.53c0,0.79-0.06,1.6-0.15,2.43
				c17.1,16.65,16.31,37.93,15.67,55.19l-0.18,5.19c-0.42,15.31-7.52,29.27-19.49,38.29c-10.73,8.08-23.99,10.89-36.36,7.71
				c-6.58-1.7-10.55-8.41-8.85-14.99c1.7-6.59,8.43-10.53,14.99-8.85c5.16,1.31,10.62,0.07,15.4-3.53
				c5.86-4.42,9.48-11.63,9.69-19.29l0.18-5.44c0.66-17.84,0.55-29.23-9.76-38.02c-7.54-6.42-6.34-14.87-5.89-18.05l0.12-0.93
				c0.28-48.28-35.16-86.51-86.19-92.8c-42.95-5.31-73.9-1.19-100.39,13.36c-28.98,15.9-44.2,41.77-45.24,76.9
				c-0.24,7.83-1.49,16.28-9.04,25.09c-5.69,6.63-8.43,18.2-7.33,30.94c1.14,13.25,6.27,25.14,13.39,31.02
				c4.74,3.91,6.06,3.11,7.57,2.17c5.79-3.56,13.37-1.76,16.94,4.04c3.56,5.8,1.76,13.38-4.04,16.94
				C363.3,387.8,358.2,389.84,352.26,389.85z"/>
			<path class="st3" d="M564.12,316.81c-0.67,0-1.34-0.05-2.02-0.16c-6.71-1.11-11.25-7.45-10.14-14.16
				c3.03-18.34-2.72-39.17-15-54.36c-10.93-13.51-25.93-21.38-42.23-22.15c-20.92-0.99-43.12-0.85-65.98,0.4
				c-20.51,1.12-42.04,24.04-48,51.08c-0.37,1.69-0.79,3.38-1.22,5.07c-1.78,7.09-2.78,11.64-1.1,15.65
				c2.63,6.27-0.33,13.49-6.6,16.11c-6.28,2.61-13.48-0.33-16.11-6.6c-4.92-11.76-2.23-22.5-0.07-31.14
				c0.37-1.47,0.74-2.93,1.06-4.39c8.46-38.37,38.85-68.62,70.7-70.36c23.69-1.3,46.72-1.43,68.49-0.42
				c23.42,1.1,44.8,12.21,60.21,31.27c16.82,20.8,24.36,48.41,20.15,73.86C575.25,312.54,570.03,316.81,564.12,316.81z"/>
			<path class="st3" d="M468.01,488.77c-13.3,0-28.78-0.95-45.38-6.11c-31.4-9.77-45.25-33.56-55.54-57.81
				c-5.73-13.51-10.19-27.48-14.5-40.98c-4.13-12.93-8.39-26.28-13.67-38.79c-4.45-10.55-2.88-22.74,4.31-33.45
				c8.18-12.18,21.52-19.67,34.92-19.49c18.15,0.21,33.91-4.4,47.35-13.71c14.03-9.74,27.24-10.44,42.78-2.29
				c25.56,13.39,53.96,19.83,84.56,19.11c14.89-0.36,26.9,4.57,34.01,13.84c5.02,6.54,9.88,18.16,4.54,36.36
				c-3.77,12.86-8.2,24.96-13.19,35.96c-1.78,3.94-4.84,7.51-8.28,10.59c2.5,7.74,0.34,14.87-1.21,20l-0.28,0.93
				c-4.08,13.59-10.37,26.45-19.22,39.31c-16.6,24.13-41.87,36.07-77.26,36.51C470.69,488.76,469.37,488.77,468.01,488.77z
				 M377.75,316.77c-4.89,0-10.65,3.52-14.07,8.6c-1.17,1.74-3.72,6.22-2.06,10.14c5.71,13.53,10.15,27.43,14.44,40.87
				c4.33,13.57,8.42,26.39,13.71,38.85c9.48,22.35,19.51,37.49,40.18,43.92c15,4.67,29.52,5.16,41.74,4.98
				c27.55-0.34,45.21-8.32,57.28-25.85c6.96-10.11,11.98-20.11,15.33-30.52c-9.78,5.19-26.3,13.88-36.6,18.85
				c-6.11,2.97-13.48,0.4-16.44-5.72c-2.96-6.12-0.4-13.49,5.72-16.44c14.72-7.12,43.9-22.76,44.19-22.92
				c6.56-3.17,13.45-8.06,14.66-10.32c4.48-9.9,8.51-20.91,11.96-32.67c1.9-6.47,1.74-11.6-0.45-14.45
				c-2.17-2.83-7.25-4.36-13.9-4.21c-34.76,0.81-67.26-6.55-96.57-21.91c-7.45-3.91-10.87-3.77-17.32,0.71
				c-17.72,12.29-38.29,18.28-61.68,18.1C377.83,316.77,377.79,316.77,377.75,316.77z"/>
			<path class="st3" d="M485.05,451.4c-1.6,0-3.15-0.07-4.64-0.17c-11.04-0.74-24.19-6.44-24.21-29.43
				c-0.02-14.76,8.64-21.19,15.9-24c14.24-5.48,27.83-1.9,37.34,9.84c3.35,2.8,5.1,7.29,4.18,11.87c-0.21,1.04-0.47,2.08-0.74,3.12
				c-0.19,0.75-0.45,1.49-0.51,2.24c0.12,8.37-2.34,15.09-7.34,19.83C499.28,450.16,491.78,451.4,485.05,451.4z M481.18,426.57
				c0.23,0.03,0.52,0.07,0.87,0.09c3.02,0.21,4.72,0.11,5.65-0.02c0.04-0.38,0.07-0.89,0.06-1.55c-0.02-1.49,0.11-2.9,0.32-4.19
				c-1.94-1.42-3.93-1.35-7.11-0.13c-0.04,0.02-0.08,0.02-0.1,0.03c-0.02,0.24-0.04,0.56-0.04,0.97
				C480.83,424.35,481.02,425.8,481.18,426.57z"/>
			<path class="st3" d="M467.15,547.16c-1.9,0-3.79-0.44-5.53-1.31c-1.63-0.82-40.11-20.2-60.24-33.05
				c-3.58-2.28-5.72-6.25-5.68-10.49c0-0.28,0.08-7.13,1.29-35.7c0.29-6.79,6.12-12.02,12.82-11.78
				c6.79,0.29,12.07,6.03,11.78,12.82c-0.6,14.06-0.91,22.8-1.08,28.01c15.17,9.08,36.88,20.37,46.83,25.47
				c8.58-4.06,25.83-12.17,41.95-19.35c-0.66-8.79-1.19-22.58,0.36-36.05c0.78-6.76,6.93-11.62,13.63-10.83
				c6.76,0.77,11.6,6.88,10.83,13.63c-2.16,18.78,0.46,39.11,0.49,39.31c0.71,5.44-2.26,10.7-7.29,12.9
				c-23.79,10.36-54.53,25.07-54.84,25.21C470.79,546.76,468.97,547.16,467.15,547.16z"/>
			<path class="st3" d="M465.59,711.88c-6.8,0-12.31-5.51-12.31-12.31V540.62c0-6.8,5.51-12.31,12.31-12.31s12.31,5.51,12.31,12.31
				v158.94C477.9,706.37,472.39,711.88,465.59,711.88z"/>
		</g>
	</g>
	<path class="st3" d="M460.81,749.15c-41.61,0-81.91-5.47-118.04-16.41C270.59,710.89,227.5,662.09,227.5,602.2l0.31-23.42
		c0.36-27.44,12.12-52.33,32.25-68.28c5.35-4.24,11.23-7.84,17.46-10.67c27.7-12.62,90.76-27.71,122.66-29.37
		c6.72-0.37,12.58,4.87,12.93,11.66c0.35,6.79-4.87,12.58-11.66,12.93c-29.07,1.5-88.59,15.73-113.73,27.19
		c-4.42,2.01-8.58,4.55-12.37,7.55c-14.3,11.33-22.66,29.3-22.92,49.31l-0.31,23.26c0,49.01,35.64,88,97.78,106.81
		c67.86,20.54,151.68,20.51,229.98-0.1c53.02-13.95,96.15-69.53,96.15-123.89v-9.07c0-16.19-5.93-31.51-16.27-42.02
		c-4.89-4.97-10.6-8.96-16.96-11.85c-25.15-11.45-84.67-25.68-113.74-27.19c-6.79-0.35-12.01-6.14-11.66-12.93
		c0.35-6.79,6.14-12.02,12.93-11.66c31.91,1.65,94.96,16.74,122.67,29.37c9.11,4.14,17.28,9.86,24.3,16.99
		c15.06,15.3,23.35,36.36,23.35,59.29v9.07c0,64.83-51.37,131.09-114.5,147.7C544.95,743.73,502.23,749.15,460.81,749.15z"/>
	<path class="st3" d="M465.59,711.88c-1.37,0-2.77-0.23-4.14-0.72c-6.4-2.28-9.74-9.33-7.45-15.73l76.97-215.61
		c2.28-6.4,9.32-9.75,15.73-7.45c6.4,2.28,9.74,9.33,7.45,15.73L477.18,703.7C475.38,708.74,470.64,711.88,465.59,711.88z"/>
	<path class="st3" d="M465.59,711.88c-5,0-9.7-3.07-11.54-8.03l-79.91-215.29c-2.36-6.38,0.88-13.46,7.26-15.83
		c6.38-2.36,13.46,0.89,15.83,7.26l79.91,215.29c2.36,6.38-0.88,13.46-7.26,15.83C468.46,711.63,467.01,711.88,465.59,711.88z"/>
	<path class="st0" d="M616.9,663.99h-89.41c-0.66,0-1.2-0.54-1.2-1.2v-32.83c0-0.66,0.54-1.2,1.2-1.2h89.41c0.66,0,1.2,0.54,1.2,1.2
		v32.83C618.1,663.45,617.57,663.99,616.9,663.99z"/>
	<circle class="st3" cx="420.7" cy="360.89" r="14.73"/>
	<circle class="st3" cx="509.66" cy="360.89" r="14.73"/>
</g>
</svg>
