<?xml version="1.0" encoding="utf-8"?>
<!-- Generator: Adobe Illustrator 23.0.1, SVG Export Plug-In . SVG Version: 6.00 Build 0)  -->
<svg version="1.1" id="Layer_1" xmlns="http://www.w3.org/2000/svg" xmlns:xlink="http://www.w3.org/1999/xlink" x="0px" y="0px"
	 viewBox="0 0 880.72 880.72" style="enable-background:new 0 0 880.72 880.72;" xml:space="preserve">
<style type="text/css">
	.st0{fill:#0095DA;}
	.st1{fill:#21409A;}
	.st2{fill:#FFFFFF;}
	.st3{fill:#1F4396;}
</style>
<g>
	<g>
		<path class="st1" d="M371.23,507.4H252.97v-28.41l39.79-39.44c11.37-11.65,18.81-19.61,22.3-23.88c3.49-4.26,5.93-7.92,7.29-10.98
			c1.38-3.06,2.06-6.27,2.06-9.62c0-4.15-1.37-7.42-4.13-9.83c-2.75-2.41-6.61-3.61-11.59-3.61c-5.12,0-10.3,1.44-15.55,4.31
			c-5.23,2.88-11.16,7.12-17.77,12.73l-24.19-27.75c8.39-7.36,15.46-12.62,21.18-15.79c5.71-3.17,11.93-5.59,18.67-7.27
			c6.72-1.68,14.28-2.51,22.69-2.51c10.55,0,19.96,1.82,28.24,5.46c8.29,3.65,14.73,8.84,19.29,15.57
			c4.58,6.74,6.86,14.3,6.86,22.68c0,6.26-0.81,12.06-2.41,17.37c-1.6,5.32-4.07,10.54-7.4,15.68c-3.35,5.14-7.79,10.54-13.33,16.23
			c-5.52,5.68-17.33,16.46-35.38,32.35v1.09h61.63V507.4z"/>
		<path class="st1" d="M510.22,476.48h-17.94v30.93H448.8v-30.93h-64.97v-31.69l67.76-97.15h40.69v96.59h17.94V476.48z
			 M448.8,444.24v-18.57c0-3.5,0.14-8.22,0.39-14.15c0.26-5.94,0.47-9.05,0.62-9.34h-1.23c-2.53,5.61-5.38,10.85-8.58,15.73
			l-18.06,26.33H448.8z"/>
		<path class="st1" d="M613.48,507.4v-55c0-13.52-4.1-20.29-12.26-20.29c-5.82,0-10.1,2.39-12.85,7.16
			c-2.75,4.78-4.13,12.72-4.13,23.81v44.32h-35.49V368.93h35.49v19.67c0,8.9-0.48,19.04-1.46,30.44h1.64
			c3.38-5.22,7.4-8.9,12.07-11.04c4.66-2.13,10.07-3.2,16.25-3.2c11.5,0,20.44,3.25,26.81,9.74c6.39,6.5,9.59,15.59,9.59,27.28
			v65.59H613.48z"/>
	</g>
</g>
<g>
	<g>
		<path class="st0" d="M100.66,704.2c-7.47,0-14.83-3.5-19.47-10.06C-43.03,518.71-22.88,281.08,129.1,129.1
			C281.07-22.88,518.72-43.03,694.14,81.18c10.75,7.6,13.29,22.48,5.68,33.22c-7.59,10.75-22.48,13.3-33.22,5.68
			C510.18,9.33,298.31,27.31,162.8,162.8C27.31,298.31,9.34,510.18,120.08,666.59c7.61,10.74,5.07,25.61-5.68,33.22
			C110.22,702.78,105.41,704.2,100.66,704.2z"/>
		<path class="st1" d="M440.8,880.72c-88.4,0-177.28-26.7-254.23-81.18c-10.75-7.6-13.29-22.48-5.68-33.22
			c7.6-10.74,22.47-13.3,33.22-5.68c156.42,110.75,368.29,92.77,503.79-42.73c135.5-135.5,153.47-347.37,42.73-503.79
			c-7.61-10.74-5.07-25.62,5.68-33.22c10.75-7.61,25.62-5.06,33.22,5.68C923.75,362,903.59,599.63,751.61,751.61
			C666.3,836.93,553.95,880.72,440.8,880.72z"/>
	</g>
</g>
<g>
	<path class="st1" d="M454.57,158.75h-23.32c-0.93,0-1.68-0.75-1.68-1.68V98.79c0-0.93,0.75-1.68,1.68-1.68h23.32
		c0.93,0,1.68,0.75,1.68,1.68v58.29C456.25,158,455.49,158.75,454.57,158.75z"/>
	<path class="st1" d="M310.56,191.97l-20.2,11.66c-0.8,0.46-1.83,0.19-2.29-0.61l-29.14-50.48c-0.46-0.8-0.19-1.83,0.61-2.29
		l20.2-11.66c0.8-0.46,1.83-0.19,2.29,0.61l29.14,50.48C311.64,190.48,311.36,191.51,310.56,191.97z"/>
	<path class="st1" d="M202.45,292.74l-11.66,20.2c-0.46,0.8-1.49,1.08-2.29,0.61l-50.48-29.14c-0.8-0.46-1.08-1.49-0.61-2.29
		l11.66-20.2c0.46-0.8,1.49-1.08,2.29-0.61l50.48,29.14C202.64,290.91,202.91,291.94,202.45,292.74z"/>
	<path class="st1" d="M159.21,434.06v23.32c0,0.93-0.75,1.68-1.68,1.68H99.25c-0.93,0-1.68-0.75-1.68-1.68l0-23.32
		c0-0.93,0.75-1.68,1.68-1.68h58.29C158.46,432.38,159.21,433.14,159.21,434.06z"/>
	<path class="st1" d="M192.43,578.07l11.66,20.2c0.46,0.8,0.19,1.83-0.61,2.29L153,629.71c-0.8,0.46-1.83,0.19-2.29-0.61
		l-11.66-20.2c-0.46-0.8-0.19-1.83,0.61-2.29l50.48-29.14C190.94,576.99,191.97,577.27,192.43,578.07z"/>
	<path class="st1" d="M293.2,686.18l20.2,11.66c0.8,0.46,1.08,1.49,0.61,2.29l-29.14,50.48c-0.46,0.8-1.49,1.08-2.29,0.61
		l-20.2-11.66c-0.8-0.46-1.08-1.49-0.61-2.29l29.14-50.48C291.37,685.99,292.4,685.72,293.2,686.18z"/>
	<path class="st1" d="M434.52,729.42h23.32c0.93,0,1.68,0.75,1.68,1.68v58.29c0,0.93-0.75,1.68-1.68,1.68l-23.32,0
		c-0.93,0-1.68-0.75-1.68-1.68V731.1C432.84,730.17,433.6,729.42,434.52,729.42z"/>
	<path class="st1" d="M578.53,696.2l20.2-11.66c0.8-0.46,1.83-0.19,2.29,0.61l29.14,50.48c0.46,0.8,0.19,1.83-0.61,2.29l-20.2,11.66
		c-0.8,0.46-1.83,0.19-2.29-0.61l-29.14-50.48C577.45,697.69,577.73,696.66,578.53,696.2z"/>
	<path class="st1" d="M686.64,595.43l11.66-20.2c0.46-0.8,1.49-1.08,2.29-0.61l50.48,29.14c0.8,0.46,1.08,1.49,0.61,2.29
		l-11.66,20.2c-0.46,0.8-1.49,1.08-2.29,0.61l-50.48-29.14C686.45,597.26,686.18,596.23,686.64,595.43z"/>
	<path class="st1" d="M729.88,454.11l0-23.32c0-0.93,0.75-1.68,1.68-1.68h58.29c0.93,0,1.68,0.75,1.68,1.68v23.32
		c0,0.93-0.75,1.68-1.68,1.68h-58.29C730.63,455.79,729.88,455.03,729.88,454.11z"/>
	<path class="st1" d="M696.66,310.1L685,289.9c-0.46-0.8-0.19-1.83,0.61-2.29l50.48-29.14c0.8-0.46,1.83-0.19,2.29,0.61l11.66,20.2
		c0.46,0.8,0.19,1.83-0.61,2.29l-50.48,29.14C698.15,311.18,697.12,310.9,696.66,310.1z"/>
	<path class="st1" d="M595.89,201.99l-20.2-11.66c-0.8-0.46-1.08-1.49-0.61-2.29l29.14-50.48c0.46-0.8,1.49-1.08,2.29-0.61
		l20.2,11.66c0.8,0.46,1.08,1.49,0.61,2.29l-29.14,50.48C597.72,202.18,596.69,202.45,595.89,201.99z"/>
</g>
</svg>
