<?xml version="1.0" encoding="utf-8"?>
<!-- Generator: Adobe Illustrator 23.0.6, SVG Export Plug-In . SVG Version: 6.00 Build 0)  -->
<svg version="1.1" id="Layer_1" xmlns="http://www.w3.org/2000/svg" xmlns:xlink="http://www.w3.org/1999/xlink" x="0px" y="0px"
	 viewBox="0 0 448.1 448" style="enable-background:new 0 0 448.1 448;" xml:space="preserve">
<style type="text/css">
	.st0{fill:#21409A;}
	.st1{fill:#0095DA;}
</style>
<g>
	<g>
		<g>
			<path class="st0" d="M170,214.5c-2.6,0-4.7,1.1-6.2,3.2c-1.5,2.1-2.2,5.1-2.2,8.8c0,7.8,3,11.6,9,11.6c1.8,0,3.6-0.3,5.3-0.7
				c1.7-0.5,3.4-1.1,5.2-1.8v9.2c-3.4,1.5-7.3,2.2-11.7,2.2c-6.2,0-11-1.8-14.3-5.3c-3.3-3.5-5-8.6-5-15.3c0-4.2,0.8-7.9,2.4-11
				c1.6-3.2,3.9-5.6,6.9-7.3s6.6-2.6,10.6-2.6c4.4,0,8.7,0.9,12.8,2.8l-3.4,8.6c-1.5-0.7-3-1.3-4.6-1.8
				C173.4,214.8,171.7,214.5,170,214.5z"/>
			<path class="st0" d="M199.4,246.6h-11v-43h11V246.6z"/>
			<path class="st0" d="M229.8,246.6l-1.4-3.9h-0.6c-0.9,1.4-2.2,2.5-3.9,3.3c-1.6,0.8-3.6,1.1-5.8,1.1c-3.5,0-6.2-1-8.2-3
				c-1.9-2-2.9-4.8-2.9-8.5v-20.4h11v17.1c0,2,0.3,3.6,0.9,4.6c0.6,1.1,1.6,1.6,2.9,1.6c1.9,0,3.3-0.7,4.1-2.2
				c0.8-1.5,1.2-3.9,1.2-7.4v-13.7h11v31.3L229.8,246.6L229.8,246.6z"/>
			<path class="st0" d="M265.2,214.7c3.5,0,6.2,1.4,8.3,4.3c2,2.9,3.1,6.8,3.1,11.9c0,5.1-1,9.1-3.1,11.9c-2.1,2.9-4.9,4.3-8.6,4.3
				c-1.2,0-2.2-0.1-3.2-0.4c-0.9-0.3-1.7-0.6-2.5-1c-0.7-0.4-1.6-1.2-2.5-2.2h-0.7l-1.8,3.1h-8.6v-43h11v9.7c0,1.2-0.1,3.2-0.4,6
				h0.4c1.1-1.6,2.3-2.8,3.7-3.5C261.9,215.1,263.5,214.7,265.2,214.7z M261.2,223.2c-1.5,0-2.7,0.5-3.4,1.6
				c-0.7,1.1-1.1,2.7-1.1,4.9v1.5c0,2.6,0.4,4.4,1.1,5.5c0.7,1.1,1.9,1.7,3.5,1.7c1.3,0,2.3-0.6,3-1.9c0.7-1.3,1-3.2,1-5.7
				C265.4,225.7,264,223.2,261.2,223.2z"/>
		</g>
	</g>
	<g>
		<path class="st1" d="M75.9,386.7c-3.4,0-6.8-1.3-9.4-3.9c-77.7-76.9-88.6-197.8-25.9-287.3C103.3,6,220.6-25.1,319.5,21.6
			c6.7,3.1,9.5,11.1,6.4,17.7c-3.1,6.7-11.1,9.5-17.8,6.4C221,4.5,117.7,31.9,62.5,110.8S16.8,296.2,85.3,363.9
			c5.2,5.2,5.3,13.6,0.1,18.9C82.8,385.4,79.3,386.7,75.9,386.7z"/>
		<path class="st0" d="M224.5,448c-32.3,0-64.9-7-95.8-21.6c-6.7-3.1-9.5-11.1-6.4-17.8s11.1-9.5,17.8-6.4
			c87.1,41.2,190.4,13.8,245.6-65.1c55.2-78.9,45.6-185.3-22.8-253.1c-5.2-5.2-5.3-13.6-0.1-18.9s13.6-5.3,18.9-0.1
			c77.7,76.9,88.6,197.8,25.9,287.4C364.4,414,295.5,448,224.5,448z"/>
	</g>
	<path class="st1" d="M320.4,323.9H114.8c-15.6,0-28.2-12.7-28.2-28.2V170.1c0-15.6,12.7-28.2,28.2-28.2h205.6
		c15.6,0,28.2,12.7,28.2,28.2v125.5C348.6,311.2,336,323.9,320.4,323.9z M114.8,161.9c-4.5,0-8.2,3.7-8.2,8.2v125.5
		c0,4.5,3.7,8.2,8.2,8.2h205.6c4.5,0,8.2-3.7,8.2-8.2V170.1c0-4.5-3.7-8.2-8.2-8.2H114.8z"/>
	<path class="st1" d="M298.1,287.1H102.7c-3.7,0-6.7-3-6.7-6.7c0-3.7,3-6.7,6.7-6.7h195.5c3.7,0,6.7,3,6.7,6.7
		C304.8,284.1,301.8,287.1,298.1,287.1z"/>
	<path class="st1" d="M311.7,194.9h-15.2c-5.5,0-10-4.5-10-10s4.5-10,10-10h15.2c5.5,0,10,4.5,10,10
		C321.7,190.4,317.2,194.9,311.7,194.9z"/>
</g>
</svg>
