<?xml version="1.0" encoding="utf-8"?>
<!-- Generator: Adobe Illustrator 23.0.1, SVG Export Plug-In . SVG Version: 6.00 Build 0)  -->
<svg version="1.1" id="Layer_1" xmlns="http://www.w3.org/2000/svg" xmlns:xlink="http://www.w3.org/1999/xlink" x="0px" y="0px"
	 viewBox="0 0 909.32 909.33" style="enable-background:new 0 0 909.32 909.33;" xml:space="preserve">
<style type="text/css">
	.st0{fill:#0094D9;}
	.st1{fill:#224099;}
	.st2{fill:#0095DA;}
	.st3{fill:#21409A;}
</style>
<g>
	<g>
		<path class="st0" d="M103.92,727.08c-7.71,0-15.31-3.62-20.1-10.39C-44.43,535.57-23.62,290.21,133.3,133.3
			C290.2-23.62,535.56-44.43,716.69,83.82c11.09,7.85,13.72,23.21,5.86,34.3c-7.85,11.09-23.21,13.73-34.3,5.86
			C526.76,9.65,308,28.2,168.1,168.1C28.19,308,9.64,526.76,123.98,688.25c7.85,11.09,5.23,26.45-5.86,34.3
			C113.8,725.61,108.84,727.08,103.92,727.08z"/>
		<path class="st1" d="M455.11,909.33c-91.27,0-183.04-27.57-262.48-83.82c-11.09-7.85-13.72-23.21-5.86-34.3
			c7.85-11.1,23.21-13.73,34.3-5.86c161.49,114.34,380.25,95.79,520.16-44.11c139.9-139.9,158.45-358.66,44.11-520.16
			c-7.85-11.09-5.23-26.45,5.86-34.3c11.09-7.87,26.45-5.23,34.3,5.86c128.24,181.13,107.43,426.48-49.48,583.39
			C687.94,864.12,571.94,909.33,455.11,909.33z"/>
	</g>
</g>
<g>
	<path class="st2" d="M380.85,290.16h-41.96c-6.81,0-12.32-5.51-12.32-12.32s5.51-12.32,12.32-12.32h41.96
		c6.8,0,12.32,5.51,12.32,12.32S387.65,290.16,380.85,290.16z"/>
	<path class="st2" d="M392.92,335.72h-25.53c-6.8,0-12.32-5.51-12.32-12.32s5.52-12.32,12.32-12.32h25.53
		c6.8,0,12.32,5.51,12.32,12.32S399.72,335.72,392.92,335.72z"/>
	<path class="st2" d="M401.38,369.74h-25.53c-6.8,0-12.32-5.51-12.32-12.32s5.52-12.32,12.32-12.32h25.53
		c6.8,0,12.32,5.51,12.32,12.32S408.18,369.74,401.38,369.74z"/>
	<path class="st3" d="M550.01,665.45H376.87c-28.27,0-52.2-19.1-56.88-45.42L294.72,477.9c-2.7-15.16,1.54-30.76,11.63-42.8
		c11-13.13,27.5-20.67,45.24-20.67h198.42c31.8,0,57.67,24.42,57.67,54.44V611C607.68,641.02,581.82,665.45,550.01,665.45z
		 M351.59,447.29c-8,0-15.32,3.25-20.06,8.92c-3.88,4.63-5.47,10.3-4.46,15.95l25.27,142.12c1.86,10.44,12.4,18.32,24.53,18.32
		h173.14c13.68,0,24.82-9.69,24.82-21.59V468.88c0-11.9-11.13-21.58-24.82-21.58H351.59z"/>
	<path class="st3" d="M433.13,445.01h-92.78c-7.33,0-13.78-4.86-15.79-11.91l-42.93-149.95c-2.15-7.5-3.23-15.28-3.23-23.1v-19.49
		c0-24.98,19.2-45.31,42.8-45.31h40.03c23.6,0,42.8,20.33,42.8,45.31v16.43c0,6.82,0.94,13.56,2.8,20.04l42.09,147.03
		c1.42,4.96,0.43,10.29-2.68,14.41C443.14,442.59,438.29,445.01,433.13,445.01z M352.74,412.15h58.6l-36.1-126.08
		c-2.7-9.42-4.07-19.2-4.07-29.08v-16.43c0-6.75-4.56-12.45-9.95-12.45h-40.03c-5.39,0-9.95,5.7-9.95,12.45v19.49
		c0,4.77,0.66,9.51,1.97,14.07L352.74,412.15z"/>
	<path class="st3" d="M536.5,543.29H385.24c-9.07,0-16.43-7.36-16.43-16.43c0-9.07,7.36-16.43,16.43-16.43H536.5
		c9.07,0,16.43,7.36,16.43,16.43C552.93,535.94,545.58,543.29,536.5,543.29z"/>
	<path class="st3" d="M615.34,657.23h-24.08c-9.07,0-16.43-7.36-16.43-16.43v-88.14c0-9.07,7.36-16.43,16.43-16.43h1.27
		c2,0,3.98,0.08,5.93,0.22c34.11,2.57,61.08,30.2,62.74,64.26l0.67,13.76C661.87,638.41,641,657.23,615.34,657.23z M607.68,624.38
		h7.65c8.06,0,13.68-4.8,13.68-9.11l-0.65-12.96c-0.65-13.41-8.94-24.89-20.69-30.14V624.38z"/>
	<g>
		<path class="st3" d="M570.42,736.43h-209.8c-9.07,0-16.43-7.36-16.43-16.43c0-9.07,7.36-16.43,16.43-16.43h209.8
			c9.07,0,16.43,7.36,16.43,16.43C586.84,729.07,579.49,736.43,570.42,736.43z"/>
		<path class="st3" d="M413.67,736.43c-9.07,0-16.43-7.36-16.43-16.43v-59.36c0-9.07,7.36-16.43,16.43-16.43s16.43,7.36,16.43,16.43
			V720C430.1,729.07,422.74,736.43,413.67,736.43z"/>
		<path class="st3" d="M516.27,736.43c-9.07,0-16.43-7.36-16.43-16.43v-59.36c0-9.07,7.36-16.43,16.43-16.43
			c9.07,0,16.43,7.36,16.43,16.43V720C532.69,729.07,525.34,736.43,516.27,736.43z"/>
	</g>
</g>
<g>
	<path class="st0" d="M602.84,382.73c-51.04,0-92.57-41.53-92.57-92.57s41.53-92.57,92.57-92.57s92.57,41.53,92.57,92.57
		S653.88,382.73,602.84,382.73z M602.84,221.14c-38.06,0-69.02,30.97-69.02,69.02s30.97,69.02,69.02,69.02s69.03-30.96,69.03-69.02
		S640.9,221.14,602.84,221.14z"/>
	<path class="st0" d="M602.84,338.19c-6.5,0-11.77-5.27-11.77-11.77v-75.39c0-6.5,5.27-11.77,11.77-11.77s11.77,5.27,11.77,11.77
		v75.39C614.62,332.92,609.34,338.19,602.84,338.19z"/>
	<path class="st0" d="M640.09,301.94H565.1c-6.5,0-11.77-5.27-11.77-11.77s5.27-11.77,11.77-11.77h74.99
		c6.5,0,11.77,5.27,11.77,11.77S646.59,301.94,640.09,301.94z"/>
</g>
</svg>
