<?xml version="1.0" encoding="utf-8"?>
<!-- Generator: Adobe Illustrator 23.0.1, SVG Export Plug-In . SVG Version: 6.00 Build 0)  -->
<svg version="1.1" id="Layer_1" xmlns="http://www.w3.org/2000/svg" xmlns:xlink="http://www.w3.org/1999/xlink" x="0px" y="0px"
	 viewBox="0 0 909.32 909.33" style="enable-background:new 0 0 909.32 909.33;" xml:space="preserve">
<style type="text/css">
	.st0{fill:#0095DA;}
	.st1{fill:#21409A;}
</style>
<g>
	<g>
		<path class="st0" d="M105.14,726.57c-7.69,0-15.25-3.6-20.04-10.35c-127.8-180.5-107.06-425,49.31-581.36
			C290.79-21.51,535.28-42.25,715.77,85.55c11.06,7.82,13.67,23.13,5.84,34.18s-23.13,13.69-34.18,5.84
			C526.51,11.64,308.52,30.12,169.09,169.53C29.67,308.95,11.19,526.94,125.13,687.88c7.83,11.05,5.21,26.36-5.84,34.18
			C114.99,725.11,110.04,726.57,105.14,726.57z"/>
		<path class="st1" d="M455.11,908.18c-90.95,0-182.4-27.47-261.57-83.52c-11.06-7.82-13.67-23.13-5.84-34.18
			c7.82-11.05,23.12-13.68,34.18-5.84c160.94,113.95,378.93,95.45,518.35-43.96c139.41-139.41,157.9-357.41,43.96-518.34
			c-7.83-11.05-5.21-26.36,5.84-34.18c11.07-7.84,26.36-5.2,34.18,5.84c127.8,180.5,107.06,425-49.31,581.36
			C687.12,863.13,571.53,908.18,455.11,908.18z"/>
	</g>
</g>
<g>
	<g>
		<path class="st1" d="M549.93,220c-22.86,0-41.45-18.6-41.45-41.46s18.6-41.46,41.45-41.46c22.86,0,41.46,18.6,41.46,41.46
			S572.79,220,549.93,220z M549.93,162.18c-9.02,0-16.36,7.34-16.36,16.37s7.34,16.37,16.36,16.37c9.03,0,16.37-7.34,16.37-16.37
			S558.95,162.18,549.93,162.18z"/>
		<path class="st1" d="M578.05,465.56h-39.14c-13.97,0-25.34-11.37-25.34-25.34v-83.23c-7.48-9.7-11.55-21.58-11.55-33.95v-59.41
			c0-25.94,21.1-47.04,47.03-47.04c25.94,0,47.04,21.1,47.04,47.04v53.96c0,15.24-6.29,29.87-17.32,40.35v61.61l2.52,1.15
			c8.98,4.08,14.79,13.1,14.79,22.97v3.87C596.09,457.47,588,465.56,578.05,465.56z M549.05,241.68c-12.1,0-21.94,9.85-21.94,21.95
			v59.41c0,7.75,2.91,15.15,8.19,20.83c2.16,2.32,3.36,5.37,3.36,8.54v87.81l25.27,0.16l-2.89-1.34c-4.48-2.03-7.35-6.5-7.35-11.42
			v-75.21c0-3.53,1.49-6.9,4.1-9.27l3.17-2.89c6.39-5.79,10.05-14.05,10.05-22.66v-53.96C571,251.53,561.15,241.68,549.05,241.68z"
			/>
		<path class="st0" d="M445.39,220c-22.86,0-41.45-18.6-41.45-41.46s18.6-41.46,41.45-41.46c22.86,0,41.45,18.6,41.45,41.46
			S468.25,220,445.39,220z M445.39,162.18c-9.02,0-16.36,7.34-16.36,16.37s7.34,16.37,16.36,16.37s16.36-7.34,16.36-16.37
			S454.41,162.18,445.39,162.18z"/>
		<path class="st0" d="M356.18,220c-22.86,0-41.45-18.6-41.45-41.46s18.59-41.46,41.45-41.46c22.86,0,41.46,18.6,41.46,41.46
			S379.05,220,356.18,220z M356.18,162.18c-9.02,0-16.36,7.34-16.36,16.37s7.34,16.37,16.36,16.37c9.03,0,16.37-7.34,16.37-16.37
			S365.21,162.18,356.18,162.18z"/>
		<path class="st0" d="M461.14,465.57H427.2c-10.73,0-20.04-5.73-24.55-14.04c-1.91,8.03-9.47,14.04-18.47,14.04h-33.95
			c-15.13,0-27.43-11.37-27.43-25.35v-82.71c-6.23-7.03-10.45-15.31-12.32-24.2c-0.14-0.67-0.22-1.34-0.25-2.02
			c-0.1-2.28-2.44-56.17,0.9-79.06c0.11-0.74,0.29-1.47,0.52-2.19c6.73-20,26.97-33.43,50.37-33.43c15.05,0,28.8,5.56,38.48,14.85
			c9.68-9.29,23.43-14.85,38.48-14.85c29.02,0,52.64,21.1,52.64,47.04v53.96c0,16.02-7.75,31.26-21.26,41.82
			c-1.31,1.02-2.8,1.77-4.39,2.21l-1.25,0.34v62.05c7.93,4.13,15.35,10.23,15.35,19.64v3.88
			C480.08,457.48,471.58,465.57,461.14,465.57z M379.59,448.45L379.59,448.45L379.59,448.45z M424.98,440.07
			c0.28,0,1.03,0.4,2.22,0.4h15.57c-2.05-2.3-3.24-5.32-3.2-8.54l0.06-4.49v-75.04c0-5.64,3.77-10.59,9.21-12.1l7.85-2.16
			c6.28-5.62,9.83-13,9.83-20.56v-53.96c0-12.1-12.36-21.95-27.54-21.95c-12.41,0-23.35,6.72-26.59,16.35
			c-1.72,5.1-6.51,8.54-11.89,8.54s-10.17-3.44-11.89-8.54c-3.24-9.63-14.18-16.35-26.6-16.35c-11.99,0-22.6,6.27-26.23,15.37
			c-2.22,17.34-1.2,56.58-0.55,71.99c1.3,5.24,4.27,10.12,8.62,14.15c2.57,2.38,4.03,5.71,4.03,9.21v87.77
			c0.02-0.34,0.82,0.3,2.34,0.3h15.57c-2.05-2.3-3.24-5.32-3.2-8.54l0.06-4.49v-75.04c0-6.93,5.62-12.55,12.55-12.55h37.1
			c6.93,0,12.55,5.62,12.55,12.55v87.77C424.86,440.1,424.9,440.07,424.98,440.07z M387.76,424.01c4.64,2.41,9.1,5.5,12.01,9.53
			v-68.59h-12.01V424.01z M462.64,349.52h0.08H462.64z"/>
	</g>
	<g>
		<path class="st1" d="M389.32,743.56H272.88c-6.93,0-12.55-5.62-12.55-12.55v-96.59c0-39.02,31.75-70.77,70.77-70.77
			s70.77,31.75,70.77,70.77v96.59C401.87,737.95,396.25,743.56,389.32,743.56z M285.42,718.47h91.35v-84.04
			c0-25.18-20.49-45.68-45.68-45.68c-25.18,0-45.68,20.49-45.68,45.68V718.47z"/>
		<path class="st1" d="M353.17,583.19c-6.12,0-11.48-4.48-12.39-10.72c-3.08-20.89-6.57-20.89-9.37-20.89c-2.34,0-6.91,0-9.99,20.89
			c-1.01,6.86-7.42,11.63-14.24,10.59c-6.86-1.01-11.59-7.38-10.59-14.24c1.54-10.47,6.23-42.33,34.2-42.33
			c28.57,0,32.78,28.59,34.8,42.33c1.01,6.85-3.73,13.23-10.59,14.24C354.4,583.14,353.78,583.19,353.17,583.19z"/>
		<path class="st0" d="M345.06,626.05h-27.93c-4.62,0-8.36-3.74-8.36-8.36s3.74-8.36,8.36-8.36h27.93c4.62,0,8.36,3.74,8.36,8.36
			S349.68,626.05,345.06,626.05z"/>
		<path class="st0" d="M356.86,694.01c-4.62,0-8.36-3.74-8.36-8.36v-8.96h-35.04v8.96c0,4.62-3.74,8.36-8.36,8.36
			c-4.62,0-8.36-3.74-8.36-8.36v-17.32c0-4.62,3.74-8.36,8.36-8.36h51.77c4.62,0,8.36,3.74,8.36,8.36v17.32
			C365.22,690.26,361.48,694.01,356.86,694.01z"/>
	</g>
	<g>
		<path class="st1" d="M518.48,792.24c-9.24,0-16.73-7.49-16.73-16.73v-4.08c0-9.24,7.49-16.73,16.73-16.73
			c9.24,0,16.73,7.49,16.73,16.73v4.08C535.21,784.75,527.72,792.24,518.48,792.24z"/>
		<path class="st1" d="M605.73,792.24c-9.24,0-16.73-7.49-16.73-16.73v-4.08c0-9.24,7.49-16.73,16.73-16.73
			c9.24,0,16.73,7.49,16.73,16.73v4.08C622.45,784.75,614.96,792.24,605.73,792.24z"/>
		<path class="st1" d="M622.43,774.41H501.79c-14.64,0-26.56-11.92-26.56-26.56V567.62c0-14.64,11.91-26.55,26.55-26.55h120.66
			c14.64,0,26.54,11.91,26.54,26.55v180.24C648.99,762.5,637.07,774.41,622.43,774.41z M501.78,566.16c-0.8,0-1.46,0.65-1.46,1.46
			v180.24c0,0.81,0.66,1.47,1.47,1.47h120.63c0.81,0,1.47-0.66,1.47-1.47V567.62c0-0.8-0.65-1.46-1.45-1.46H501.78z"/>
		<path class="st1" d="M596.46,531.46h-68.69c-6.93,0-12.55-5.62-12.55-12.55c0-6.93,5.62-12.55,12.55-12.55h68.69
			c6.93,0,12.55,5.62,12.55,12.55C609,525.85,603.39,531.46,596.46,531.46z"/>
		<path class="st1" d="M562.12,607.14c-19.4,0-35.19-15.01-35.19-33.46v-52.35c0-6.93,5.62-12.55,12.55-12.55
			c6.93,0,12.55,5.62,12.55,12.55v52.35c0,4.61,4.53,8.37,10.09,8.37c5.56,0,10.09-3.75,10.09-8.37v-52.35
			c0-6.93,5.62-12.55,12.55-12.55s12.55,5.62,12.55,12.55v52.35C597.29,592.13,581.51,607.14,562.12,607.14z"/>
		<path class="st0" d="M598.88,721.48h-73.53c-4.62,0-8.36-3.74-8.36-8.36c0-4.62,3.74-8.36,8.36-8.36h73.53
			c4.62,0,8.36,3.74,8.36,8.36C607.24,717.74,603.5,721.48,598.88,721.48z"/>
	</g>
</g>
</svg>
