<?xml version="1.0" encoding="utf-8"?>
<!-- Generator: Adobe Illustrator 23.0.1, SVG Export Plug-In . SVG Version: 6.00 Build 0)  -->
<svg version="1.1" id="Layer_1" xmlns="http://www.w3.org/2000/svg" xmlns:xlink="http://www.w3.org/1999/xlink" x="0px" y="0px"
	 viewBox="0 0 870.08 870.09" style="enable-background:new 0 0 870.08 870.09;" xml:space="preserve">
<style type="text/css">
	.st0{fill:#21409A;}
	.st1{fill:#0095DA;}
	.st2{fill:#FFFFFF;}
	.st3{fill:none;stroke:#FFFFFF;stroke-width:2;stroke-linecap:round;stroke-linejoin:round;stroke-miterlimit:10;}
	.st4{fill:#1F4396;}
	.st5{fill:#1F4497;}
	.st6{fill:#214099;}
</style>
<g>
	<g>
		<path class="st1" d="M99.44,695.7c-7.38,0-14.65-3.46-19.24-9.94C-42.51,512.45-22.6,277.68,127.55,127.55
			C277.69-22.6,512.45-42.52,685.76,80.21c10.62,7.51,13.13,22.21,5.61,32.82c-7.52,10.62-22.21,13.14-32.82,5.61
			C504.03,9.22,294.72,26.98,160.84,160.85C26.98,294.71,9.22,504.02,118.63,658.55c7.52,10.62,5.01,25.31-5.61,32.82
			C108.89,694.3,104.14,695.7,99.44,695.7z"/>
		<path class="st0" d="M435.48,870.09c-87.33,0-175.14-26.38-251.16-80.2c-10.62-7.51-13.13-22.21-5.61-32.82
			c7.5-10.61,22.21-13.14,32.82-5.61c154.53,109.4,363.85,91.64,497.71-42.21c133.86-133.87,151.61-343.18,42.21-497.71
			c-7.52-10.62-5.01-25.31,5.61-32.82c10.62-7.53,25.31-5.01,32.82,5.61C912.6,357.64,892.68,592.4,742.54,742.55
			C658.25,826.84,547.26,870.09,435.48,870.09z"/>
	</g>
</g>
<path class="st1" d="M642.46,610.51h-410.2c-25.88,0-46.94-21.06-46.94-46.95V309.69c0-25.88,21.06-46.95,46.94-46.95h410.2
	c25.88,0,46.95,21.06,46.95,46.95v253.87C689.41,589.45,668.35,610.51,642.46,610.51z M232.26,294.14
	c-8.57,0-15.54,6.98-15.54,15.55v253.87c0,8.58,6.98,15.55,15.54,15.55h410.2c8.58,0,15.55-6.98,15.55-15.55V309.69
	c0-8.58-6.98-15.55-15.55-15.55H232.26z"/>
<rect x="506.33" y="262.89" class="st0" width="31.4" height="347.67"/>
<rect x="185.32" y="389.58" class="st0" width="503.96" height="31.4"/>
<path class="st0" d="M519.28,401.42c-0.27,0-0.54-0.01-0.81-0.03c-13.32-0.92-80.58-7-96.88-36.43c-3.69-6.67-6.57-17.48,0.74-31.17
	l0,0c8.71-16.31,20.47-19.98,28.82-20.18c0.23-0.01,0.48-0.01,0.71-0.01c33.99,0,70.52,58.25,77.54,70
	c2.25,3.76,2.22,8.46-0.08,12.2C527.16,399.31,523.36,401.42,519.28,401.42z M443.09,344.87c-2.81,5.26-1.53,7.57-0.91,8.67
	c5.37,9.72,29.64,17.14,52.88,21.22c-14.33-19.18-32.1-37.61-43.12-37.61c-0.08,0-0.16,0-0.24,0
	C450.58,337.18,447.15,337.26,443.09,344.87L443.09,344.87z"/>
<path class="st0" d="M518.24,407.95c-3.53,0-6.93-1.59-9.19-4.41c-2.74-3.42-3.35-8.08-1.59-12.1
	c5.37-12.22,33.84-73.46,67.05-78.86c7.53-1.22,18.67-0.26,29.08,11.24c12.41,13.71,11.87,26.03,9.24,33.95
	c-10.78,32.45-78.81,47.32-92.34,49.96C519.75,407.88,518.99,407.95,518.24,407.95z M579.46,335.71c-0.48,0-0.87,0.06-1.18,0.11
	c-10.99,1.79-26.18,22.11-37.86,42.59c23.06-7.05,46.61-17.64,50.07-28.08c0.35-1.07,1.43-4.32-4.36-10.72
	C583.13,336.3,580.91,335.71,579.46,335.71z"/>
<path class="st0" d="M450.98,469.96c-3.17,0-6.33-1.27-8.65-3.79c-4.41-4.78-4.11-12.23,0.67-16.63l67.25-62.01
	c4.77-4.4,12.22-4.12,16.63,0.67c4.41,4.78,4.11,12.23-0.67,16.63l-67.25,62.01C456.7,468.92,453.84,469.96,450.98,469.96z"/>
<path class="st0" d="M587.14,472.58c-3.17,0-6.33-1.27-8.65-3.79l-62.01-67.25c-4.41-4.78-4.11-12.23,0.67-16.63
	c4.78-4.4,12.22-4.12,16.63,0.67l62.01,67.25c4.41,4.78,4.11,12.23-0.67,16.63C592.85,471.54,589.99,472.58,587.14,472.58z"/>
<path class="st1" d="M380.33,497.93H272.94c-8.67,0-15.7-7.03-15.7-15.7s7.03-15.7,15.7-15.7h107.39c8.67,0,15.7,7.03,15.7,15.7
	S389,497.93,380.33,497.93z"/>
<path class="st1" d="M380.33,553.61H272.94c-8.67,0-15.7-7.03-15.7-15.7s7.03-15.7,15.7-15.7h107.39c8.67,0,15.7,7.03,15.7,15.7
	S389,553.61,380.33,553.61z"/>
</svg>
