<?xml version="1.0" encoding="utf-8"?>
<!-- Generator: Adobe Illustrator 23.0.1, SVG Export Plug-In . SVG Version: 6.00 Build 0)  -->
<svg version="1.1" id="Layer_1" xmlns="http://www.w3.org/2000/svg" xmlns:xlink="http://www.w3.org/1999/xlink" x="0px" y="0px"
	 viewBox="0 0 870.08 870.08" style="enable-background:new 0 0 870.08 870.08;" xml:space="preserve">
<style type="text/css">
	.st0{fill:#21409A;}
	.st1{fill:#0095DA;}
	.st2{fill:#FFFFFF;}
	.st3{fill:none;stroke:#FFFFFF;stroke-width:2;stroke-linecap:round;stroke-linejoin:round;stroke-miterlimit:10;}
	.st4{fill:#1F4396;}
	.st5{fill:#1F4497;}
	.st6{fill:#214099;}
</style>
<g>
	<path class="st1" d="M99.44,695.71c-7.38,0-14.65-3.46-19.24-9.94C-42.51,512.45-22.6,277.69,127.54,127.54
		C277.67-22.6,512.45-42.51,685.76,80.2c10.62,7.51,13.13,22.21,5.61,32.82c-7.5,10.61-22.2,13.14-32.82,5.61
		C504.02,9.24,294.7,27,160.83,160.84C26.97,294.71,9.22,504.03,118.63,658.55c7.52,10.61,5.01,25.31-5.61,32.82
		C108.89,694.3,104.14,695.71,99.44,695.71z"/>
	<path class="st0" d="M435.48,870.08c-87.33,0-175.14-26.37-251.16-80.2c-10.62-7.51-13.13-22.21-5.61-32.82
		c7.5-10.61,22.2-13.14,32.82-5.61c154.53,109.4,363.85,91.64,497.71-42.21c133.86-133.88,151.61-343.19,42.2-497.71
		c-7.52-10.61-5.01-25.31,5.61-32.82c10.62-7.53,25.31-5,32.82,5.61c122.72,173.3,102.8,408.06-47.34,558.21
		C658.26,826.83,547.26,870.08,435.48,870.08z"/>
</g>
<g>
	<g>
		<path class="st0" d="M334.12,348.5L334.12,348.5c-18.16-4-29.63-21.96-25.63-40.12l1.2-5.45c4-18.16,21.96-29.63,40.12-25.63h0
			c18.16,4,29.63,21.96,25.63,40.12l-1.2,5.45C370.24,341.03,352.27,352.5,334.12,348.5z"/>
	</g>
	<g>
		<path class="st0" d="M199.26,590l42.39-33.78c0.37-0.3,0.7-0.58,1.05-0.91c4.49-4.41,28.85-30.04,40.87-42.71
			c4.08-4.3,10.32-5.73,15.87-3.66l49.39,18.43c10.26,4-10.82,73.84-10.82,73.84c-0.43,8.68,5.45,8.45,6.04,0.37l18.27-65.37
			c1.35-4.82,0.27-10.06-3.11-13.75c-7.54-8.22-22.41-19.19-31.89-25.86c-5.18-3.64-7.39-10.13-5.61-16.2l17.63-59.87
			c3.52-11.96,19.36-14.45,26.38-4.15l8.44,12.39c3.92,5.76,11.33,7.99,17.78,5.36l25.13-10.24c5.5-3.78,2.77-9.98-5.37-5.14
			l-16.96,8.29c-6.53,3.19-14.41,1.17-18.58-4.78l-30.31-43.16c-3.76-4.24-8.67-7.28-14.13-8.77c-4.81-0.77-9.65-1.47-14.48-2.22
			c-7.06-1.09-13.86,3.03-16.11,9.82c-10.66,32.23-39.48,119.7-42.27,131.39c-2.31,9.65-32.39,42.27-43.15,52.08
			c-7.94,7.24-15.88,14.47-23.82,21.71C187.53,588.53,193.35,595.43,199.26,590z"/>
		<path class="st0" d="M340.67,618.44c-0.26,0-0.51,0-0.77-0.02c-6.48-0.4-15.19-7.17-14.61-18.78c0.04-0.88,0.19-1.74,0.44-2.57
			c5.85-19.41,11.3-42.46,12.83-55.57c0.45-3.84-1.78-7.45-5.4-8.81l-34.79-12.67c-3.15-1.17-6.68-0.37-8.99,2.07
			c-17.56,18.49-36.38,38.25-39.6,41.31c-0.22,0.22-0.88,0.79-1.12,0.99l-42.46,33.83c-7.45,6.58-16.5,5.25-21.64,0.44
			c-6.18-5.78-6.62-15.36-1.04-22.31c0.35-0.42,0.73-0.83,1.14-1.2l23.81-21.71c12.92-11.77,37.77-40.31,39.99-46.83
			c2.93-12.28,32.25-101.18,44.71-138.82c2.63-8.03,10.68-12.82,19.09-11.38c4.11,0.7,8.23,1.32,12.34,1.94l13.29,3.46
			c8.62,2.27,15.32,6.42,20.47,12.25l24.45,39c2.37,3.36,6.83,4.51,10.53,2.7l13.64-6.67c9.44-5.66,18.02-2.36,21.64,3.31
			c4.2,6.57,1.85,15.33-5.46,20.35c-0.63,0.44-1.32,0.8-2.04,1.1l-25.14,10.24c-11.14,4.54-23.94,0.68-30.72-9.27l-13.22-19.41
			l-19.15,65.03c-1.01,3.44,0.31,7.14,3.24,9.23c34.04,24.23,38.28,33.66,39.34,37c1.28,4.09,0.33,7.58-0.09,9.08l-19.19,68.73
			C354.99,614.77,346.79,618.44,340.67,618.44z M330.32,489.2v0.02C330.32,489.21,330.32,489.21,330.32,489.2z M328.53,484.36
			c0.01,0,0.01,0.01,0.02,0.01C328.54,484.37,328.54,484.36,328.53,484.36z"/>
	</g>
	<g>
		<path class="st1" d="M237.54,471.16c-1.31,0-2.64-0.2-3.96-0.64l-13.14-4.34c-12.66-4.19-22.6-13.05-27.3-24.33
			c-3.9-9.39-3.67-19.33,0.65-28.04c1.27-2.16,19.06-31.42,26.01-41.21c7.9-11.18,18.8-26.39,40.31-24.69
			c9.14,0.75,13.93,5.26,16.34,8.92c3.94,5.99,3.67,13.15,2.09,17.86l-29,87.79C247.79,467.8,242.85,471.16,237.54,471.16z
			 M252.06,374.21c-2.85,1.61-6.13,5.25-11.62,13.02c-6.45,9.08-24.33,38.51-24.52,38.81c-0.53,1.16-0.51,3.52,0.56,6.09
			c1.85,4.45,6.3,8.2,11.89,10.05l1.12,0.37L252.06,374.21z M254.55,366.71c-0.01,0.02-0.02,0.05-0.04,0.09L254.55,366.71z"/>
	</g>
</g>
<g>
	<g>
		<g>
			<circle class="st1" cx="466.78" cy="267.57" r="55.48"/>
			<path class="st2" d="M490.13,278.58h-27.16c-2.08,0-4.09-0.83-5.56-2.31c-1.48-1.48-2.3-3.49-2.29-5.57l0.12-31.56
				c0.02-4.32,3.53-7.82,7.85-7.82c0.01,0,0.02,0,0.03,0c4.34,0.02,7.83,3.54,7.82,7.88l-0.09,23.68h19.28
				c4.34,0,7.85,3.51,7.85,7.85S494.46,278.58,490.13,278.58z"/>
		</g>
	</g>
	<path class="st1" d="M426.41,620.44c-7.59,0-13.74-6.15-13.74-13.74V502.01c0-7.59,6.15-13.74,13.74-13.74h237.9
		c7.59,0,13.74,6.15,13.74,13.74v104.6c0,7.59-6.15,13.74-13.74,13.74s-13.74-6.15-13.74-13.74v-90.86H440.14v90.96
		C440.14,614.3,434,620.44,426.41,620.44z"/>
	<g>
		<path class="st1" d="M640.45,474.6H530.41c-6.5,0-11.77-5.27-11.77-11.77v-6.78c0-31.56,25.69-57.25,57.25-57.25h19.1
			c31.56,0,57.24,25.69,57.24,57.25v6.78C652.22,469.32,646.95,474.6,640.45,474.6z M542.55,451.05h85.76
			c-2.41-16.23-16.44-28.71-33.33-28.71h-19.1C559,422.34,544.97,434.82,542.55,451.05z"/>
		<path class="st1" d="M585.43,391.33c-21.26,0-38.56-17.58-38.56-39.19c0-21.62,17.3-39.2,38.56-39.2s38.55,17.58,38.55,39.2
			C623.99,373.75,606.69,391.33,585.43,391.33z M585.43,336.49c-8.28,0-15.02,7.02-15.02,15.65c0,8.62,6.74,15.64,15.02,15.64
			c8.28,0,15.01-7.02,15.01-15.64C600.44,343.51,593.71,336.49,585.43,336.49z"/>
	</g>
</g>
</svg>
