<?xml version="1.0" encoding="utf-8"?>
<!-- Generator: Adobe Illustrator 23.0.1, SVG Export Plug-In . SVG Version: 6.00 Build 0)  -->
<svg version="1.1" id="Layer_1" xmlns="http://www.w3.org/2000/svg" xmlns:xlink="http://www.w3.org/1999/xlink" x="0px" y="0px"
	 viewBox="0 0 909.32 909.33" style="enable-background:new 0 0 909.32 909.33;" xml:space="preserve">
<style type="text/css">
	.st0{fill:#0094D9;}
	.st1{fill:#224099;}
	.st2{fill:#FFFFFF;}
	.st3{fill:none;stroke:#224099;stroke-width:2;stroke-linecap:round;stroke-linejoin:round;stroke-miterlimit:10;}
	.st4{fill:none;stroke:#FFFFFF;stroke-width:2;stroke-linecap:round;stroke-linejoin:round;stroke-miterlimit:10;}
	.st5{fill:#1E4497;}
</style>
<g>
	<g>
		<path class="st0" d="M103.92,727.08c-7.71,0-15.31-3.61-20.1-10.39C-44.43,535.56-23.62,290.21,133.29,133.3
			C290.21-23.62,535.56-44.43,716.68,83.82c11.09,7.85,13.72,23.21,5.86,34.3c-7.85,11.1-23.21,13.72-34.3,5.86
			C526.74,9.64,307.99,28.19,168.09,168.1C28.19,308,9.64,526.76,123.98,688.25c7.85,11.09,5.23,26.45-5.86,34.3
			C113.8,725.62,108.84,727.08,103.92,727.08z"/>
		<path class="st1" d="M455.11,909.33c-91.27,0-183.04-27.57-262.48-83.82c-11.09-7.85-13.72-23.21-5.86-34.3
			c7.85-11.1,23.21-13.72,34.3-5.86c161.49,114.34,380.25,95.79,520.16-44.11c139.9-139.9,158.45-358.66,44.11-520.16
			c-7.85-11.09-5.23-26.45,5.86-34.3c11.09-7.86,26.45-5.23,34.3,5.86c128.25,181.12,107.43,426.48-49.48,583.39
			C687.93,864.12,571.94,909.33,455.11,909.33z"/>
	</g>
</g>
<g>
	<path class="st1" d="M462.12,671.44c-105.76,0-191.79-86.04-191.79-191.79s86.04-191.79,191.79-191.79s191.8,86.04,191.8,191.79
		S567.88,671.44,462.12,671.44z M462.12,320.66c-87.66,0-158.98,71.32-158.98,158.98s71.32,158.98,158.98,158.98
		s158.99-71.32,158.99-158.98S549.79,320.66,462.12,320.66z"/>
	<path class="st1" d="M462.12,608.91c-71.28,0-129.27-57.99-129.27-129.27c0-9.06,7.35-16.41,16.41-16.41s16.41,7.35,16.41,16.41
		c0,53.19,43.27,96.46,96.46,96.46c9.06,0,16.41,7.35,16.41,16.41C478.53,601.57,471.18,608.91,462.12,608.91z"/>
	<path class="st1" d="M553.78,561.91c-3.32,0-6.67-1-9.57-3.09c-7.35-5.3-9.02-15.55-3.73-22.9c11.85-16.46,18.11-35.92,18.11-56.27
		c0-53.19-43.27-96.46-96.46-96.46c-13.5,0-26.55,2.73-38.79,8.11c-8.3,3.65-17.98-0.11-21.62-8.41
		c-3.65-8.29,0.12-17.98,8.41-21.62c16.43-7.23,33.92-10.89,52-10.89c71.28,0,129.27,57.99,129.27,129.27
		c0,27.28-8.4,53.36-24.28,75.44C563.9,559.54,558.87,561.91,553.78,561.91z"/>
</g>
<g>
	<path class="st1" d="M223.26,706.77c-7.93,0-14.35-6.43-14.35-14.35V252.67c0-7.93,6.43-14.35,14.35-14.35
		c7.93,0,14.35,6.43,14.35,14.35v439.74C237.61,700.34,231.18,706.77,223.26,706.77z"/>
	<path class="st1" d="M223.26,710.92c-13.59,0-24.61-11.02-24.61-24.61V574.44c0-13.59,11.02-24.61,24.61-24.61
		c13.59,0,24.61,11.02,24.61,24.61v111.88C247.86,699.9,236.85,710.92,223.26,710.92z"/>
	<path class="st1" d="M223.25,414.49c-25.17,0-55.18-10.99-55.18-63.37v-98.45c0-7.93,6.43-14.35,14.35-14.35
		s14.35,6.43,14.35,14.35v98.45c0,31.99,13.07,34.66,26.47,34.66s26.47-2.68,26.47-34.66v-98.45c0-7.93,6.43-14.35,14.35-14.35
		c7.93,0,14.35,6.43,14.35,14.35v98.45C278.43,403.5,248.42,414.49,223.25,414.49z"/>
	<path class="st1" d="M223.26,402.62c-25.17,0-55.18-10.99-55.18-63.37c0-7.93,6.43-14.35,14.35-14.35s14.35,6.43,14.35,14.35
		c0,31.99,13.08,34.66,26.47,34.66c13.39,0,26.47-2.68,26.47-34.66c0-7.93,6.43-14.35,14.35-14.35c7.93,0,14.35,6.43,14.35,14.35
		C278.43,391.63,248.43,402.62,223.26,402.62z"/>
</g>
<g>
	<path class="st5" d="M705,713.76c-13.59,0-24.61-11.02-24.61-24.61V577.28c0-13.59,11.02-24.61,24.61-24.61
		s24.61,11.02,24.61,24.61v111.87C729.61,702.75,718.59,713.76,705,713.76z"/>
	<path class="st5" d="M705,709.62c-7.93,0-14.35-6.43-14.35-14.35V485.36c0-0.12,0-0.23,0-0.34s0-0.23,0-0.34v-227.9
		c0-8.82,5.3-16.59,13.51-19.81c8.21-3.21,17.38-1.12,23.37,5.35l10.54,11.36c14.26,15.38,22.11,35.41,22.11,56.37V436
		c0,42.61-19.86,57.83-40.82,62.03v197.24C719.35,703.19,712.93,709.62,705,709.62z M719.35,275.89v192.19
		c7.05-3.62,12.11-12.18,12.11-32.08V310.04C731.46,297.53,727.19,285.53,719.35,275.89z"/>
	<path class="st5" d="M705,483.92c-7.93,0-14.35-6.43-14.35-14.35c0-7.93,6.43-14.35,14.35-14.35c13.39,0,26.47-2.68,26.47-34.66
		c0-7.93,6.43-14.35,14.35-14.35c7.93,0,14.35,6.43,14.35,14.35C760.17,472.93,730.17,483.92,705,483.92z"/>
</g>
</svg>
