<?xml version="1.0" encoding="utf-8"?>
<!-- Generator: Adobe Illustrator 23.0.6, SVG Export Plug-In . SVG Version: 6.00 Build 0)  -->
<svg version="1.1" id="Layer_1" xmlns="http://www.w3.org/2000/svg" xmlns:xlink="http://www.w3.org/1999/xlink" x="0px" y="0px"
	 viewBox="0 0 884.6 884.6" style="enable-background:new 0 0 884.6 884.6;" xml:space="preserve">
<style type="text/css">
	.st0{fill:#0095DA;}
	.st1{fill:#21409A;}
</style>
<g>
	<path class="st0" d="M101.1,707.3c-7.5,0-14.9-3.5-19.6-10.1C-43.2,521-23,282.3,129.7,129.7C282.3-23,521-43.2,697.2,81.5
		c10.8,7.6,13.3,22.6,5.7,33.4s-22.6,13.4-33.4,5.7c-157.1-111.2-369.9-93.2-506,42.9s-154.1,348.9-42.9,506
		c7.6,10.8,5.1,25.7-5.7,33.4C110.7,705.9,105.9,707.3,101.1,707.3z"/>
	<path class="st1" d="M442.8,884.6c-88.8,0-178.1-26.8-255.4-81.5c-10.8-7.6-13.4-22.6-5.7-33.4c7.6-10.8,22.6-13.4,33.4-5.7
		c157.1,111.2,369.9,93.2,506-42.9s154.1-348.9,42.9-506c-7.6-10.8-5.1-25.7,5.7-33.4c10.8-7.6,25.7-5.1,33.4,5.7
		C927.9,363.6,907.6,602.3,755,754.9C669.3,840.7,556.4,884.6,442.8,884.6z"/>
</g>
<path class="st0" d="M553.2,460c-2.6-5.6-7.9-9.4-14-10.1l-32.6-3.4c-2.8-0.3-5-2.4-5.2-4l-1.7-29.2c-0.1-2.1-0.6-4-1.3-5.8
	c17.8-15.9,29.8-38.4,32-64.1l4.2-47.9c2.4-27-6.8-54-25.1-73.9c-18.3-20-44.4-31.5-71.5-31.5h-8.4c-27.1,0-53.2,11.5-71.5,31.5
	c-18.3,20-27.4,46.9-25.1,73.9l4.2,47.9c2.3,26.2,14.6,49,33,65c-0.6,1.6-1.1,3.4-1.2,5.3l-1.6,27.9c-0.4,2.8-2.6,5-5.4,5.2
	l-36.1,3.5c-40.5,4-73,34.9-78.9,75.2c-5.6,38.4,14,75.6,48.9,92.5c35.2,17.1,74.5,26.1,113.6,26.1h17.8c5.7,0,11.1-2.8,14.4-7.5
	l110-159.3C555.2,472.2,555.8,465.6,553.2,460z M383.8,245.2c11.9-13,28.1-20.1,45.7-20.1h8.4c17.6,0,33.8,7.1,45.7,20.1
	c11.9,13,17.6,29.8,16.1,47.3l-4.2,47.9c-2.8,32.3-29.4,56.6-61.8,56.6c-32.4,0-59-24.3-61.8-56.6l-4.2-47.9
	C366.2,274.9,371.9,258.1,383.8,245.2z M418.2,609.2h-8.6c-33.9,0-67.9-7.8-98.4-22.6c-21.1-10.3-33.1-32.8-29.6-56
	c3.6-24.4,23.2-43.1,47.8-45.5l36.1-3.5c19.1-1.9,34.1-16.5,36.7-36.7l1-17.7c9.6,3.1,19.9,4.9,30.6,4.9c11.1,0,21.8-1.8,31.7-5.2
	l1.2,19.1c2.4,18.9,17.3,33.4,36.3,35.4l3.4,0.4L418.2,609.2z"/>
<g>
	<path class="st1" d="M687.6,373.6l-13.3-8.8c-9.9-6.5-23.3-3.8-29.9,6.2L524.6,554.9l49.3,32.5l119.8-183.9
		C700.3,393.6,697.5,380.2,687.6,373.6z"/>
	<path class="st1" d="M492.5,599l-2.5,34c-0.6,5.5,1.8,10.9,6.5,13.9c2.5,1.6,5.3,2.4,8.1,2.4c2.4,0,4.9-0.6,7-1.9l28.8-15.1
		l14.1-18.5l-49.2-32.8L492.5,599z"/>
	
		<rect x="533.5" y="554" transform="matrix(0.5573 -0.8303 0.8303 0.5573 -246.472 707.2404)" class="st1" width="13.1" height="61.6"/>
</g>
</svg>
