<?xml version="1.0" encoding="utf-8"?>
<!-- Generator: Adobe Illustrator 23.0.1, SVG Export Plug-In . SVG Version: 6.00 Build 0)  -->
<svg version="1.1" id="Layer_1" xmlns="http://www.w3.org/2000/svg" xmlns:xlink="http://www.w3.org/1999/xlink" x="0px" y="0px"
	 viewBox="0 0 867.12 867.13" style="enable-background:new 0 0 867.12 867.13;" xml:space="preserve">
<style type="text/css">
	.st0{fill:#21409A;}
	.st1{fill:#0095DA;}
	.st2{fill:#FFFFFF;}
	.st3{fill:none;stroke:#FFFFFF;stroke-width:2;stroke-linecap:round;stroke-linejoin:round;stroke-miterlimit:10;}
	.st4{fill:#1F4396;}
	.st5{fill:#1F4497;}
	.st6{fill:#214099;}
</style>
<g>
	<g>
		<path class="st1" d="M99.1,693.34c-7.36,0-14.6-3.45-19.17-9.91C-42.37,510.71-22.52,276.75,127.11,127.11
			C276.74-22.52,510.71-42.37,683.43,79.93c10.58,7.49,13.09,22.13,5.59,32.71c-7.49,10.58-22.12,13.09-32.71,5.59
			C502.32,9.21,293.71,26.89,160.29,160.3C26.89,293.71,9.2,502.31,118.23,656.31c7.49,10.58,4.99,25.22-5.59,32.71
			C108.52,691.94,103.78,693.34,99.1,693.34z"/>
		<path class="st0" d="M433.99,867.13c-87.04,0-174.55-26.29-250.3-79.93c-10.58-7.49-13.09-22.13-5.59-32.71
			c7.48-10.58,22.13-13.09,32.71-5.59c154.01,109.04,362.62,91.34,496.02-42.07c133.41-133.41,151.1-342.02,42.07-496.02
			c-7.49-10.58-4.99-25.22,5.59-32.71c10.59-7.49,25.22-4.98,32.71,5.59c122.29,172.72,102.44,406.69-47.19,556.32
			C656.01,824.02,545.4,867.13,433.99,867.13z"/>
	</g>
</g>
<g>
	<path class="st1" d="M517.14,642.88H337.27c-32.66,0-59.22-26.57-59.22-59.22V275.14c0-32.66,26.57-59.22,59.22-59.22h179.86
		c32.66,0,59.22,26.57,59.22,59.22v308.51C576.36,616.31,549.79,642.88,517.14,642.88z M337.27,247.21
		c-15.4,0-27.94,12.54-27.94,27.94v308.51c0,15.4,12.54,27.94,27.94,27.94h179.86c15.4,0,27.94-12.54,27.94-27.94V275.14
		c0-15.4-12.54-27.94-27.94-27.94H337.27z"/>
	<path class="st1" d="M503.65,562.08H349.86c-18.06,0-32.75-14.69-32.75-32.75V291.76c0-18.06,14.69-32.75,32.75-32.75h153.79
		c18.06,0,32.75,14.69,32.75,32.75v237.58C536.4,547.39,521.71,562.08,503.65,562.08z M349.86,274.65c-9.43,0-17.1,7.67-17.1,17.1
		v237.58c0,9.43,7.67,17.1,17.1,17.1h153.79c9.43,0,17.1-7.67,17.1-17.1V291.76c0-9.43-7.67-17.1-17.1-17.1H349.86z"/>
	<g>
		<g>
			<circle class="st2" cx="562.98" cy="405.37" r="101.06"/>
			<path class="st0" d="M562.98,518.16c-62.19,0-112.79-50.6-112.79-112.8c0-62.19,50.6-112.79,112.79-112.79
				s112.79,50.6,112.79,112.79C675.76,467.56,625.16,518.16,562.98,518.16z M562.98,316.05c-49.26,0-89.32,40.07-89.32,89.32
				s40.07,89.33,89.32,89.33c49.26,0,89.32-40.07,89.32-89.33S612.23,316.05,562.98,316.05z"/>
		</g>
		<path class="st0" d="M479.09,458c-5.51,19.21-21.29,34.39-38.8,38.45c-2.93,0.68-3.6,5.28-1.03,6.83
			c19.86,11.97,46.44,10.35,65.5-5"/>
		<path class="st0" d="M622.27,438.42c-2.4-10.72-10.49-28.37-11.02-45.17c-0.71-22.67-20.97-41.23-46.21-41.23h-1.75
			c-25.01,0-45.39,17.99-45.89,40.46c-0.4,18.09-8.46,35.42-10.89,45.91c-1.22,5.27,3.31,10.19,9.3,10.19l34.9,0
			c0.96,6.05,6.68,12.93,13.68,12.93c6.99,0,12.72-6.88,13.67-12.93h34.9C618.94,448.57,623.45,443.68,622.27,438.42z"/>
	</g>
	<path class="st1" d="M443.14,596.04h-31.95c-6.48,0-11.73-5.26-11.73-11.73c0-6.48,5.26-11.73,11.73-11.73h31.95
		c6.48,0,11.73,5.26,11.73,11.73C454.87,590.78,449.62,596.04,443.14,596.04z"/>
</g>
</svg>
