<?xml version="1.0" encoding="utf-8"?>
<!-- Generator: Adobe Illustrator 23.0.6, SVG Export Plug-In . SVG Version: 6.00 Build 0)  -->
<svg version="1.1" id="Layer_1" xmlns="http://www.w3.org/2000/svg" xmlns:xlink="http://www.w3.org/1999/xlink" x="0px" y="0px"
	 viewBox="0 0 452.2 452" style="enable-background:new 0 0 452.2 452;" xml:space="preserve">
<style type="text/css">
	.st0{fill:#0095DA;}
	.st1{fill:#21409A;}
</style>
<g>
	<path class="st0" d="M82.1,395.4c-3.3,0-6.5-1.2-9.1-3.6C-8.4,317-23.9,195.4,36.1,102.6C96,9.8,213.3-26,314.9,17.5
		c6.8,2.9,10,10.8,7.1,17.7c-2.9,6.8-10.9,10-17.7,7.1c-89.5-38.3-192.8-6.8-245.6,75C5.9,199,19.5,306.1,91.2,372
		c5.5,5,5.8,13.6,0.8,19C89.4,393.9,85.7,395.4,82.1,395.4z"/>
</g>
<g>
	<path class="st1" d="M226.6,451.8c-29.9,0-60.2-6-89.2-18.4c-6.8-2.9-10-10.8-7.1-17.7c2.9-6.8,10.8-10,17.7-7.1
		c89.5,38.3,192.8,6.8,245.6-75C446.4,251.9,432.7,144.8,361,79c-5.5-5-5.8-13.6-0.8-19c5-5.5,13.6-5.8,19-0.8
		c81.4,74.8,96.9,196.4,36.9,289.2C373.3,414.6,301.3,451.8,226.6,451.8z"/>
</g>
<g>
	<path class="st1" d="M304.1,136.6H142.4c-8.8,0-15.7,8.3-15.7,18.9v15.4c0,10.6,6.9,18.9,15.7,18.9h161.7c8.8,0,15.7-8.3,15.7-18.9
		v-15.4C319.8,144.9,312.9,136.6,304.1,136.6z M307.7,170.9c0,4.1-2.2,6.8-3.6,6.8H142.4c-1.4,0-3.6-2.7-3.6-6.8v-15.4
		c0-4.1,2.2-6.8,3.6-6.8h161.7c1.4,0,3.6,2.7,3.6,6.8V170.9z"/>
	<path class="st1" d="M304.1,206.2H142.4c-8.8,0-15.7,8.3-15.7,18.9v15.4c0,10.6,6.9,18.9,15.7,18.9h161.7c8.8,0,15.7-8.3,15.7-18.9
		v-15.4C319.8,214.5,312.9,206.2,304.1,206.2z M307.7,240.5c0,4.1-2.2,6.8-3.6,6.8H142.4c-1.4,0-3.6-2.7-3.6-6.8v-15.4
		c0-4.1,2.2-6.8,3.6-6.8h161.7c1.4,0,3.6,2.7,3.6,6.8V240.5z"/>
	<path class="st1" d="M304.1,275.9H142.4c-8.8,0-15.7,8.3-15.7,18.9v15.4c0,10.6,6.9,18.9,15.7,18.9h161.7c8.8,0,15.7-8.4,15.7-18.9
		v-15.4C319.8,284.2,312.9,275.9,304.1,275.9z"/>
</g>
</svg>
