<?xml version="1.0" encoding="utf-8"?>
<!-- Generator: Adobe Illustrator 23.0.1, SVG Export Plug-In . SVG Version: 6.00 Build 0)  -->
<svg version="1.1" id="Layer_1" xmlns="http://www.w3.org/2000/svg" xmlns:xlink="http://www.w3.org/1999/xlink" x="0px" y="0px"
	 viewBox="0 0 908.86 908.86" style="enable-background:new 0 0 908.86 908.86;" xml:space="preserve">
<style type="text/css">
	.st0{fill:#0094D9;}
	.st1{fill:#224099;}
	.st2{fill:#FFFFFF;}
	.st3{fill:none;stroke:#224099;stroke-width:2;stroke-linecap:round;stroke-linejoin:round;stroke-miterlimit:10;}
	.st4{fill:none;stroke:#FFFFFF;stroke-width:2;stroke-linecap:round;stroke-linejoin:round;stroke-miterlimit:10;}
	.st5{fill:#1E4497;}
</style>
<g>
	<g>
		<path class="st0" d="M104.7,726.42c-7.71,0-15.31-3.61-20.1-10.39C-43.64,534.9-22.83,289.55,134.08,132.64
			C290.99-24.28,536.35-45.09,717.47,83.16c11.09,7.85,13.72,23.21,5.86,34.3c-7.85,11.1-23.21,13.72-34.3,5.86
			C527.54,8.98,308.78,27.54,168.88,167.44C28.98,307.34,10.43,526.09,124.77,687.6c7.85,11.09,5.23,26.45-5.86,34.3
			C114.58,724.96,109.62,726.42,104.7,726.42z"/>
		<path class="st1" d="M455.9,908.67c-91.27,0-183.04-27.57-262.48-83.81c-11.09-7.85-13.72-23.21-5.86-34.3
			c7.85-11.1,23.21-13.72,34.3-5.86c161.5,114.34,380.26,95.79,520.15-44.11c139.91-139.9,158.46-358.66,44.12-520.16
			c-7.85-11.09-5.23-26.45,5.86-34.3c11.09-7.86,26.45-5.23,34.3,5.86c128.25,181.13,107.44,426.48-49.48,583.39
			C688.72,863.46,572.73,908.67,455.9,908.67z"/>
	</g>
</g>
<g>
	<path class="st1" d="M530.31,557.92H364.18c-73.57,0-133.41-59.85-133.41-133.41v-32.45c0-9.06,7.35-16.41,16.41-16.41h400.14
		c9.06,0,16.41,7.35,16.41,16.41v32.45C663.72,498.08,603.87,557.92,530.31,557.92z M263.58,408.47v16.04
		c0,55.47,45.13,100.6,100.6,100.6h166.12c55.47,0,100.6-45.13,100.6-100.6v-16.04H263.58z"/>
	<path class="st1" d="M437.94,408.47c-9.06,0-16.41-7.35-16.41-16.41V229.18h-57.35c-55.47,0-100.6,45.13-100.6,100.6v62.29
		c0,9.06-7.35,16.41-16.41,16.41c-9.06,0-16.41-7.35-16.41-16.41v-62.29c0-73.56,59.85-133.41,133.41-133.41h73.76
		c9.06,0,16.41,7.35,16.41,16.41v179.3C454.35,401.13,447,408.47,437.94,408.47z"/>
	<path class="st1" d="M334.93,740.89c-34.79,0-63.1-28.31-63.1-63.1c0-34.8,28.31-63.11,63.1-63.11c34.8,0,63.11,28.31,63.11,63.11
		C398.03,712.58,369.73,740.89,334.93,740.89z M334.93,647.49c-16.7,0-30.29,13.59-30.29,30.3c0,16.7,13.59,30.29,30.29,30.29
		c16.71,0,30.3-13.59,30.3-30.29C365.22,661.08,351.63,647.49,334.93,647.49z"/>
	<path class="st1" d="M546.35,740.89c-34.8,0-63.11-28.31-63.11-63.1c0-34.8,28.31-63.11,63.11-63.11c34.79,0,63.1,28.31,63.1,63.11
		C609.46,712.58,581.15,740.89,546.35,740.89z M546.35,647.49c-16.71,0-30.3,13.59-30.3,30.3c0,16.7,13.59,30.29,30.3,30.29
		c16.7,0,30.29-13.59,30.29-30.29C576.65,661.08,563.06,647.49,546.35,647.49z"/>
	<path class="st1" d="M364.03,638.86c-3.97,0-7.95-1.43-11.1-4.33c-6.67-6.13-7.11-16.51-0.98-23.18l283.28-308.24
		c3.11-3.38,7.49-5.3,12.08-5.3h81.3c9.06,0,16.41,7.35,16.41,16.41s-7.35,16.41-16.41,16.41h-74.09l-278.4,302.93
		C372.88,637.07,368.46,638.86,364.03,638.86z"/>
	<path class="st1" d="M538.14,647.49c-3.79,0-7.6-1.31-10.69-3.97l-90.91-78.26c-6.87-5.91-7.64-16.27-1.73-23.13
		c5.91-6.87,16.27-7.65,23.13-1.73l90.91,78.26c6.87,5.91,7.64,16.27,1.73,23.13C547.34,645.56,542.75,647.49,538.14,647.49z"/>
	<path class="st1" d="M499.65,694.19H381.63c-9.06,0-16.41-7.35-16.41-16.41c0-9.06,7.35-16.41,16.41-16.41h118.02
		c9.06,0,16.41,7.35,16.41,16.41C516.06,686.85,508.71,694.19,499.65,694.19z"/>
	<path class="st1" d="M437.96,408.48c-5.48,0-10.84-2.75-13.95-7.75L321,235.05c-4.79-7.69-2.43-17.81,5.27-22.59
		c7.69-4.79,17.81-2.43,22.59,5.27l103.01,165.68c4.79,7.69,2.43,17.81-5.27,22.59C443.91,407.68,440.91,408.48,437.96,408.48z"/>
	<path class="st1" d="M437.92,408.48c-2.76,0-5.56-0.7-8.12-2.17L246.92,301.8c-7.87-4.49-10.6-14.52-6.1-22.38
		s14.52-10.6,22.38-6.1l182.88,104.51c7.87,4.49,10.6,14.52,6.1,22.38C449.15,405.51,443.62,408.48,437.92,408.48z"/>
</g>
</svg>
